<svg width="154" height="166" viewBox="0 0 154 166" fill="none" xmlns="http://www.w3.org/2000/svg">
<path d="M58.9903 6.86496C81.6172 -5.6056 113.459 2.15947 134.451 5.05494C135.275 5.16866 135.758 6.03957 135.418 6.79862C125.655 28.598 116.278 57.1161 93.5809 69.6258C72.8389 81.0576 53.4743 72.5861 34.2809 67.0338C36.0788 61.6034 38.8683 56.3252 42.442 51.4786C42.899 50.8372 43.3478 50.2192 43.8231 49.5873C43.2183 50.0965 42.6368 50.5943 42.044 51.1199C31.9499 59.6612 23.6919 72.673 22.8092 87.4156C22.6824 87.5743 22.5354 87.7189 22.3686 87.8446C21.8026 88.272 21.0602 88.4526 20.3242 88.3496C19.5883 88.2464 18.9241 87.869 18.4973 87.3026C18.0694 86.736 17.9138 86.0267 18.0454 85.3286C18.2307 84.3276 18.443 83.3465 18.6862 82.3635C20.2863 75.7364 23.228 69.9058 26.9913 64.6955C28.1839 62.7817 29.1561 60.2383 29.9954 57.5821C30.3175 56.5261 30.6319 55.4561 30.9431 54.3757C31.6653 51.8007 32.2978 49.3134 32.9167 47.3797C37.2415 32.0745 42.4995 15.9538 58.9903 6.86496Z" fill="url(#paint0_linear_12034_603)"/>
<path d="M100.657 36.2674C100.657 24.5576 91.1646 15.065 79.4549 15.065C67.7451 15.065 58.2525 24.5576 58.2525 36.2674C58.2525 47.9771 67.7451 57.4697 79.4549 57.4697L79.4549 60.3516C66.1535 60.3516 55.3706 49.5687 55.3706 36.2674C55.3706 22.966 66.1535 12.1831 79.4549 12.1831C92.7562 12.1831 103.539 22.966 103.539 36.2674C103.539 49.5687 92.7562 60.3516 79.4549 60.3516L79.4549 57.4697C91.1646 57.4697 100.657 47.9771 100.657 36.2674Z" fill="#E0F4ED"/>
<path d="M79.4094 22.1887C81.1502 22.1888 82.8168 22.5063 84.3547 23.0862L80.4592 35.3069C80.1997 36.1208 81.0141 36.865 81.801 36.5325L92.7542 31.9036C93.1917 33.2605 93.4299 34.7077 93.4299 36.2102C93.4297 43.9533 87.1525 50.2305 79.4094 50.2307C71.6661 50.2307 65.3882 43.9535 65.3879 36.2102C65.3879 28.4667 71.666 22.1887 79.4094 22.1887Z" fill="#0B523A"/>
<path d="M87.4331 13.4298C94.2358 15.826 99.6422 21.1818 102.106 27.9523L92.7544 31.9034C91.444 27.8396 88.3302 24.5861 84.355 23.087L87.4331 13.4298Z" fill="#E0F4ED"/>
<path d="M38 136.8V107.84H42.8L43.4 110.64C43.8267 110.053 44.3333 109.52 44.92 109.04C45.5067 108.533 46.2 108.133 47 107.84C47.8267 107.52 48.7867 107.36 49.88 107.36C51.7733 107.36 53.44 107.827 54.88 108.76C56.32 109.693 57.4533 110.96 58.28 112.56C59.1333 114.133 59.56 115.933 59.56 117.96C59.56 119.987 59.1333 121.8 58.28 123.4C57.4267 124.973 56.28 126.213 54.84 127.12C53.4 128.027 51.76 128.48 49.92 128.48C48.4267 128.48 47.1333 128.213 46.04 127.68C44.9733 127.12 44.0933 126.36 43.4 125.4V136.8H38ZM48.64 123.76C49.7067 123.76 50.64 123.52 51.44 123.04C52.2667 122.56 52.9067 121.88 53.36 121C53.8133 120.12 54.04 119.107 54.04 117.96C54.04 116.813 53.8133 115.8 53.36 114.92C52.9067 114.013 52.2667 113.32 51.44 112.84C50.64 112.333 49.7067 112.08 48.64 112.08C47.6 112.08 46.6667 112.333 45.84 112.84C45.04 113.32 44.4 114 43.92 114.88C43.4667 115.76 43.24 116.773 43.24 117.92C43.24 119.067 43.4667 120.093 43.92 121C44.4 121.88 45.04 122.56 45.84 123.04C46.6667 123.52 47.6 123.76 48.64 123.76Z" fill="#E0F4ED"/>
<path d="M73.8909 128.48C71.8643 128.48 70.0643 128.053 68.4909 127.2C66.9443 126.32 65.7309 125.107 64.8509 123.56C63.9976 121.987 63.5709 120.173 63.5709 118.12C63.5709 116.013 63.9976 114.16 64.8509 112.56C65.7309 110.933 66.9443 109.667 68.4909 108.76C70.0376 107.827 71.8376 107.36 73.8909 107.36C75.8909 107.36 77.6376 107.8 79.1309 108.68C80.6243 109.56 81.7843 110.747 82.6109 112.24C83.4376 113.733 83.8509 115.427 83.8509 117.32C83.8509 117.587 83.8509 117.893 83.8509 118.24C83.8509 118.56 83.8243 118.893 83.7709 119.24H67.4109V115.96H78.4109C78.3309 114.653 77.8643 113.627 77.0109 112.88C76.1843 112.133 75.1443 111.76 73.8909 111.76C72.9843 111.76 72.1443 111.973 71.3709 112.4C70.5976 112.8 69.9843 113.427 69.5309 114.28C69.1043 115.133 68.8909 116.213 68.8909 117.52V118.68C68.8909 119.773 69.0909 120.733 69.4909 121.56C69.9176 122.36 70.5043 122.987 71.2509 123.44C71.9976 123.867 72.8643 124.08 73.8509 124.08C74.8376 124.08 75.6509 123.867 76.2909 123.44C76.9576 123.013 77.4509 122.467 77.7709 121.8H83.2909C82.9176 123.053 82.2909 124.187 81.4109 125.2C80.5309 126.213 79.4509 127.013 78.1709 127.6C76.8909 128.187 75.4643 128.48 73.8909 128.48Z" fill="#E0F4ED"/>
<path d="M88.2734 128V107.84H93.0734L93.5934 111.56C94.0734 110.68 94.6734 109.933 95.3934 109.32C96.1401 108.707 96.9801 108.227 97.9134 107.88C98.8734 107.533 99.9268 107.36 101.073 107.36V113.08H99.2334C98.4334 113.08 97.6868 113.173 96.9934 113.36C96.3268 113.547 95.7401 113.853 95.2334 114.28C94.7268 114.68 94.3401 115.24 94.0734 115.96C93.8068 116.68 93.6734 117.587 93.6734 118.68V128H88.2734Z" fill="#E0F4ED"/>
<path d="M105.561 128V106.04C105.561 104.36 105.841 103.027 106.401 102.04C106.961 101.053 107.761 100.333 108.801 99.88C109.867 99.4266 111.107 99.2 112.521 99.2H115.001V103.8H113.321C112.467 103.8 111.854 103.973 111.481 104.32C111.134 104.64 110.961 105.213 110.961 106.04V128H105.561ZM102.801 112.36V107.84H115.321V112.36H102.801Z" fill="#E0F4ED"/>
<path d="M9.32 165.48C7.48 165.48 5.88 165.187 4.52 164.6C3.16 164.013 2.09333 163.2 1.32 162.16C0.546667 161.12 0.106667 159.947 0 158.64H5.36C5.49333 159.147 5.72 159.613 6.04 160.04C6.36 160.44 6.78667 160.76 7.32 161C7.85333 161.24 8.49333 161.36 9.24 161.36C9.96 161.36 10.5467 161.267 11 161.08C11.4533 160.867 11.7867 160.587 12 160.24C12.24 159.893 12.36 159.533 12.36 159.16C12.36 158.6 12.2 158.173 11.88 157.88C11.56 157.56 11.0933 157.307 10.48 157.12C9.86667 156.933 9.12 156.747 8.24 156.56C7.28 156.373 6.33333 156.147 5.4 155.88C4.49333 155.587 3.68 155.227 2.96 154.8C2.24 154.373 1.66667 153.827 1.24 153.16C0.813333 152.493 0.6 151.667 0.6 150.68C0.6 149.48 0.92 148.413 1.56 147.48C2.2 146.52 3.13333 145.76 4.36 145.2C5.58667 144.64 7.06667 144.36 8.8 144.36C11.2267 144.36 13.1467 144.907 14.56 146C15.9733 147.093 16.8133 148.6 17.08 150.52H12C11.84 149.907 11.48 149.427 10.92 149.08C10.3867 148.707 9.66667 148.52 8.76 148.52C7.8 148.52 7.06667 148.693 6.56 149.04C6.05333 149.387 5.8 149.84 5.8 150.4C5.8 150.773 5.96 151.107 6.28 151.4C6.62667 151.693 7.10667 151.947 7.72 152.16C8.33333 152.347 9.08 152.533 9.96 152.72C11.5067 153.04 12.8667 153.413 14.04 153.84C15.2133 154.24 16.1333 154.827 16.8 155.6C17.4667 156.347 17.8 157.44 17.8 158.88C17.8 160.16 17.4533 161.307 16.76 162.32C16.0667 163.307 15.08 164.08 13.8 164.64C12.5467 165.2 11.0533 165.48 9.32 165.48Z" fill="#26CD94"/>
<path d="M32.0491 165.48C30.0224 165.48 28.2224 165.053 26.6491 164.2C25.1024 163.32 23.8891 162.107 23.0091 160.56C22.1557 158.987 21.7291 157.173 21.7291 155.12C21.7291 153.013 22.1557 151.16 23.0091 149.56C23.8891 147.933 25.1024 146.667 26.6491 145.76C28.1957 144.827 29.9957 144.36 32.0491 144.36C34.0491 144.36 35.7957 144.8 37.2891 145.68C38.7824 146.56 39.9424 147.747 40.7691 149.24C41.5957 150.733 42.0091 152.427 42.0091 154.32C42.0091 154.587 42.0091 154.893 42.0091 155.24C42.0091 155.56 41.9824 155.893 41.9291 156.24H25.5691V152.96H36.5691C36.4891 151.653 36.0224 150.627 35.1691 149.88C34.3424 149.133 33.3024 148.76 32.0491 148.76C31.1424 148.76 30.3024 148.973 29.5291 149.4C28.7557 149.8 28.1424 150.427 27.6891 151.28C27.2624 152.133 27.0491 153.213 27.0491 154.52V155.68C27.0491 156.773 27.2491 157.733 27.6491 158.56C28.0757 159.36 28.6624 159.987 29.4091 160.44C30.1557 160.867 31.0224 161.08 32.0091 161.08C32.9957 161.08 33.8091 160.867 34.4491 160.44C35.1157 160.013 35.6091 159.467 35.9291 158.8H41.4491C41.0757 160.053 40.4491 161.187 39.5691 162.2C38.6891 163.213 37.6091 164.013 36.3291 164.6C35.0491 165.187 33.6224 165.48 32.0491 165.48Z" fill="#26CD94"/>
<path d="M46.4316 165V144.84H51.1916L51.5916 148.12C52.2049 147 53.0716 146.093 54.1916 145.4C55.3382 144.707 56.6982 144.36 58.2716 144.36C59.9516 144.36 61.3649 144.707 62.5116 145.4C63.6582 146.093 64.5249 147.107 65.1116 148.44C65.7249 149.773 66.0316 151.413 66.0316 153.36V165H60.6716V153.88C60.6716 152.28 60.3249 151.053 59.6316 150.2C58.9649 149.347 57.9249 148.92 56.5116 148.92C55.6049 148.92 54.7916 149.133 54.0716 149.56C53.3782 149.987 52.8316 150.6 52.4316 151.4C52.0316 152.173 51.8316 153.12 51.8316 154.24V165H46.4316Z" fill="#26CD94"/>
<path d="M80.1991 165C78.7857 165 77.5457 164.787 76.4791 164.36C75.4391 163.907 74.6257 163.173 74.0391 162.16C73.4524 161.12 73.1591 159.707 73.1591 157.92V149.36H69.7191V144.84H73.1591L73.7591 139.36H78.5591V144.84H83.8791V149.36H78.5591V158C78.5591 158.907 78.7591 159.533 79.1591 159.88C79.5591 160.227 80.2391 160.4 81.1991 160.4H83.8391V165H80.1991Z" fill="#26CD94"/>
<path d="M88.5437 165V144.84H93.9437V165H88.5437ZM91.2637 142.08C90.3037 142.08 89.5037 141.8 88.8637 141.24C88.2504 140.653 87.9437 139.92 87.9437 139.04C87.9437 138.16 88.2504 137.44 88.8637 136.88C89.5037 136.293 90.3037 136 91.2637 136C92.2504 136 93.0504 136.293 93.6637 136.88C94.3037 137.44 94.6237 138.16 94.6237 139.04C94.6237 139.92 94.3037 140.653 93.6637 141.24C93.0504 141.8 92.2504 142.08 91.2637 142.08Z" fill="#26CD94"/>
<path d="M99.4003 165V144.84H104.16L104.56 148.12C105.174 147 106.04 146.093 107.16 145.4C108.307 144.707 109.667 144.36 111.24 144.36C112.92 144.36 114.334 144.707 115.48 145.4C116.627 146.093 117.494 147.107 118.08 148.44C118.694 149.773 119 151.413 119 153.36V165H113.64V153.88C113.64 152.28 113.294 151.053 112.6 150.2C111.934 149.347 110.894 148.92 109.48 148.92C108.574 148.92 107.76 149.133 107.04 149.56C106.347 149.987 105.8 150.6 105.4 151.4C105 152.173 104.8 153.12 104.8 154.24V165H99.4003Z" fill="#26CD94"/>
<path d="M133.768 165.48C131.741 165.48 129.941 165.053 128.368 164.2C126.821 163.32 125.608 162.107 124.728 160.56C123.874 158.987 123.448 157.173 123.448 155.12C123.448 153.013 123.874 151.16 124.728 149.56C125.608 147.933 126.821 146.667 128.368 145.76C129.914 144.827 131.714 144.36 133.768 144.36C135.768 144.36 137.514 144.8 139.008 145.68C140.501 146.56 141.661 147.747 142.488 149.24C143.314 150.733 143.728 152.427 143.728 154.32C143.728 154.587 143.728 154.893 143.728 155.24C143.728 155.56 143.701 155.893 143.648 156.24H127.288V152.96H138.288C138.208 151.653 137.741 150.627 136.888 149.88C136.061 149.133 135.021 148.76 133.768 148.76C132.861 148.76 132.021 148.973 131.248 149.4C130.474 149.8 129.861 150.427 129.408 151.28C128.981 152.133 128.768 153.213 128.768 154.52V155.68C128.768 156.773 128.968 157.733 129.368 158.56C129.794 159.36 130.381 159.987 131.128 160.44C131.874 160.867 132.741 161.08 133.728 161.08C134.714 161.08 135.528 160.867 136.168 160.44C136.834 160.013 137.328 159.467 137.648 158.8H143.168C142.794 160.053 142.168 161.187 141.288 162.2C140.408 163.213 139.328 164.013 138.048 164.6C136.768 165.187 135.341 165.48 133.768 165.48Z" fill="#26CD94"/>
<path d="M148.15 165V136.2H153.55V165H148.15Z" fill="#26CD94"/>
<defs>
<linearGradient id="paint0_linear_12034_603" x1="114.033" y1="5.55803" x2="27.9841" y2="73.9127" gradientUnits="userSpaceOnUse">
<stop stop-color="#0BA671"/>
<stop offset="1" stop-color="#365C6C"/>
</linearGradient>
</defs>
</svg>
