<svg viewBox="30 26 296 88" fill="none" xmlns="http://www.w3.org/2000/svg">
<path d="M73.9903 40.865C96.6172 28.3944 128.459 36.1595 149.451 39.0549C150.275 39.1687 150.758 40.0396 150.418 40.7986C140.655 62.598 131.278 91.1161 108.581 103.626C87.8389 115.058 68.4743 106.586 49.2809 101.034C51.0788 95.6034 53.8683 90.3252 57.442 85.4786C57.899 84.8372 58.3478 84.2192 58.8231 83.5873C58.2183 84.0965 57.6368 84.5943 57.044 85.1199C46.9499 93.6612 38.6919 106.673 37.8092 121.416C37.6824 121.574 37.5354 121.719 37.3686 121.845C36.8026 122.272 36.0602 122.453 35.3242 122.35C34.5883 122.246 33.9241 121.869 33.4973 121.303C33.0694 120.736 32.9138 120.027 33.0454 119.329C33.2307 118.328 33.443 117.346 33.6862 116.363C35.2863 109.736 38.228 103.906 41.9913 98.6955C43.1839 96.7817 44.1561 94.2383 44.9954 91.5821C45.3175 90.5261 45.6319 89.4561 45.9431 88.3757C46.6653 85.8007 47.2978 83.3134 47.9167 81.3797C52.2415 66.0745 57.4995 49.9538 73.9903 40.865Z" fill="url(#paint0_linear_12034_480)"></path>
<path d="M115.657 70.2674C115.657 58.5576 106.165 49.065 94.4549 49.065C82.7451 49.065 73.2525 58.5576 73.2525 70.2674C73.2525 81.9771 82.7451 91.4697 94.4549 91.4697L94.4549 94.3516C81.1535 94.3516 70.3706 83.5687 70.3706 70.2674C70.3706 56.966 81.1535 46.1831 94.4549 46.1831C107.756 46.1831 118.539 56.966 118.539 70.2674C118.539 83.5687 107.756 94.3516 94.4549 94.3516L94.4549 91.4697C106.165 91.4697 115.657 81.9771 115.657 70.2674Z" fill="#E0F4ED"></path>
<path d="M94.4094 56.1887C96.1502 56.1888 97.8168 56.5063 99.3547 57.0862L95.4592 69.3069C95.1997 70.1208 96.0141 70.865 96.801 70.5325L107.754 65.9036C108.192 67.2605 108.43 68.7077 108.43 70.2102C108.43 77.9533 102.153 84.2305 94.4094 84.2307C86.6661 84.2307 80.3882 77.9535 80.3879 70.2102C80.3879 62.4667 86.666 56.1887 94.4094 56.1887Z" fill="#0B523A"></path>
<path d="M102.433 47.4298C109.236 49.826 114.642 55.1818 117.106 61.9523L107.754 65.9034C106.444 61.8396 103.33 58.5861 99.355 57.087L102.433 47.4298Z" fill="#E0F4ED"></path>
<path d="M170.64 82.6V53.64H175.44L176.04 56.44C176.467 55.8533 176.973 55.32 177.56 54.84C178.147 54.3333 178.84 53.9333 179.64 53.64C180.467 53.32 181.427 53.16 182.52 53.16C184.413 53.16 186.08 53.6267 187.52 54.56C188.96 55.4933 190.093 56.76 190.92 58.36C191.773 59.9333 192.2 61.7333 192.2 63.76C192.2 65.7867 191.773 67.6 190.92 69.2C190.067 70.7733 188.92 72.0133 187.48 72.92C186.04 73.8267 184.4 74.28 182.56 74.28C181.067 74.28 179.773 74.0133 178.68 73.48C177.613 72.92 176.733 72.16 176.04 71.2V82.6H170.64ZM181.28 69.56C182.347 69.56 183.28 69.32 184.08 68.84C184.907 68.36 185.547 67.68 186 66.8C186.453 65.92 186.68 64.9067 186.68 63.76C186.68 62.6133 186.453 61.6 186 60.72C185.547 59.8133 184.907 59.12 184.08 58.64C183.28 58.1333 182.347 57.88 181.28 57.88C180.24 57.88 179.307 58.1333 178.48 58.64C177.68 59.12 177.04 59.8 176.56 60.68C176.107 61.56 175.88 62.5733 175.88 63.72C175.88 64.8667 176.107 65.8933 176.56 66.8C177.04 67.68 177.68 68.36 178.48 68.84C179.307 69.32 180.24 69.56 181.28 69.56Z" fill="#0B523A"></path>
<path d="M206.531 74.28C204.504 74.28 202.704 73.8533 201.131 73C199.584 72.12 198.371 70.9067 197.491 69.36C196.638 67.7867 196.211 65.9733 196.211 63.92C196.211 61.8133 196.638 59.96 197.491 58.36C198.371 56.7333 199.584 55.4667 201.131 54.56C202.678 53.6267 204.478 53.16 206.531 53.16C208.531 53.16 210.278 53.6 211.771 54.48C213.264 55.36 214.424 56.5467 215.251 58.04C216.078 59.5333 216.491 61.2267 216.491 63.12C216.491 63.3867 216.491 63.6933 216.491 64.04C216.491 64.36 216.464 64.6933 216.411 65.04H200.051V61.76H211.051C210.971 60.4533 210.504 59.4267 209.651 58.68C208.824 57.9333 207.784 57.56 206.531 57.56C205.624 57.56 204.784 57.7733 204.011 58.2C203.238 58.6 202.624 59.2267 202.171 60.08C201.744 60.9333 201.531 62.0133 201.531 63.32V64.48C201.531 65.5733 201.731 66.5333 202.131 67.36C202.558 68.16 203.144 68.7867 203.891 69.24C204.638 69.6667 205.504 69.88 206.491 69.88C207.478 69.88 208.291 69.6667 208.931 69.24C209.598 68.8133 210.091 68.2667 210.411 67.6H215.931C215.558 68.8533 214.931 69.9867 214.051 71C213.171 72.0133 212.091 72.8133 210.811 73.4C209.531 73.9867 208.104 74.28 206.531 74.28Z" fill="#0B523A"></path>
<path d="M220.914 73.8V53.64H225.714L226.234 57.36C226.714 56.48 227.314 55.7333 228.034 55.12C228.78 54.5067 229.62 54.0267 230.554 53.68C231.514 53.3333 232.567 53.16 233.714 53.16V58.88H231.874C231.074 58.88 230.327 58.9733 229.634 59.16C228.967 59.3467 228.38 59.6533 227.874 60.08C227.367 60.48 226.98 61.04 226.714 61.76C226.447 62.48 226.314 63.3867 226.314 64.48V73.8H220.914Z" fill="#0B523A"></path>
<path d="M238.201 73.8V51.84C238.201 50.16 238.481 48.8267 239.041 47.84C239.601 46.8533 240.401 46.1333 241.441 45.68C242.507 45.2267 243.747 45 245.161 45H247.641V49.6H245.961C245.107 49.6 244.494 49.7733 244.121 50.12C243.774 50.44 243.601 51.0133 243.601 51.84V73.8H238.201ZM235.441 58.16V53.64H247.961V58.16H235.441Z" fill="#0B523A"></path>
<path d="M178.88 111.28C177.04 111.28 175.44 110.987 174.08 110.4C172.72 109.813 171.653 109 170.88 107.96C170.107 106.92 169.667 105.747 169.56 104.44H174.92C175.053 104.947 175.28 105.413 175.6 105.84C175.92 106.24 176.347 106.56 176.88 106.8C177.413 107.04 178.053 107.16 178.8 107.16C179.52 107.16 180.107 107.067 180.56 106.88C181.013 106.667 181.347 106.387 181.56 106.04C181.8 105.693 181.92 105.333 181.92 104.96C181.92 104.4 181.76 103.973 181.44 103.68C181.12 103.36 180.653 103.107 180.04 102.92C179.427 102.733 178.68 102.547 177.8 102.36C176.84 102.173 175.893 101.947 174.96 101.68C174.053 101.387 173.24 101.027 172.52 100.6C171.8 100.173 171.227 99.6267 170.8 98.96C170.373 98.2934 170.16 97.4667 170.16 96.48C170.16 95.28 170.48 94.2134 171.12 93.28C171.76 92.32 172.693 91.56 173.92 91C175.147 90.4401 176.627 90.16 178.36 90.16C180.787 90.16 182.707 90.7067 184.12 91.8C185.533 92.8934 186.373 94.4 186.64 96.32H181.56C181.4 95.7067 181.04 95.2267 180.48 94.8801C179.947 94.5067 179.227 94.32 178.32 94.32C177.36 94.32 176.627 94.4934 176.12 94.84C175.613 95.1867 175.36 95.6401 175.36 96.2001C175.36 96.5734 175.52 96.9067 175.84 97.2001C176.187 97.4934 176.667 97.7467 177.28 97.96C177.893 98.1467 178.64 98.3334 179.52 98.5201C181.067 98.84 182.427 99.2134 183.6 99.64C184.773 100.04 185.693 100.627 186.36 101.4C187.027 102.147 187.36 103.24 187.36 104.68C187.36 105.96 187.013 107.107 186.32 108.12C185.627 109.107 184.64 109.88 183.36 110.44C182.107 111 180.613 111.28 178.88 111.28Z" fill="#0BA671"></path>
<path d="M201.609 111.28C199.582 111.28 197.782 110.853 196.209 110C194.662 109.12 193.449 107.907 192.569 106.36C191.716 104.787 191.289 102.973 191.289 100.92C191.289 98.8134 191.716 96.9601 192.569 95.3601C193.449 93.7334 194.662 92.4667 196.209 91.5601C197.756 90.6267 199.556 90.16 201.609 90.16C203.609 90.16 205.356 90.6 206.849 91.48C208.342 92.36 209.502 93.5467 210.329 95.0401C211.156 96.5334 211.569 98.2267 211.569 100.12C211.569 100.387 211.569 100.693 211.569 101.04C211.569 101.36 211.542 101.693 211.489 102.04H195.129V98.76H206.129C206.049 97.4534 205.582 96.4267 204.729 95.68C203.902 94.9334 202.862 94.5601 201.609 94.5601C200.702 94.5601 199.862 94.7734 199.089 95.2001C198.316 95.6 197.702 96.2267 197.249 97.0801C196.822 97.9334 196.609 99.0134 196.609 100.32V101.48C196.609 102.573 196.809 103.533 197.209 104.36C197.636 105.16 198.222 105.787 198.969 106.24C199.716 106.667 200.582 106.88 201.569 106.88C202.556 106.88 203.369 106.667 204.009 106.24C204.676 105.813 205.169 105.267 205.489 104.6H211.009C210.636 105.853 210.009 106.987 209.129 108C208.249 109.013 207.169 109.813 205.889 110.4C204.609 110.987 203.182 111.28 201.609 111.28Z" fill="#0BA671"></path>
<path d="M215.992 110.8V90.64H220.752L221.152 93.9201C221.765 92.8001 222.632 91.8934 223.752 91.2001C224.898 90.5067 226.258 90.16 227.832 90.16C229.512 90.16 230.925 90.5067 232.072 91.2001C233.218 91.8934 234.085 92.9067 234.672 94.24C235.285 95.5734 235.592 97.2134 235.592 99.16V110.8H230.232V99.68C230.232 98.08 229.885 96.8534 229.192 96C228.525 95.1467 227.485 94.7201 226.072 94.7201C225.165 94.7201 224.352 94.9334 223.632 95.3601C222.938 95.7867 222.392 96.4001 221.992 97.2001C221.592 97.9734 221.392 98.9201 221.392 100.04V110.8H215.992Z" fill="#0BA671"></path>
<path d="M249.759 110.8C248.346 110.8 247.106 110.587 246.039 110.16C244.999 109.707 244.186 108.973 243.599 107.96C243.012 106.92 242.719 105.507 242.719 103.72V95.16H239.279V90.64H242.719L243.319 85.16H248.119V90.64H253.439V95.16H248.119V103.8C248.119 104.707 248.319 105.333 248.719 105.68C249.119 106.027 249.799 106.2 250.759 106.2H253.399V110.8H249.759Z" fill="#0BA671"></path>
<path d="M258.104 110.8V90.64H263.504V110.8H258.104ZM260.824 87.8801C259.864 87.8801 259.064 87.6001 258.424 87.0401C257.81 86.4534 257.504 85.72 257.504 84.84C257.504 83.96 257.81 83.24 258.424 82.68C259.064 82.0934 259.864 81.8 260.824 81.8C261.81 81.8 262.61 82.0934 263.224 82.68C263.864 83.24 264.184 83.96 264.184 84.84C264.184 85.72 263.864 86.4534 263.224 87.0401C262.61 87.6001 261.81 87.8801 260.824 87.8801Z" fill="#0BA671"></path>
<path d="M268.96 110.8V90.64H273.72L274.12 93.9201C274.734 92.8001 275.6 91.8934 276.72 91.2001C277.867 90.5067 279.227 90.16 280.8 90.16C282.48 90.16 283.894 90.5067 285.04 91.2001C286.187 91.8934 287.054 92.9067 287.64 94.24C288.254 95.5734 288.56 97.2134 288.56 99.16V110.8H283.2V99.68C283.2 98.08 282.854 96.8534 282.16 96C281.494 95.1467 280.454 94.7201 279.04 94.7201C278.134 94.7201 277.32 94.9334 276.6 95.3601C275.907 95.7867 275.36 96.4001 274.96 97.2001C274.56 97.9734 274.36 98.9201 274.36 100.04V110.8H268.96Z" fill="#0BA671"></path>
<path d="M303.328 111.28C301.301 111.28 299.501 110.853 297.928 110C296.381 109.12 295.168 107.907 294.288 106.36C293.435 104.787 293.008 102.973 293.008 100.92C293.008 98.8134 293.435 96.9601 294.288 95.3601C295.168 93.7334 296.381 92.4667 297.928 91.5601C299.475 90.6267 301.275 90.16 303.328 90.16C305.328 90.16 307.075 90.6 308.568 91.48C310.061 92.36 311.221 93.5467 312.048 95.0401C312.875 96.5334 313.288 98.2267 313.288 100.12C313.288 100.387 313.288 100.693 313.288 101.04C313.288 101.36 313.261 101.693 313.208 102.04H296.848V98.76H307.848C307.768 97.4534 307.301 96.4267 306.448 95.68C305.621 94.9334 304.581 94.5601 303.328 94.5601C302.421 94.5601 301.581 94.7734 300.808 95.2001C300.035 95.6 299.421 96.2267 298.968 97.0801C298.541 97.9334 298.328 99.0134 298.328 100.32V101.48C298.328 102.573 298.528 103.533 298.928 104.36C299.355 105.16 299.941 105.787 300.688 106.24C301.435 106.667 302.301 106.88 303.288 106.88C304.275 106.88 305.088 106.667 305.728 106.24C306.395 105.813 306.888 105.267 307.208 104.6H312.728C312.355 105.853 311.728 106.987 310.848 108C309.968 109.013 308.888 109.813 307.608 110.4C306.328 110.987 304.901 111.28 303.328 111.28Z" fill="#0BA671"></path>
<path d="M317.71 110.8V82H323.11V110.8H317.71Z" fill="#0BA671"></path>
<defs>
<linearGradient id="paint0_linear_12034_480" x1="129.033" y1="39.558" x2="42.9841" y2="107.913" gradientUnits="userSpaceOnUse">
<stop stop-color="#0BA671"></stop>
<stop offset="1" stop-color="#365C6C"></stop>
</linearGradient>
</defs>
</svg>