<?xml version="1.0" encoding="UTF-8"?>
<svg id="Calque_1" data-name="Calque 1" xmlns="http://www.w3.org/2000/svg" xmlns:xlink="http://www.w3.org/1999/xlink" viewBox="0 0 900.33 320">
  <defs>
    <style>
      .cls-1 {
        stroke-width: 1.25px;
      }

      .cls-1, .cls-2, .cls-3, .cls-4, .cls-5, .cls-6, .cls-7, .cls-8, .cls-9, .cls-10, .cls-11, .cls-12, .cls-13 {
        isolation: isolate;
      }

      .cls-1, .cls-3 {
        stroke: #064e3b;
        stroke-miterlimit: 2;
      }

      .cls-1, .cls-3, .cls-14, .cls-8, .cls-15 {
        fill: none;
      }

      .cls-1, .cls-8 {
        opacity: .5;
      }

      .cls-16 {
        fill: #28a06f;
      }

      .cls-17 {
        fill: #83ffc4;
      }

      .cls-18 {
        fill: #51a882;
      }

      .cls-19 {
        filter: url(#drop-shadow-2);
      }

      .cls-2 {
        opacity: .75;
      }

      .cls-3 {
        opacity: .35;
        stroke-width: .75px;
      }

      .cls-4 {
        filter: url(#drop-shadow-1);
      }

      .cls-20 {
        fill: url(#Dégradé_sans_nom_2);
      }

      .cls-5 {
        opacity: .8;
      }

      .cls-5, .cls-10 {
        fill: #34d399;
      }

      .cls-14 {
        stroke: #34d399;
      }

      .cls-21 {
        opacity: .15;
      }

      .cls-7 {
        opacity: .8;
      }

      .cls-7, .cls-9 {
        fill: #10b981;
      }

      .cls-8 {
        stroke: #10b981;
      }

      .cls-10 {
        opacity: .7;
      }

      .cls-15 {
        filter: url(#outer-glow-4);
        stroke: url(#Dégradé_sans_nom_4);
        stroke-linecap: round;
        stroke-linejoin: round;
        stroke-width: 2.25px;
      }

      .cls-11 {
        fill: #064e3b;
        opacity: .85;
      }

      .cls-22 {
        fill: #1c292b;
      }

      .cls-12 {
        fill: #6ee7b7;
      }

      .cls-12, .cls-13 {
        opacity: .9;
      }

      .cls-23 {
        filter: url(#outer-glow-3);
      }

      .cls-13 {
        fill: url(#Dégradé_sans_nom_3);
      }
    </style>
    <filter id="drop-shadow-1" x="292.3" y="63" width="473" height="120" filterUnits="userSpaceOnUse">
      <feOffset dx="0" dy="2"/>
      <feGaussianBlur result="blur" stdDeviation="8"/>
      <feFlood flood-color="#10b981" flood-opacity=".3"/>
      <feComposite in2="blur" operator="in"/>
      <feComposite in="SourceGraphic"/>
    </filter>
    <filter id="drop-shadow-2" x="-18.7" y="7" width="278" height="320" filterUnits="userSpaceOnUse">
      <feOffset dx="0" dy="4"/>
      <feGaussianBlur result="blur-2" stdDeviation="16"/>
      <feFlood flood-color="#000" flood-opacity=".25"/>
      <feComposite in2="blur-2" operator="in"/>
      <feComposite in="SourceGraphic"/>
    </filter>
    <linearGradient id="Dégradé_sans_nom_2" data-name="Dégradé sans nom 2" x1="-424.9" y1="699.35" x2="-423.9" y2="698.35" gradientTransform="translate(77369.21 156696) scale(182 -224)" gradientUnits="userSpaceOnUse">
      <stop offset="0" stop-color="#10b981"/>
      <stop offset="1" stop-color="#059669"/>
    </linearGradient>
    <filter id="outer-glow-3" x="71.3" y="66" width="98" height="106" filterUnits="userSpaceOnUse">
      <feOffset dx="0" dy="0"/>
      <feGaussianBlur result="blur-3" stdDeviation="8"/>
      <feFlood flood-color="#6ee7b7" flood-opacity=".6"/>
      <feComposite in2="blur-3" operator="in"/>
      <feComposite in="SourceGraphic"/>
    </filter>
    <linearGradient id="Dégradé_sans_nom_3" data-name="Dégradé sans nom 3" x1="-420.32" y1="694.41" x2="-419.32" y2="693.41" gradientTransform="translate(21111.17 40018.5) scale(50 -57.5)" gradientUnits="userSpaceOnUse">
      <stop offset="0" stop-color="#6ee7b7"/>
      <stop offset="1" stop-color="#34d399"/>
    </linearGradient>
    <linearGradient id="Dégradé_sans_nom_4" data-name="Dégradé sans nom 4" x1="-424.17" y1="692.92" x2="-423.17" y2="692.92" gradientTransform="translate(53502.16 34836) scale(126 -50)" gradientUnits="userSpaceOnUse">
      <stop offset="0" stop-color="#34d399" stop-opacity=".4"/>
      <stop offset=".5" stop-color="#fff"/>
      <stop offset="1" stop-color="#34d399" stop-opacity=".4"/>
    </linearGradient>
    <filter id="outer-glow-4" x="37.3" y="145" width="166" height="90" filterUnits="userSpaceOnUse">
      <feOffset dx="0" dy="0"/>
      <feGaussianBlur result="blur-4" stdDeviation="6"/>
      <feFlood flood-color="#34d399" flood-opacity=".75"/>
      <feComposite in2="blur-4" operator="in"/>
      <feComposite in="SourceGraphic"/>
    </filter>
  </defs>
  <g class="cls-21">
    <line class="cls-14" x1="0" y1="40" x2="900.33" y2="40"/>
    <line class="cls-14" x1="0" y1="80" x2="900.33" y2="80"/>
    <line class="cls-14" x1="0" y1="120" x2="900.33" y2="120"/>
    <line class="cls-14" x1="0" y1="160" x2="900.33" y2="160"/>
    <line class="cls-14" x1="0" y1="200" x2="900.33" y2="200"/>
    <line class="cls-14" x1="0" y1="240" x2="900.33" y2="240"/>
    <line class="cls-14" x1="0" y1="280" x2="900.33" y2="280"/>
    <line class="cls-14" x1="132.3" x2="132.3" y2="320"/>
    <line class="cls-14" x1="292.3" x2="292.3" y2="320"/>
    <line class="cls-14" x1="452.3" x2="452.3" y2="320"/>
    <line class="cls-14" x1="612.3" x2="612.3" y2="320"/>
    <line class="cls-14" x1="772.3" x2="772.3" y2="320"/>
  </g>
  <polyline class="cls-8" points="0 200 32.3 200 92.3 180 132.3 220 172.3 170 212.3 210 252.3 190 312.3 200 392.3 200 452.3 200 512.3 195 552.3 205 592.3 200 900.33 200"/>
  <g class="cls-6">
    <path class="cls-18" d="M325.4,185h-7.27v-14h1.64v12.52h5.62v1.48Z"/>
    <path class="cls-18" d="M329.16,172.46c-.29,0-.53-.1-.73-.29s-.3-.44-.3-.74.1-.55.3-.75.45-.3.73-.3.54.1.75.3.31.45.31.75-.1.53-.31.73-.45.3-.75.3ZM329.94,185h-1.6v-10h1.6v10Z"/>
    <path class="cls-18" d="M342.72,184.2c0,3.67-1.76,5.51-5.27,5.51-1.24,0-2.32-.23-3.24-.7v-1.6c1.13.62,2.2.94,3.22.94,2.46,0,3.69-1.31,3.69-3.93v-1.09h-.04c-.76,1.28-1.91,1.91-3.44,1.91-1.24,0-2.24-.44-3-1.33s-1.14-2.08-1.14-3.58c0-1.7.41-3.05,1.23-4.05s1.94-1.5,3.35-1.5,2.35.54,3,1.62h.04v-1.39h1.6v9.2ZM341.12,180.48v-1.47c0-.79-.27-1.47-.81-2.04s-1.21-.85-2.01-.85c-.99,0-1.76.36-2.32,1.08s-.84,1.73-.84,3.02c0,1.11.27,2,.81,2.67s1.25,1,2.13,1,1.63-.32,2.19-.96.84-1.46.84-2.45Z"/>
    <path class="cls-18" d="M355.26,185h-1.6v-5.76c0-2.08-.77-3.12-2.32-3.12-.78,0-1.44.3-1.97.9s-.8,1.38-.8,2.32v5.66h-1.6v-14.8h1.6v6.46h.04c.77-1.26,1.86-1.89,3.28-1.89,2.25,0,3.38,1.36,3.38,4.07v6.16Z"/>
    <path class="cls-18" d="M363.92,184.9c-.38.21-.88.31-1.49.31-1.75,0-2.63-.98-2.63-2.93v-5.92h-1.72v-1.37h1.72v-2.44l1.6-.52v2.96h2.52v1.37h-2.52v5.63c0,.67.11,1.15.34,1.44s.61.43,1.13.43c.4,0,.75-.11,1.04-.33v1.37Z"/>
    <path class="cls-18" d="M379.65,175l-3,10h-1.66l-2.06-7.16c-.08-.27-.13-.58-.16-.93h-.04c-.02.23-.09.54-.21.91l-2.24,7.18h-1.6l-3.03-10h1.68l2.07,7.52c.06.23.11.53.14.9h.08c.02-.29.08-.59.18-.92l2.3-7.5h1.46l2.07,7.54c.06.24.11.54.15.9h.08c.01-.25.07-.55.17-.9l2.03-7.54h1.58Z"/>
    <path class="cls-18" d="M390.54,180.4h-7.06c.03,1.11.33,1.97.9,2.58s1.36.91,2.36.91c1.13,0,2.16-.37,3.11-1.11v1.5c-.88.64-2.04.96-3.49.96s-2.52-.45-3.33-1.36-1.21-2.19-1.21-3.83c0-1.56.44-2.82,1.32-3.8s1.98-1.47,3.29-1.47,2.32.42,3.04,1.27,1.07,2.02,1.07,3.53v.84ZM388.9,179.04c0-.92-.23-1.64-.67-2.16s-1.05-.77-1.83-.77-1.4.27-1.92.81-.85,1.25-.98,2.12h5.4Z"/>
    <path class="cls-18" d="M394.79,172.46c-.29,0-.53-.1-.73-.29s-.3-.44-.3-.74.1-.55.3-.75.45-.3.73-.3.54.1.75.3.31.45.31.75-.1.53-.31.73-.45.3-.75.3ZM395.57,185h-1.6v-10h1.6v10Z"/>
    <path class="cls-18" d="M408.35,184.2c0,3.67-1.76,5.51-5.27,5.51-1.24,0-2.32-.23-3.24-.7v-1.6c1.13.62,2.2.94,3.22.94,2.46,0,3.69-1.31,3.69-3.93v-1.09h-.04c-.76,1.28-1.91,1.91-3.44,1.91-1.24,0-2.24-.44-3-1.33s-1.14-2.08-1.14-3.58c0-1.7.41-3.05,1.23-4.05s1.94-1.5,3.35-1.5,2.35.54,3,1.62h.04v-1.39h1.6v9.2ZM406.74,180.48v-1.47c0-.79-.27-1.47-.81-2.04s-1.21-.85-2.01-.85c-.99,0-1.76.36-2.32,1.08s-.84,1.73-.84,3.02c0,1.11.27,2,.81,2.67s1.25,1,2.13,1,1.63-.32,2.19-.96.84-1.46.84-2.45Z"/>
    <path class="cls-18" d="M420.89,185h-1.6v-5.76c0-2.08-.77-3.12-2.32-3.12-.78,0-1.44.3-1.97.9s-.8,1.38-.8,2.32v5.66h-1.6v-14.8h1.6v6.46h.04c.77-1.26,1.86-1.89,3.28-1.89,2.25,0,3.38,1.36,3.38,4.07v6.16Z"/>
    <path class="cls-18" d="M429.54,184.9c-.38.21-.88.31-1.49.31-1.75,0-2.63-.98-2.63-2.93v-5.92h-1.72v-1.37h1.72v-2.44l1.6-.52v2.96h2.52v1.37h-2.52v5.63c0,.67.11,1.15.34,1.44s.61.43,1.13.43c.4,0,.75-.11,1.04-.33v1.37Z"/>
    <path class="cls-18" d="M434.15,182.77l-1.56,4.8h-1.14l1.14-4.8h1.56Z"/>
    <path class="cls-18" d="M446.14,183.55h-.04v6.04h-1.6v-14.6h1.6v1.76h.04c.79-1.33,1.94-1.99,3.46-1.99,1.29,0,2.29.45,3.02,1.34s1.08,2.09,1.08,3.6c0,1.67-.41,3.01-1.22,4.02s-1.93,1.51-3.34,1.51c-1.3,0-2.29-.56-3-1.68ZM446.1,179.52v1.4c0,.83.27,1.53.81,2.1s1.22.86,2.05.86c.97,0,1.73-.37,2.28-1.11s.83-1.77.83-3.1c0-1.11-.26-1.99-.77-2.62s-1.21-.95-2.09-.95c-.93,0-1.68.32-2.25.97s-.85,1.46-.85,2.44Z"/>
    <path class="cls-18" d="M461.44,185.23c-1.48,0-2.66-.47-3.54-1.4s-1.32-2.17-1.32-3.72c0-1.68.46-2.99,1.38-3.94s2.16-1.42,3.72-1.42,2.65.46,3.49,1.38,1.25,2.19,1.25,3.82-.45,2.87-1.35,3.83-2.11,1.44-3.63,1.44ZM461.55,176.11c-1.03,0-1.84.35-2.44,1.05s-.9,1.67-.9,2.9.3,2.12.91,2.8,1.42,1.03,2.43,1.03,1.83-.33,2.39-1.01.83-1.62.83-2.86-.28-2.21-.83-2.89-1.35-1.02-2.39-1.02Z"/>
    <path class="cls-18" d="M471.58,185h-1.6v-14.8h1.6v14.8Z"/>
    <path class="cls-18" d="M483.78,175l-4.6,11.6c-.82,2.07-1.97,3.11-3.46,3.11-.42,0-.77-.04-1.04-.13v-1.44c.35.12.66.18.95.18.81,0,1.41-.48,1.82-1.45l.8-1.89-3.91-9.98h1.78l2.71,7.7c.03.1.1.35.21.76h.06c.03-.16.1-.4.2-.74l2.84-7.71h1.66Z"/>
    <path class="cls-18" d="M495.03,184.2c0,3.67-1.76,5.51-5.27,5.51-1.24,0-2.32-.23-3.24-.7v-1.6c1.13.62,2.2.94,3.22.94,2.46,0,3.69-1.31,3.69-3.93v-1.09h-.04c-.76,1.28-1.91,1.91-3.44,1.91-1.24,0-2.24-.44-3-1.33s-1.14-2.08-1.14-3.58c0-1.7.41-3.05,1.23-4.05s1.94-1.5,3.35-1.5,2.35.54,3,1.62h.04v-1.39h1.6v9.2ZM493.43,180.48v-1.47c0-.79-.27-1.47-.81-2.04s-1.21-.85-2.01-.85c-.99,0-1.76.36-2.32,1.08s-.84,1.73-.84,3.02c0,1.11.27,2,.81,2.67s1.25,1,2.13,1,1.63-.32,2.19-.96.84-1.46.84-2.45Z"/>
    <path class="cls-18" d="M500.88,185h-1.6v-14.8h1.6v14.8Z"/>
    <path class="cls-18" d="M509.3,185.23c-1.48,0-2.66-.47-3.54-1.4s-1.32-2.17-1.32-3.72c0-1.68.46-2.99,1.38-3.94s2.16-1.42,3.72-1.42,2.65.46,3.49,1.38,1.25,2.19,1.25,3.82-.45,2.87-1.35,3.83-2.11,1.44-3.63,1.44ZM509.41,176.11c-1.03,0-1.84.35-2.44,1.05s-.9,1.67-.9,2.9.3,2.12.91,2.8,1.42,1.03,2.43,1.03,1.83-.33,2.39-1.01.83-1.62.83-2.86-.28-2.21-.83-2.89-1.35-1.02-2.39-1.02Z"/>
    <path class="cls-18" d="M522.47,184.9c-.38.21-.88.31-1.49.31-1.75,0-2.63-.98-2.63-2.93v-5.92h-1.72v-1.37h1.72v-2.44l1.6-.52v2.96h2.52v1.37h-2.52v5.63c0,.67.11,1.15.34,1.44s.61.43,1.13.43c.4,0,.75-.11,1.04-.33v1.37Z"/>
    <path class="cls-18" d="M533.73,183.55h-.04v6.04h-1.6v-14.6h1.6v1.76h.04c.79-1.33,1.94-1.99,3.46-1.99,1.29,0,2.29.45,3.02,1.34s1.08,2.09,1.08,3.6c0,1.67-.41,3.01-1.22,4.02s-1.93,1.51-3.34,1.51c-1.29,0-2.29-.56-3-1.68ZM533.69,179.52v1.4c0,.83.27,1.53.81,2.1s1.22.86,2.05.86c.97,0,1.73-.37,2.28-1.11s.83-1.77.83-3.1c0-1.11-.26-1.99-.77-2.62s-1.21-.95-2.09-.95c-.93,0-1.68.32-2.25.97s-.85,1.46-.85,2.44Z"/>
    <path class="cls-18" d="M552.89,180.4h-7.06c.03,1.11.33,1.97.9,2.58s1.36.91,2.36.91c1.13,0,2.16-.37,3.11-1.11v1.5c-.88.64-2.04.96-3.49.96s-2.52-.45-3.33-1.36-1.21-2.19-1.21-3.83c0-1.56.44-2.82,1.32-3.8s1.98-1.47,3.29-1.47,2.32.42,3.04,1.27,1.07,2.02,1.07,3.53v.84ZM551.25,179.04c0-.92-.23-1.64-.67-2.16s-1.05-.77-1.83-.77-1.4.27-1.92.81-.85,1.25-.98,2.12h5.4Z"/>
    <path class="cls-18" d="M561.52,176.62c-.28-.21-.68-.32-1.21-.32-.68,0-1.25.32-1.71.97s-.69,1.52-.69,2.64v5.1h-1.6v-10h1.6v2.06h.04c.23-.7.58-1.25,1.04-1.65s.99-.59,1.57-.59c.42,0,.74.05.96.14v1.66Z"/>
    <path class="cls-18" d="M569.2,171.6c-.31-.18-.67-.26-1.06-.26-1.12,0-1.68.71-1.68,2.12v1.54h2.34v1.37h-2.34v8.63h-1.59v-8.63h-1.71v-1.37h1.71v-1.62c0-1.05.3-1.88.91-2.49s1.36-.91,2.27-.91c.49,0,.88.06,1.16.18v1.45Z"/>
    <path class="cls-18" d="M575.7,185.23c-1.48,0-2.66-.47-3.54-1.4s-1.32-2.17-1.32-3.72c0-1.68.46-2.99,1.38-3.94s2.16-1.42,3.72-1.42,2.65.46,3.49,1.38,1.25,2.19,1.25,3.82-.45,2.87-1.35,3.83-2.11,1.44-3.63,1.44ZM575.82,176.11c-1.03,0-1.84.35-2.44,1.05s-.9,1.67-.9,2.9.3,2.12.91,2.8,1.42,1.03,2.43,1.03,1.83-.33,2.39-1.01.83-1.62.83-2.86-.28-2.21-.83-2.89-1.35-1.02-2.39-1.02Z"/>
    <path class="cls-18" d="M589.46,176.62c-.28-.21-.68-.32-1.21-.32-.68,0-1.25.32-1.71.97s-.69,1.52-.69,2.64v5.1h-1.6v-10h1.6v2.06h.04c.23-.7.58-1.25,1.04-1.65s.99-.59,1.57-.59c.42,0,.74.05.96.14v1.66Z"/>
    <path class="cls-18" d="M606.39,185h-1.6v-5.74c0-1.11-.17-1.91-.51-2.4s-.92-.74-1.72-.74c-.68,0-1.26.31-1.74.94s-.72,1.37-.72,2.25v5.7h-1.6v-5.94c0-1.97-.76-2.95-2.28-2.95-.7,0-1.28.29-1.74.88s-.68,1.36-.68,2.3v5.7h-1.6v-10h1.6v1.58h.04c.71-1.21,1.74-1.82,3.11-1.82.68,0,1.28.19,1.79.57s.86.88,1.04,1.5c.74-1.38,1.85-2.07,3.32-2.07,2.2,0,3.3,1.36,3.3,4.07v6.16Z"/>
    <path class="cls-18" d="M617.58,185h-1.6v-1.56h-.04c-.7,1.2-1.72,1.8-3.08,1.8-1,0-1.78-.26-2.34-.79s-.84-1.23-.84-2.1c0-1.87,1.1-2.96,3.3-3.26l3-.42c0-1.7-.69-2.55-2.06-2.55-1.21,0-2.29.41-3.26,1.23v-1.64c.98-.62,2.12-.94,3.4-.94,2.35,0,3.53,1.24,3.53,3.73v6.5ZM615.98,179.94l-2.41.33c-.74.1-1.3.29-1.68.55s-.57.73-.57,1.4c0,.49.17.89.52,1.2s.81.46,1.39.46c.79,0,1.45-.28,1.97-.83s.78-1.26.78-2.11v-1Z"/>
    <path class="cls-18" d="M629.9,185h-1.6v-5.7c0-2.12-.78-3.18-2.32-3.18-.8,0-1.46.3-1.99.9s-.79,1.36-.79,2.28v5.7h-1.6v-10h1.6v1.66h.04c.76-1.26,1.85-1.89,3.28-1.89,1.09,0,1.93.35,2.51,1.06s.87,1.73.87,3.06v6.11Z"/>
    <path class="cls-18" d="M640.73,184.54c-.77.46-1.68.69-2.73.69-1.43,0-2.58-.46-3.45-1.39s-1.31-2.13-1.31-3.61c0-1.65.47-2.97,1.42-3.97s2.2-1.5,3.78-1.5c.88,0,1.65.16,2.32.49v1.64c-.74-.52-1.54-.78-2.38-.78-1.02,0-1.86.37-2.51,1.1s-.98,1.69-.98,2.89.31,2.1.92,2.77,1.44,1.02,2.48,1.02c.87,0,1.69-.29,2.46-.87v1.52Z"/>
    <path class="cls-18" d="M652.19,180.4h-7.06c.03,1.11.33,1.97.9,2.58s1.36.91,2.36.91c1.13,0,2.16-.37,3.11-1.11v1.5c-.88.64-2.04.96-3.49.96s-2.52-.45-3.33-1.36-1.21-2.19-1.21-3.83c0-1.56.44-2.82,1.32-3.8s1.98-1.47,3.29-1.47,2.32.42,3.04,1.27,1.07,2.02,1.07,3.53v.84ZM650.55,179.04c0-.92-.23-1.64-.67-2.16s-1.05-.77-1.83-.77-1.4.27-1.92.81-.85,1.25-.98,2.12h5.4Z"/>
    <path class="cls-18" d="M669.25,185h-1.6v-1.56h-.04c-.7,1.2-1.72,1.8-3.08,1.8-1,0-1.78-.26-2.34-.79s-.84-1.23-.84-2.1c0-1.87,1.1-2.96,3.3-3.26l3-.42c0-1.7-.69-2.55-2.06-2.55-1.21,0-2.29.41-3.26,1.23v-1.64c.98-.62,2.12-.94,3.4-.94,2.35,0,3.53,1.24,3.53,3.73v6.5ZM667.65,179.94l-2.41.33c-.74.1-1.3.29-1.68.55s-.57.73-.57,1.4c0,.49.17.89.52,1.2s.81.46,1.39.46c.79,0,1.45-.28,1.97-.83s.78-1.26.78-2.11v-1Z"/>
    <path class="cls-18" d="M681.57,185h-1.6v-5.7c0-2.12-.78-3.18-2.32-3.18-.8,0-1.46.3-1.99.9s-.79,1.36-.79,2.28v5.7h-1.6v-10h1.6v1.66h.04c.76-1.26,1.85-1.89,3.28-1.89,1.09,0,1.93.35,2.51,1.06s.87,1.73.87,3.06v6.11Z"/>
    <path class="cls-18" d="M690.22,184.9c-.38.21-.88.31-1.49.31-1.75,0-2.63-.98-2.63-2.93v-5.92h-1.72v-1.37h1.72v-2.44l1.6-.52v2.96h2.52v1.37h-2.52v5.63c0,.67.11,1.15.34,1.44s.61.43,1.13.43c.4,0,.75-.11,1.04-.33v1.37Z"/>
    <path class="cls-18" d="M694.18,172.46c-.29,0-.53-.1-.73-.29s-.3-.44-.3-.74.1-.55.3-.75.45-.3.73-.3.54.1.75.3.31.45.31.75-.1.53-.31.73-.45.3-.75.3ZM694.96,185h-1.6v-10h1.6v10Z"/>
    <path class="cls-18" d="M704.32,180.06h-5.33v-1.26h5.33v1.26Z"/>
    <path class="cls-18" d="M709.84,183.55h-.04v6.04h-1.6v-14.6h1.6v1.76h.04c.79-1.33,1.94-1.99,3.46-1.99,1.29,0,2.29.45,3.02,1.34s1.08,2.09,1.08,3.6c0,1.67-.41,3.01-1.22,4.02s-1.93,1.51-3.34,1.51c-1.29,0-2.29-.56-3-1.68ZM709.8,179.52v1.4c0,.83.27,1.53.81,2.1s1.22.86,2.05.86c.97,0,1.73-.37,2.28-1.11s.83-1.77.83-3.1c0-1.11-.26-1.99-.77-2.62s-1.21-.95-2.09-.95c-.93,0-1.68.32-2.25.97s-.85,1.46-.85,2.44Z"/>
    <path class="cls-18" d="M728.12,185h-1.6v-1.56h-.04c-.7,1.2-1.72,1.8-3.08,1.8-1,0-1.78-.26-2.34-.79s-.84-1.23-.84-2.1c0-1.87,1.1-2.96,3.3-3.26l3-.42c0-1.7-.69-2.55-2.06-2.55-1.21,0-2.29.41-3.26,1.23v-1.64c.98-.62,2.12-.94,3.4-.94,2.35,0,3.53,1.24,3.53,3.73v6.5ZM726.52,179.94l-2.41.33c-.74.1-1.3.29-1.68.55s-.57.73-.57,1.4c0,.49.17.89.52,1.2s.81.46,1.39.46c.79,0,1.45-.28,1.97-.83s.78-1.26.78-2.11v-1Z"/>
    <path class="cls-18" d="M736.78,184.9c-.38.21-.88.31-1.49.31-1.75,0-2.63-.98-2.63-2.93v-5.92h-1.72v-1.37h1.72v-2.44l1.6-.52v2.96h2.52v1.37h-2.52v5.63c0,.67.11,1.15.34,1.44s.61.43,1.13.43c.4,0,.75-.11,1.04-.33v1.37Z"/>
    <path class="cls-18" d="M744.55,184.9c-.38.21-.88.31-1.49.31-1.75,0-2.63-.98-2.63-2.93v-5.92h-1.72v-1.37h1.72v-2.44l1.6-.52v2.96h2.52v1.37h-2.52v5.63c0,.67.11,1.15.34,1.44s.61.43,1.13.43c.4,0,.75-.11,1.04-.33v1.37Z"/>
    <path class="cls-18" d="M755.73,180.4h-7.06c.03,1.11.33,1.97.9,2.58s1.36.91,2.36.91c1.13,0,2.16-.37,3.11-1.11v1.5c-.88.64-2.04.96-3.49.96s-2.52-.45-3.33-1.36-1.21-2.19-1.21-3.83c0-1.56.44-2.82,1.32-3.8s1.98-1.47,3.29-1.47,2.32.42,3.04,1.27,1.07,2.02,1.07,3.53v.84ZM754.09,179.04c0-.92-.23-1.64-.67-2.16s-1.05-.77-1.83-.77-1.4.27-1.92.81-.85,1.25-.98,2.12h5.4Z"/>
    <path class="cls-18" d="M764.37,176.62c-.28-.21-.68-.32-1.21-.32-.68,0-1.25.32-1.71.97s-.69,1.52-.69,2.64v5.1h-1.6v-10h1.6v2.06h.04c.23-.7.58-1.25,1.04-1.65s.99-.59,1.57-.59c.42,0,.74.05.96.14v1.66Z"/>
    <path class="cls-18" d="M775.4,185h-1.6v-5.7c0-2.12-.78-3.18-2.32-3.18-.8,0-1.46.3-1.99.9s-.79,1.36-.79,2.28v5.7h-1.6v-10h1.6v1.66h.04c.76-1.26,1.85-1.89,3.28-1.89,1.09,0,1.93.35,2.51,1.06s.87,1.73.87,3.06v6.11Z"/>
    <path class="cls-18" d="M794.44,185h-1.6v-1.7h-.04c-.74,1.29-1.89,1.93-3.44,1.93-1.26,0-2.26-.45-3.01-1.34s-1.13-2.11-1.13-3.66c0-1.65.42-2.98,1.25-3.97s1.94-1.49,3.33-1.49,2.37.54,3,1.62h.04v-6.19h1.6v14.8ZM792.83,180.48v-1.47c0-.81-.27-1.49-.8-2.05s-1.21-.84-2.03-.84c-.98,0-1.74.36-2.3,1.07s-.84,1.71-.84,2.97c0,1.15.27,2.06.81,2.73s1.26,1,2.16,1,1.62-.32,2.17-.97.83-1.46.83-2.44Z"/>
    <path class="cls-18" d="M806.71,180.4h-7.06c.03,1.11.33,1.97.9,2.58s1.36.91,2.36.91c1.13,0,2.16-.37,3.11-1.11v1.5c-.88.64-2.04.96-3.49.96s-2.52-.45-3.33-1.36-1.21-2.19-1.21-3.83c0-1.56.44-2.82,1.32-3.8s1.98-1.47,3.29-1.47,2.32.42,3.04,1.27,1.07,2.02,1.07,3.53v.84ZM805.07,179.04c0-.92-.23-1.64-.67-2.16s-1.05-.77-1.83-.77-1.4.27-1.92.81-.85,1.25-.98,2.12h5.4Z"/>
    <path class="cls-18" d="M814.78,184.9c-.38.21-.88.31-1.49.31-1.75,0-2.63-.98-2.63-2.93v-5.92h-1.72v-1.37h1.72v-2.44l1.6-.52v2.96h2.52v1.37h-2.52v5.63c0,.67.11,1.15.34,1.44s.61.43,1.13.43c.4,0,.75-.11,1.04-.33v1.37Z"/>
    <path class="cls-18" d="M825.95,180.4h-7.06c.03,1.11.33,1.97.9,2.58s1.36.91,2.36.91c1.13,0,2.16-.37,3.11-1.11v1.5c-.88.64-2.04.96-3.49.96s-2.52-.45-3.33-1.36-1.21-2.19-1.21-3.83c0-1.56.44-2.82,1.32-3.8s1.98-1.47,3.29-1.47,2.32.42,3.04,1.27,1.07,2.02,1.07,3.53v.84ZM824.31,179.04c0-.92-.23-1.64-.67-2.16s-1.05-.77-1.83-.77-1.4.27-1.92.81-.85,1.25-.98,2.12h5.4Z"/>
    <path class="cls-18" d="M836.19,184.54c-.77.46-1.68.69-2.73.69-1.43,0-2.58-.46-3.45-1.39s-1.31-2.13-1.31-3.61c0-1.65.47-2.97,1.42-3.97s2.2-1.5,3.78-1.5c.88,0,1.65.16,2.32.49v1.64c-.74-.52-1.54-.78-2.38-.78-1.02,0-1.86.37-2.51,1.1s-.98,1.69-.98,2.89.31,2.1.92,2.77,1.44,1.02,2.48,1.02c.87,0,1.69-.29,2.46-.87v1.52Z"/>
    <path class="cls-18" d="M844.25,184.9c-.38.21-.88.31-1.49.31-1.75,0-2.63-.98-2.63-2.93v-5.92h-1.72v-1.37h1.72v-2.44l1.6-.52v2.96h2.52v1.37h-2.52v5.63c0,.67.11,1.15.34,1.44s.61.43,1.13.43c.4,0,.75-.11,1.04-.33v1.37Z"/>
    <path class="cls-18" d="M848.21,172.46c-.29,0-.53-.1-.73-.29s-.3-.44-.3-.74.1-.55.3-.75.45-.3.73-.3.54.1.75.3.31.45.31.75-.1.53-.31.73-.45.3-.75.3ZM848.99,185h-1.6v-10h1.6v10Z"/>
    <path class="cls-18" d="M857.41,185.23c-1.48,0-2.66-.47-3.54-1.4s-1.32-2.17-1.32-3.72c0-1.68.46-2.99,1.38-3.94s2.16-1.42,3.72-1.42,2.65.46,3.49,1.38,1.25,2.19,1.25,3.82-.45,2.87-1.35,3.83-2.11,1.44-3.63,1.44ZM857.53,176.11c-1.03,0-1.84.35-2.44,1.05s-.9,1.67-.9,2.9.3,2.12.91,2.8,1.42,1.03,2.43,1.03,1.83-.33,2.39-1.01.83-1.62.83-2.86-.28-2.21-.83-2.89-1.35-1.02-2.39-1.02Z"/>
    <path class="cls-18" d="M874.25,185h-1.6v-5.7c0-2.12-.78-3.18-2.32-3.18-.8,0-1.46.3-1.99.9s-.79,1.36-.79,2.28v5.7h-1.6v-10h1.6v1.66h.04c.76-1.26,1.85-1.89,3.28-1.89,1.09,0,1.93.35,2.51,1.06s.87,1.73.87,3.06v6.11Z"/>
  </g>
  <g class="cls-2">
    <path class="cls-16" d="M327.68,209l-2.4,8h-1.33l-1.65-5.73c-.06-.22-.1-.47-.12-.74h-.03c-.02.19-.07.43-.16.73l-1.79,5.74h-1.28l-2.42-8h1.34l1.66,6.02c.05.18.09.42.11.72h.06c.02-.23.06-.47.14-.73l1.84-6h1.17l1.66,6.03c.05.19.09.43.12.72h.06c.01-.2.05-.44.13-.72l1.62-6.03h1.27Z"/>
    <path class="cls-16" d="M330.31,206.97c-.23,0-.42-.08-.59-.23-.16-.16-.24-.35-.24-.59s.08-.44.24-.6c.16-.16.36-.24.59-.24s.43.08.6.24.25.36.25.6-.08.42-.25.59-.36.24-.6.24ZM330.94,217h-1.28v-8h1.28v8Z"/>
    <path class="cls-16" d="M337.74,216.92c-.3.17-.7.25-1.2.25-1.4,0-2.1-.78-2.1-2.34v-4.73h-1.38v-1.09h1.38v-1.95l1.28-.41v2.37h2.02v1.09h-2.02v4.51c0,.54.09.92.27,1.15.18.23.48.34.91.34.32,0,.6-.09.84-.27v1.09Z"/>
    <path class="cls-16" d="M346.59,217h-1.28v-4.61c0-1.67-.62-2.5-1.86-2.5-.62,0-1.15.24-1.58.72-.43.48-.64,1.1-.64,1.86v4.53h-1.28v-11.84h1.28v5.17h.03c.61-1.01,1.49-1.52,2.62-1.52,1.8,0,2.7,1.09,2.7,3.26v4.93Z"/>
    <path class="cls-16" d="M355.69,215.84h-.03v1.16h-1.28v-11.84h1.28v5.25h.03c.63-1.06,1.55-1.59,2.77-1.59,1.03,0,1.83.36,2.41,1.07.58.72.87,1.68.87,2.88,0,1.34-.33,2.41-.98,3.21-.65.8-1.54,1.21-2.67,1.21-1.06,0-1.86-.45-2.4-1.34ZM355.66,212.62v1.12c0,.66.21,1.22.64,1.68s.98.69,1.64.69c.78,0,1.38-.3,1.82-.89.44-.59.66-1.42.66-2.48,0-.89-.21-1.59-.62-2.09-.41-.5-.97-.76-1.67-.76-.75,0-1.34.26-1.8.78s-.68,1.17-.68,1.95Z"/>
    <path class="cls-16" d="M370.75,217h-1.28v-1.27h-.03c-.53.97-1.35,1.45-2.47,1.45-1.91,0-2.86-1.14-2.86-3.41v-4.78h1.27v4.58c0,1.69.65,2.53,1.94,2.53.62,0,1.14-.23,1.54-.69.4-.46.61-1.06.61-1.81v-4.61h1.28v8Z"/>
    <path class="cls-16" d="M374.49,206.97c-.23,0-.42-.08-.59-.23-.16-.16-.24-.35-.24-.59s.08-.44.24-.6c.16-.16.36-.24.59-.24s.43.08.6.24.25.36.25.6-.08.42-.25.59-.36.24-.6.24ZM375.11,217h-1.28v-8h1.28v8Z"/>
    <path class="cls-16" d="M379.48,217h-1.28v-11.84h1.28v11.84Z"/>
    <path class="cls-16" d="M386.28,216.92c-.3.17-.7.25-1.2.25-1.4,0-2.1-.78-2.1-2.34v-4.73h-1.38v-1.09h1.38v-1.95l1.28-.41v2.37h2.02v1.09h-2.02v4.51c0,.54.09.92.27,1.15.18.23.48.34.91.34.32,0,.6-.09.84-.27v1.09Z"/>
    <path class="cls-16" d="M392.58,213.05h-4.27v-1.01h4.27v1.01Z"/>
    <path class="cls-16" d="M396.04,206.97c-.23,0-.42-.08-.59-.23-.16-.16-.24-.35-.24-.59s.08-.44.24-.6c.16-.16.36-.24.59-.24s.43.08.6.24.25.36.25.6-.08.42-.25.59-.36.24-.6.24ZM396.67,217h-1.28v-8h1.28v8Z"/>
    <path class="cls-16" d="M406.4,217h-1.28v-4.56c0-1.7-.62-2.55-1.86-2.55-.64,0-1.17.24-1.59.72-.42.48-.63,1.09-.63,1.82v4.56h-1.28v-8h1.28v1.33h.03c.6-1.01,1.48-1.52,2.62-1.52.88,0,1.54.28,2.01.85.46.57.7,1.38.7,2.45v4.89Z"/>
    <path class="cls-16" d="M419.64,216.63c-.61.37-1.34.55-2.19.55-1.14,0-2.06-.37-2.76-1.11-.7-.74-1.05-1.7-1.05-2.89,0-1.32.38-2.38,1.13-3.18.75-.8,1.76-1.2,3.02-1.2.7,0,1.32.13,1.86.39v1.31c-.59-.42-1.23-.62-1.91-.62-.82,0-1.49.29-2.01.88s-.79,1.36-.79,2.31.25,1.68.74,2.22,1.15.81,1.98.81c.7,0,1.35-.23,1.97-.7v1.22Z"/>
    <path class="cls-16" d="M427.8,217h-1.28v-1.25h-.03c-.56.96-1.38,1.44-2.46,1.44-.8,0-1.42-.21-1.87-.63-.45-.42-.68-.98-.68-1.68,0-1.5.88-2.36,2.64-2.61l2.4-.34c0-1.36-.55-2.04-1.65-2.04-.96,0-1.83.33-2.61.98v-1.31c.79-.5,1.69-.75,2.72-.75,1.88,0,2.82,1,2.82,2.98v5.2ZM426.52,212.95l-1.93.27c-.59.08-1.04.23-1.34.44-.3.21-.45.58-.45,1.12,0,.39.14.71.42.96.28.25.65.37,1.11.37.64,0,1.16-.22,1.57-.67s.62-1.01.62-1.69v-.8Z"/>
    <path class="cls-16" d="M434.88,210.3c-.22-.17-.55-.26-.97-.26-.55,0-1,.26-1.37.77s-.55,1.22-.55,2.11v4.08h-1.28v-8h1.28v1.65h.03c.18-.56.46-1,.84-1.32s.79-.47,1.26-.47c.33,0,.59.04.77.11v1.33Z"/>
    <path class="cls-16" d="M438.08,215.84h-.03v1.16h-1.28v-11.84h1.28v5.25h.03c.63-1.06,1.55-1.59,2.77-1.59,1.03,0,1.83.36,2.41,1.07.58.72.87,1.68.87,2.88,0,1.34-.33,2.41-.98,3.21-.65.8-1.54,1.21-2.67,1.21-1.06,0-1.86-.45-2.4-1.34ZM438.05,212.62v1.12c0,.66.21,1.22.64,1.68s.98.69,1.64.69c.78,0,1.38-.3,1.82-.89.44-.59.66-1.42.66-2.48,0-.89-.21-1.59-.62-2.09-.41-.5-.97-.76-1.67-.76-.75,0-1.34.26-1.8.78s-.68,1.17-.68,1.95Z"/>
    <path class="cls-16" d="M450.01,217.19c-1.18,0-2.13-.37-2.83-1.12-.71-.75-1.06-1.74-1.06-2.97,0-1.34.37-2.39,1.1-3.15s1.73-1.13,2.98-1.13,2.12.37,2.79,1.1c.67.73,1,1.75,1,3.05s-.36,2.3-1.08,3.07c-.72.77-1.69,1.15-2.9,1.15ZM450.11,209.89c-.82,0-1.47.28-1.95.84-.48.56-.72,1.33-.72,2.32s.24,1.7.73,2.24,1.13.82,1.95.82,1.46-.27,1.91-.8.67-1.3.67-2.29-.22-1.77-.67-2.31-1.08-.81-1.91-.81Z"/>
    <path class="cls-16" d="M463.18,217h-1.28v-4.56c0-1.7-.62-2.55-1.86-2.55-.64,0-1.17.24-1.59.72-.42.48-.63,1.09-.63,1.82v4.56h-1.28v-8h1.28v1.33h.03c.6-1.01,1.48-1.52,2.62-1.52.88,0,1.54.28,2.01.85.46.57.7,1.38.7,2.45v4.89Z"/>
    <path class="cls-16" d="M470.18,213.05h-4.27v-1.01h4.27v1.01Z"/>
    <path class="cls-16" d="M478.71,217h-1.28v-1.25h-.03c-.56.96-1.38,1.44-2.46,1.44-.8,0-1.42-.21-1.87-.63-.45-.42-.68-.98-.68-1.68,0-1.5.88-2.36,2.64-2.61l2.4-.34c0-1.36-.55-2.04-1.65-2.04-.96,0-1.83.33-2.61.98v-1.31c.79-.5,1.69-.75,2.72-.75,1.88,0,2.82,1,2.82,2.98v5.2ZM477.43,212.95l-1.93.27c-.59.08-1.04.23-1.34.44-.3.21-.45.58-.45,1.12,0,.39.14.71.42.96.28.25.65.37,1.11.37.64,0,1.16-.22,1.57-.67s.62-1.01.62-1.69v-.8Z"/>
    <path class="cls-16" d="M491.7,209l-2.4,8h-1.33l-1.65-5.73c-.06-.22-.1-.47-.12-.74h-.03c-.02.19-.07.43-.16.73l-1.79,5.74h-1.28l-2.42-8h1.34l1.66,6.02c.05.18.09.42.11.72h.06c.02-.23.06-.47.14-.73l1.84-6h1.17l1.66,6.03c.05.19.09.43.12.72h.06c.01-.2.05-.44.13-.72l1.62-6.03h1.27Z"/>
    <path class="cls-16" d="M499.41,217h-1.28v-1.25h-.03c-.56.96-1.38,1.44-2.46,1.44-.8,0-1.42-.21-1.87-.63-.45-.42-.68-.98-.68-1.68,0-1.5.88-2.36,2.64-2.61l2.4-.34c0-1.36-.55-2.04-1.65-2.04-.96,0-1.83.33-2.61.98v-1.31c.79-.5,1.69-.75,2.72-.75,1.88,0,2.82,1,2.82,2.98v5.2ZM498.12,212.95l-1.93.27c-.59.08-1.04.23-1.34.44-.3.21-.45.58-.45,1.12,0,.39.14.71.42.96.28.25.65.37,1.11.37.64,0,1.16-.22,1.57-.67s.62-1.01.62-1.69v-.8Z"/>
    <path class="cls-16" d="M506.49,210.3c-.22-.17-.55-.26-.97-.26-.55,0-1,.26-1.37.77s-.55,1.22-.55,2.11v4.08h-1.28v-8h1.28v1.65h.03c.18-.56.46-1,.84-1.32s.79-.47,1.26-.47c.33,0,.59.04.77.11v1.33Z"/>
    <path class="cls-16" d="M514.8,213.32h-5.65c.02.89.26,1.58.72,2.06.46.48,1.09.73,1.89.73.9,0,1.73-.3,2.48-.89v1.2c-.7.51-1.63.77-2.79.77s-2.02-.36-2.66-1.09c-.65-.73-.97-1.75-.97-3.07,0-1.25.35-2.26,1.06-3.04.71-.78,1.58-1.18,2.63-1.18s1.86.34,2.43,1.02c.57.68.86,1.62.86,2.82v.67ZM513.49,212.23c0-.74-.18-1.32-.54-1.73s-.84-.62-1.46-.62-1.12.22-1.54.65-.68,1-.78,1.7h4.32Z"/>
    <path class="cls-16" d="M521.63,216.71v-1.38c.7.52,1.47.77,2.3.77,1.12,0,1.69-.38,1.69-1.12,0-.21-.05-.39-.14-.54-.1-.15-.23-.28-.39-.39s-.36-.22-.58-.31c-.22-.09-.46-.19-.71-.29-.35-.14-.67-.28-.93-.43-.27-.14-.49-.3-.67-.48s-.32-.38-.41-.61c-.09-.23-.14-.5-.14-.8,0-.38.09-.71.26-1s.4-.53.69-.73c.29-.2.61-.34.98-.44s.75-.15,1.14-.15c.69,0,1.31.12,1.86.36v1.3c-.59-.39-1.27-.58-2.03-.58-.24,0-.46.03-.65.08-.19.05-.36.13-.5.23-.14.1-.25.22-.32.36-.08.14-.11.29-.11.46,0,.21.04.38.11.52.08.14.19.27.33.38.15.11.32.21.53.3.21.09.45.18.71.29.35.14.67.27.95.42s.52.3.72.48c.2.18.35.39.46.62.11.23.16.51.16.84,0,.4-.09.74-.26,1.03-.17.29-.41.53-.7.73-.29.19-.63.34-1.01.43-.38.09-.78.14-1.2.14-.82,0-1.54-.16-2.14-.48Z"/>
    <path class="cls-16" d="M534.86,216.63c-.62.37-1.34.55-2.19.55-1.14,0-2.06-.37-2.76-1.11-.7-.74-1.05-1.7-1.05-2.89,0-1.32.38-2.38,1.13-3.18.75-.8,1.76-1.2,3.02-1.2.7,0,1.32.13,1.86.39v1.31c-.59-.42-1.23-.62-1.91-.62-.82,0-1.49.29-2.01.88s-.79,1.36-.79,2.31.25,1.68.74,2.22,1.15.81,1.98.81c.7,0,1.35-.23,1.97-.7v1.22Z"/>
    <path class="cls-16" d="M540.63,217.19c-1.18,0-2.13-.37-2.83-1.12s-1.06-1.74-1.06-2.97c0-1.34.37-2.39,1.1-3.15s1.73-1.13,2.98-1.13,2.12.37,2.79,1.1,1,1.75,1,3.05-.36,2.3-1.08,3.07-1.69,1.15-2.9,1.15ZM540.73,209.89c-.82,0-1.47.28-1.95.84s-.72,1.33-.72,2.32.24,1.7.73,2.24,1.13.82,1.95.82,1.46-.27,1.91-.8.67-1.3.67-2.29-.22-1.77-.67-2.31-1.08-.81-1.91-.81Z"/>
    <path class="cls-16" d="M551.33,210.3c-.22-.17-.55-.26-.97-.26-.55,0-1,.26-1.37.77s-.55,1.22-.55,2.11v4.08h-1.28v-8h1.28v1.65h.03c.18-.56.46-1,.84-1.32s.79-.47,1.26-.47c.33,0,.59.04.77.11v1.33Z"/>
    <path class="cls-16" d="M553.87,206.97c-.23,0-.42-.08-.59-.23s-.24-.35-.24-.59.08-.44.24-.6.36-.24.59-.24.43.08.6.24.25.36.25.6-.08.42-.25.59-.36.24-.6.24ZM554.5,217h-1.28v-8h1.28v8Z"/>
    <path class="cls-16" d="M564.23,217h-1.28v-4.56c0-1.7-.62-2.55-1.86-2.55-.64,0-1.17.24-1.59.72s-.63,1.09-.63,1.82v4.56h-1.28v-8h1.28v1.33h.03c.6-1.01,1.48-1.52,2.62-1.52.88,0,1.54.28,2.01.85s.7,1.38.7,2.45v4.89Z"/>
    <path class="cls-16" d="M573.97,216.36c0,2.94-1.41,4.41-4.22,4.41-.99,0-1.85-.19-2.59-.56v-1.28c.9.5,1.76.75,2.58.75,1.97,0,2.95-1.05,2.95-3.14v-.88h-.03c-.61,1.02-1.53,1.53-2.75,1.53-1,0-1.8-.36-2.4-1.07s-.91-1.67-.91-2.86c0-1.36.33-2.44.98-3.24s1.55-1.2,2.68-1.2,1.88.43,2.4,1.3h.03v-1.11h1.28v7.36ZM572.69,213.38v-1.18c0-.64-.21-1.18-.64-1.63s-.96-.68-1.61-.68c-.79,0-1.41.29-1.86.86s-.67,1.38-.67,2.42c0,.89.21,1.6.64,2.14s1,.8,1.71.8,1.3-.25,1.75-.77.68-1.16.68-1.96Z"/>
    <path class="cls-16" d="M582.38,213.02c-.24,0-.44-.09-.61-.26-.17-.17-.25-.38-.25-.62s.08-.45.25-.62c.17-.17.37-.26.61-.26s.45.09.62.26.26.38.26.62-.09.45-.26.62-.38.26-.62.26Z"/>
    <path class="cls-16" d="M598.98,217h-1.56l-1.88-3.14c-.17-.29-.34-.54-.5-.75-.16-.21-.33-.37-.5-.5-.17-.13-.35-.23-.55-.29s-.42-.09-.66-.09h-1.08v4.77h-1.31v-11.2h3.34c.49,0,.94.06,1.36.18s.77.31,1.08.56.54.56.71.93.26.81.26,1.31c0,.39-.06.75-.18,1.07s-.28.62-.5.87c-.22.25-.48.47-.78.65s-.65.32-1.03.42v.03c.19.08.35.18.49.29.14.11.27.23.39.38s.25.31.37.5c.12.18.26.4.41.64l2.1,3.37ZM592.26,206.98v4.06h1.78c.33,0,.63-.05.91-.15.28-.1.52-.24.72-.43s.36-.41.48-.68c.12-.27.17-.57.17-.9,0-.6-.19-1.07-.58-1.4-.39-.34-.95-.5-1.68-.5h-1.8Z"/>
    <path class="cls-16" d="M607.31,217h-1.28v-1.27h-.03c-.53.97-1.35,1.45-2.47,1.45-1.91,0-2.86-1.14-2.86-3.41v-4.78h1.27v4.58c0,1.69.65,2.53,1.94,2.53.62,0,1.14-.23,1.54-.69.4-.46.61-1.06.61-1.81v-4.61h1.28v8Z"/>
    <path class="cls-16" d="M609.91,216.71v-1.38c.7.52,1.47.77,2.3.77,1.12,0,1.69-.38,1.69-1.12,0-.21-.05-.39-.14-.54-.1-.15-.23-.28-.39-.39s-.36-.22-.58-.31c-.22-.09-.46-.19-.71-.29-.35-.14-.67-.28-.93-.43-.27-.14-.49-.3-.67-.48s-.32-.38-.41-.61c-.09-.23-.14-.5-.14-.8,0-.38.09-.71.26-1s.4-.53.69-.73c.29-.2.61-.34.98-.44s.75-.15,1.14-.15c.69,0,1.31.12,1.86.36v1.3c-.59-.39-1.27-.58-2.03-.58-.24,0-.46.03-.65.08-.19.05-.36.13-.5.23-.14.1-.25.22-.32.36-.08.14-.11.29-.11.46,0,.21.04.38.11.52.08.14.19.27.33.38.15.11.32.21.53.3.21.09.45.18.71.29.35.14.67.27.95.42s.52.3.72.48c.2.18.35.39.46.62.11.23.16.51.16.84,0,.4-.09.74-.26,1.03-.17.29-.41.53-.7.73-.29.19-.63.34-1.01.43-.38.09-.78.14-1.2.14-.82,0-1.54-.16-2.14-.48Z"/>
    <path class="cls-16" d="M621.39,216.92c-.3.17-.7.25-1.2.25-1.4,0-2.1-.78-2.1-2.34v-4.73h-1.38v-1.09h1.38v-1.95l1.28-.41v2.37h2.02v1.09h-2.02v4.51c0,.54.09.92.27,1.15.18.23.48.34.91.34.32,0,.6-.09.84-.27v1.09Z"/>
    <path class="cls-16" d="M628.92,213.02c-.24,0-.44-.09-.61-.26-.17-.17-.25-.38-.25-.62s.08-.45.25-.62c.17-.17.37-.26.61-.26s.45.09.62.26.26.38.26.62-.09.45-.26.62-.38.26-.62.26Z"/>
    <path class="cls-16" d="M646.17,217h-1.45l-1.19-3.14h-4.75l-1.12,3.14h-1.46l4.3-11.2h1.36l4.31,11.2ZM643.1,212.68l-1.76-4.77c-.06-.16-.12-.41-.17-.75h-.03c-.05.32-.11.57-.18.75l-1.74,4.77h3.88Z"/>
    <path class="cls-16" d="M656.37,216.23c-1.12.64-2.38.95-3.75.95-1.6,0-2.89-.52-3.88-1.55-.99-1.03-1.48-2.4-1.48-4.09s.55-3.16,1.64-4.27c1.1-1.11,2.48-1.67,4.17-1.67,1.22,0,2.24.2,3.07.59v1.45c-.91-.57-1.98-.86-3.22-.86s-2.29.43-3.09,1.3c-.8.86-1.2,1.98-1.2,3.36s.37,2.53,1.12,3.34c.74.81,1.75,1.21,3.03,1.21.88,0,1.63-.17,2.27-.52v-3.14h-2.45v-1.19h3.77v5.08Z"/>
    <path class="cls-16" d="M660.78,212.77v4.23h-1.31v-11.2h3.08c1.2,0,2.12.29,2.79.88.66.58.99,1.41.99,2.47s-.37,1.93-1.1,2.61c-.73.68-1.72,1.02-2.96,1.02h-1.48ZM660.78,206.98v4.59h1.38c.91,0,1.6-.21,2.07-.62s.71-1,.71-1.75c0-1.48-.88-2.22-2.62-2.22h-1.54Z"/>
    <path class="cls-16" d="M674.74,217h-5.81v-11.2h1.31v10.02h4.5v1.19Z"/>
    <path class="cls-16" d="M687.95,209l-3.19,8h-1.26l-3.03-8h1.41l2.03,5.81c.15.43.24.8.28,1.12h.03c.05-.4.13-.76.25-1.09l2.12-5.84h1.35Z"/>
    <path class="cls-16" d="M695.97,213.83c0,.5-.09.96-.29,1.38s-.46.77-.8,1.06-.76.52-1.25.68-1.02.24-1.6.24c-1.07,0-1.92-.2-2.55-.61v-1.38c.75.59,1.62.89,2.59.89.39,0,.74-.05,1.06-.15s.59-.24.81-.43.4-.41.52-.68.18-.57.18-.9c0-1.46-1.04-2.2-3.12-2.2h-.93v-1.09h.88c1.84,0,2.77-.69,2.77-2.06,0-1.27-.7-1.91-2.11-1.91-.79,0-1.53.27-2.23.8v-1.24c.71-.43,1.56-.64,2.55-.64.47,0,.89.07,1.27.2s.71.31.98.55.48.52.63.84.22.69.22,1.09c0,1.47-.75,2.42-2.23,2.84v.03c.38.04.73.13,1.05.28s.6.33.84.56.42.5.55.81.2.65.2,1.03Z"/>
  </g>
  <path class="cls-7" d="M313.8,238h117c.83,0,1.5.67,1.5,1.5h0c0,.83-.67,1.5-1.5,1.5h-117c-.83,0-1.5-.67-1.5-1.5h0c0-.83.67-1.5,1.5-1.5Z"/>
  <g>
    <rect class="cls-9" x="312.3" y="254" width="76" height="22" rx="4" ry="4"/>
    <g class="cls-6">
      <path class="cls-17" d="M329.97,266.99v1.48c-.5.27-.92.45-1.27.55-.35.1-.73.15-1.13.15-.56,0-1.08-.08-1.56-.25-.38-.13-.67-.29-.89-.49-.22-.2-.42-.49-.6-.87s-.27-.82-.27-1.29v-.79c0-.73.22-1.39.67-1.97.6-.78,1.42-1.17,2.45-1.17.3,0,.59.03.86.09.27.06.53.15.77.27.15-.13.29-.2.43-.2.16,0,.29.06.39.17.1.11.15.3.15.56v.71c0,.26-.05.45-.15.57-.1.11-.23.17-.4.17-.13,0-.24-.04-.33-.12-.07-.05-.13-.17-.18-.36-.05-.18-.1-.31-.16-.37-.1-.1-.27-.2-.51-.28-.25-.08-.52-.12-.82-.12-.44,0-.82.09-1.14.27-.23.13-.44.36-.63.69-.19.33-.29.69-.29,1.07v.79c0,.59.17,1.04.51,1.34.34.31.89.46,1.63.46.5,0,.96-.1,1.38-.29v-.79h-1.12c-.27,0-.45-.05-.57-.15-.11-.1-.17-.24-.17-.4s.06-.3.17-.4c.11-.1.3-.15.57-.15h1.96c.27,0,.45.06.57.16.11.1.17.23.17.4,0,.13-.04.24-.12.34-.08.1-.19.17-.35.21Z"/>
      <path class="cls-17" d="M333.57,264.12v.69c.46-.33.83-.55,1.09-.67.27-.11.52-.17.75-.17.36,0,.71.13,1.04.4.23.18.34.36.34.55,0,.16-.05.29-.16.4-.11.11-.24.16-.4.16-.14,0-.28-.07-.43-.2s-.28-.2-.4-.2c-.15,0-.38.1-.69.29-.31.19-.69.48-1.15.87v1.66h1.57c.27,0,.45.05.57.15.11.1.17.24.17.4s-.06.29-.17.39c-.11.1-.3.15-.57.15h-3.32c-.27,0-.45-.05-.57-.15-.11-.1-.17-.24-.17-.4s.06-.29.17-.4c.11-.1.3-.15.57-.15h.66v-2.67h-.4c-.27,0-.45-.05-.57-.15-.11-.1-.17-.24-.17-.4s.06-.29.17-.39c.11-.1.3-.15.57-.15h1.5Z"/>
      <path class="cls-17" d="M343.16,267.12h-4.52c.11.29.32.52.61.69.29.18.69.26,1.18.26.41,0,.95-.09,1.63-.26.28-.07.47-.11.58-.11.15,0,.27.05.37.16s.15.23.15.39c0,.14-.05.26-.16.37-.14.13-.49.26-1.05.38s-1.09.18-1.6.18c-.88,0-1.59-.25-2.11-.75-.53-.5-.79-1.11-.79-1.84,0-.77.29-1.4.86-1.89.57-.49,1.23-.73,1.97-.73.45,0,.86.08,1.23.24.37.16.65.33.83.51.26.26.47.59.64.98.11.27.17.59.17.95v.47ZM341.95,266.02c-.17-.32-.39-.55-.66-.71-.27-.16-.6-.23-.97-.23s-.69.08-.97.23c-.27.16-.49.39-.67.71h3.27Z"/>
      <path class="cls-17" d="M349.77,267.12h-4.52c.11.29.32.52.61.69.29.18.69.26,1.18.26.41,0,.95-.09,1.63-.26.28-.07.47-.11.58-.11.15,0,.27.05.37.16s.15.23.15.39c0,.14-.05.26-.16.37-.14.13-.49.26-1.05.38s-1.09.18-1.6.18c-.88,0-1.59-.25-2.11-.75-.53-.5-.79-1.11-.79-1.84,0-.77.29-1.4.86-1.89.57-.49,1.23-.73,1.97-.73.45,0,.86.08,1.23.24.37.16.65.33.83.51.26.26.47.59.64.98.11.27.17.59.17.95v.47ZM348.55,266.02c-.17-.32-.39-.55-.66-.71-.27-.16-.6-.23-.97-.23s-.69.08-.97.23c-.27.16-.49.39-.67.71h3.27Z"/>
      <path class="cls-17" d="M352.49,264.12v.37c.2-.17.42-.3.66-.39.24-.09.5-.13.79-.13.65,0,1.17.2,1.55.61.3.32.45.75.45,1.27v2.05c.23,0,.4.05.52.15.11.1.17.24.17.4s-.06.29-.17.39c-.11.1-.3.15-.57.15h-.99c-.27,0-.45-.05-.57-.15-.11-.1-.17-.24-.17-.4s.06-.29.17-.4c.11-.1.28-.15.52-.15v-2.08c0-.24-.06-.42-.19-.53-.17-.14-.42-.21-.76-.21-.25,0-.48.05-.67.15-.19.1-.43.31-.73.63v2.05c.28,0,.47.03.55.08.18.11.26.26.26.47,0,.16-.06.29-.17.39-.11.1-.3.15-.57.15h-1.25c-.27,0-.45-.05-.57-.15-.11-.1-.17-.24-.17-.4,0-.2.09-.36.26-.47.09-.05.27-.08.55-.08v-2.67c-.23,0-.4-.05-.52-.16s-.17-.24-.17-.4.06-.29.17-.39c.11-.1.3-.15.57-.15h1.05Z"/>
      <path class="cls-17" d="M363.3,265.75c0,.98-.31,1.79-.93,2.44-.62.65-1.34.97-2.16.97-.73,0-1.4-.27-1.99-.81-.73-.67-1.1-1.54-1.1-2.6s.37-1.94,1.1-2.61c.59-.54,1.25-.81,1.99-.81.82,0,1.54.32,2.16.97.62.65.93,1.46.93,2.45ZM362.19,265.75c0-.67-.2-1.22-.61-1.66s-.86-.66-1.38-.66-.97.22-1.38.66c-.4.44-.61.99-.61,1.66s.2,1.22.61,1.66.86.66,1.38.66.98-.22,1.38-.66c.4-.44.61-.99.61-1.66Z"/>
      <path class="cls-17" d="M365.44,268.39v1.8h.66c.27,0,.45.05.57.15.11.1.17.24.17.4s-.06.29-.17.39c-.11.1-.3.15-.57.15h-1.95c-.27,0-.45-.05-.57-.15-.11-.1-.17-.23-.17-.39s.06-.3.17-.4c.11-.1.3-.15.56-.15h.19v-4.97h-.19c-.27,0-.45-.05-.57-.15-.11-.1-.17-.24-.17-.4s.06-.29.17-.39c.11-.1.3-.15.57-.15h1.29v.38c.26-.18.52-.31.8-.39s.56-.13.85-.13c.75,0,1.39.25,1.92.76.53.51.79,1.09.79,1.75,0,.73-.31,1.33-.94,1.8-.52.39-1.11.59-1.77.59-.28,0-.56-.04-.84-.12s-.55-.21-.82-.37ZM368.7,266.5c0-.15-.06-.35-.18-.59s-.31-.44-.56-.6c-.25-.16-.55-.24-.89-.24-.55,0-.98.21-1.31.62-.22.28-.33.55-.33.82,0,.29.16.58.47.86.31.28.7.42,1.16.42s.85-.14,1.17-.41c.31-.28.47-.57.47-.87Z"/>
      <path class="cls-17" d="M374.6,265.41c-.18-.11-.37-.19-.56-.25s-.4-.08-.62-.08c-.43,0-.76.07-1.02.21-.11.06-.17.13-.17.2,0,.08.08.16.23.24.11.06.37.11.77.17.73.1,1.24.2,1.53.3.38.13.67.33.87.59s.31.54.31.83c0,.39-.17.72-.52.99-.5.38-1.14.58-1.94.58-.32,0-.61-.03-.88-.08-.27-.06-.52-.14-.74-.24-.05.05-.11.08-.17.11s-.12.04-.19.04c-.17,0-.31-.06-.41-.17-.1-.11-.15-.3-.15-.57v-.37c0-.27.05-.45.15-.57.1-.11.24-.17.4-.17.13,0,.24.04.33.11s.16.2.21.38c.17.14.37.25.61.33s.51.11.82.11c.5,0,.9-.08,1.18-.24.13-.08.2-.16.2-.25,0-.14-.09-.26-.28-.35s-.58-.17-1.18-.24c-.88-.09-1.48-.27-1.77-.54-.3-.26-.45-.58-.45-.97s.17-.72.5-.98c.45-.36,1.04-.54,1.77-.54.25,0,.5.02.73.07.23.05.46.12.67.22.07-.05.13-.09.19-.11.06-.02.11-.04.16-.04.15,0,.28.06.38.17.1.11.15.3.15.57v.27c0,.24-.03.4-.09.49-.11.17-.27.25-.47.25-.13,0-.25-.04-.35-.12-.1-.08-.16-.19-.19-.33Z"/>
    </g>
    <rect class="cls-9" x="396.3" y="254" width="42" height="22" rx="4" ry="4"/>
    <g class="cls-6">
      <path class="cls-17" d="M409.09,268.72c-.1.11-.17.19-.23.22-.06.03-.13.05-.22.05-.17,0-.3-.06-.41-.17-.1-.11-.15-.3-.15-.56v-.74c0-.26.05-.45.15-.57.1-.11.24-.17.41-.17.13,0,.24.03.33.1s.16.18.2.34c.05.16.09.27.15.33.1.11.29.22.55.34.27.11.56.17.87.17.49,0,.89-.12,1.21-.34.2-.14.3-.31.3-.52,0-.14-.05-.26-.15-.38s-.25-.22-.47-.3c-.14-.05-.46-.13-.96-.22-.6-.11-1.06-.25-1.36-.4-.31-.16-.55-.38-.73-.67-.18-.29-.27-.6-.27-.93,0-.53.22-.99.66-1.38s1.01-.59,1.72-.59c.28,0,.55.03.79.09.24.06.46.16.66.29.14-.14.29-.21.43-.21.16,0,.29.06.39.17.1.11.15.3.15.56v.83c0,.27-.05.45-.15.57-.1.11-.23.17-.39.17-.14,0-.25-.04-.35-.12-.08-.06-.14-.18-.18-.37-.04-.18-.09-.31-.15-.39-.1-.14-.26-.25-.47-.34-.21-.09-.45-.14-.72-.14-.4,0-.71.09-.94.28-.23.18-.35.38-.35.58,0,.14.05.27.14.39.09.13.23.23.42.3.12.05.46.13,1.03.24.56.11,1,.23,1.3.37.3.13.55.34.75.62.2.28.3.62.3,1.01,0,.54-.19.98-.58,1.31-.51.43-1.16.64-1.94.64-.3,0-.6-.04-.89-.11s-.57-.18-.84-.33Z"/>
      <path class="cls-17" d="M419.03,262.77c.07-.09.14-.16.22-.21.08-.05.17-.07.26-.07.16,0,.29.06.39.17.1.11.15.3.15.56v.93c0,.26-.05.45-.15.57-.1.11-.23.17-.39.17-.15,0-.26-.04-.35-.12-.09-.08-.16-.24-.2-.46-.03-.15-.08-.27-.15-.35-.15-.16-.35-.29-.62-.39-.26-.1-.53-.15-.79-.15-.33,0-.63.07-.91.21-.28.14-.52.38-.73.7-.21.32-.32.71-.32,1.15v.71c0,.53.19.97.58,1.33s.92.53,1.6.53c.41,0,.75-.06,1.04-.17.17-.06.34-.19.53-.38.12-.11.2-.19.27-.22s.14-.05.22-.05c.15,0,.28.06.39.17.11.11.17.24.17.39s-.08.31-.23.48c-.22.25-.5.45-.84.59-.46.19-.97.29-1.53.29-.65,0-1.24-.13-1.76-.4-.42-.21-.78-.55-1.08-1.02-.3-.46-.45-.97-.45-1.52v-.75c0-.57.13-1.11.4-1.6s.64-.88,1.11-1.15.97-.4,1.5-.4c.32,0,.62.04.89.11.28.07.54.19.78.34Z"/>
      <path class="cls-17" d="M424.45,263.59v4.31h1.11c.26,0,.45.05.57.15.11.1.17.24.17.4s-.06.29-.17.39c-.11.1-.3.15-.57.15h-3.33c-.26,0-.45-.05-.57-.15-.11-.1-.17-.24-.17-.4s.06-.29.17-.4c.11-.1.3-.15.57-.15h1.11v-4.31h-1.11c-.26,0-.45-.05-.57-.15-.11-.1-.17-.24-.17-.4s.06-.3.17-.4c.11-.1.3-.15.57-.15h3.33c.26,0,.45.06.57.16.11.1.17.23.17.4s-.06.3-.17.4c-.11.1-.3.15-.57.15h-1.11Z"/>
    </g>
    <rect class="cls-9" x="446.3" y="254" width="56" height="22" rx="4" ry="4"/>
    <g class="cls-6">
      <path class="cls-17" d="M457.81,267.66l1.19-2.44c-.29,0-.48-.03-.56-.08-.18-.11-.27-.27-.27-.48,0-.16.06-.29.17-.39.11-.1.3-.15.57-.15h1.51c.27,0,.45.05.57.15.11.1.17.24.17.4s-.06.29-.17.4c-.11.1-.3.15-.57.15h-.18l-1.84,3.78h-1.15l-1.84-3.78h-.16c-.27,0-.45-.05-.57-.15-.11-.1-.17-.24-.17-.4s.06-.29.17-.39c.11-.1.3-.15.57-.15h1.48c.26,0,.45.05.56.15.11.1.17.24.17.4,0,.21-.09.36-.26.47-.09.05-.28.08-.57.08l1.2,2.44Z"/>
      <path class="cls-17" d="M466.8,264.91v1.21c0,.72-.21,1.4-.62,2.06-.41.66-1.01.98-1.78.98-.44,0-.82-.1-1.12-.29-.31-.2-.6-.55-.87-1.08-.27-.52-.41-1.08-.41-1.67v-1.21c0-.71.21-1.4.62-2.05s1-.99,1.77-.99c.44,0,.81.1,1.12.29.31.19.6.55.88,1.08.28.52.42,1.08.42,1.67ZM465.7,264.91c0-.6-.17-1.12-.5-1.57-.19-.25-.46-.37-.8-.37s-.6.14-.82.41c-.32.41-.48.92-.48,1.53v1.21c0,.6.17,1.12.5,1.57.19.25.45.37.8.37s.6-.14.81-.41c.32-.41.48-.92.48-1.53v-1.21Z"/>
      <path class="cls-17" d="M471.84,268.45c0,.21-.07.38-.22.52s-.35.21-.61.21-.46-.07-.61-.21-.22-.31-.22-.52.07-.38.22-.52.35-.21.61-.21.46.07.61.21.22.31.22.52Z"/>
      <path class="cls-17" d="M478.16,261.87v6.03h1.11c.27,0,.45.05.57.15.11.1.17.24.17.4s-.06.29-.17.39c-.11.1-.3.15-.57.15h-3.32c-.27,0-.45-.05-.57-.15-.11-.1-.17-.24-.17-.4s.06-.29.17-.4c.11-.1.3-.15.57-.15h1.11v-4.59l-.98.26c-.16.04-.28.06-.35.06-.14,0-.26-.06-.36-.17-.1-.11-.15-.25-.15-.41,0-.15.04-.26.11-.35s.23-.16.47-.22l2.37-.61Z"/>
      <path class="cls-17" d="M485.04,268.45c0,.21-.07.38-.22.52s-.35.21-.61.21-.46-.07-.61-.21-.22-.31-.22-.52.07-.38.22-.52.35-.21.61-.21.46.07.61.21.22.31.22.52Z"/>
      <path class="cls-17" d="M493.21,264.91v1.21c0,.72-.21,1.4-.62,2.06-.41.66-1.01.98-1.78.98-.44,0-.82-.1-1.12-.29-.31-.2-.6-.55-.87-1.08-.27-.52-.41-1.08-.41-1.67v-1.21c0-.71.21-1.4.62-2.05s1-.99,1.77-.99c.44,0,.81.1,1.12.29.31.19.6.55.88,1.08.28.52.42,1.08.42,1.67ZM492.1,264.91c0-.6-.17-1.12-.5-1.57-.19-.25-.46-.37-.8-.37s-.6.14-.82.41c-.32.41-.48.92-.48,1.53v1.21c0,.6.17,1.12.5,1.57.19.25.45.37.8.37s.6-.14.81-.41c.32-.41.48-.92.48-1.53v-1.21Z"/>
    </g>
  </g>
  <g class="cls-4">
    <path class="cls-22" d="M328.23,135.82h-.14v20.74h-11.11v-52.56h11.11v5.41h.14c2.74-4.2,6.6-6.29,11.57-6.29,4.66,0,8.27,1.6,10.81,4.8,2.54,3.2,3.81,7.55,3.81,13.06,0,6-1.48,10.82-4.45,14.45-2.97,3.63-6.91,5.45-11.83,5.45-4.34,0-7.64-1.69-9.91-5.06ZM327.91,121.05v2.88c0,2.48.66,4.51,1.97,6.08,1.31,1.57,3.04,2.36,5.17,2.36,2.53,0,4.49-.98,5.89-2.94,1.39-1.96,2.09-4.73,2.09-8.31,0-6.33-2.46-9.49-7.38-9.49-2.27,0-4.13.86-5.57,2.58s-2.16,4-2.16,6.84Z"/>
    <path class="cls-22" d="M393.97,125.16h-23.48c.37,5.23,3.67,7.84,9.88,7.84,3.96,0,7.44-.94,10.44-2.81v8.02c-3.33,1.78-7.65,2.67-12.97,2.67-5.81,0-10.32-1.61-13.54-4.83-3.21-3.22-4.82-7.72-4.82-13.48s1.73-10.71,5.2-14.2c3.47-3.49,7.73-5.24,12.8-5.24s9.31,1.56,12.18,4.68c2.87,3.12,4.31,7.35,4.31,12.69v4.68ZM383.67,118.34c0-5.16-2.09-7.73-6.26-7.73-1.78,0-3.32.74-4.62,2.21s-2.09,3.32-2.37,5.52h13.25Z"/>
    <path class="cls-22" d="M424.06,114.02c-1.34-.73-2.9-1.09-4.68-1.09-2.41,0-4.3.88-5.66,2.65-1.36,1.77-2.04,4.18-2.04,7.22v17.19h-11.11v-36h11.11v6.68h.14c1.76-4.88,4.92-7.31,9.49-7.31,1.17,0,2.09.14,2.74.42v10.23Z"/>
    <path class="cls-22" d="M454.51,95.21c-1.43-.56-2.8-.84-4.11-.84-3.56,0-5.34,1.93-5.34,5.8v3.83h8.23v8.19h-8.23v27.81h-11.07v-27.81h-6.05v-8.19h6.05v-4.46c0-4.1,1.34-7.41,4.01-9.91s6.3-3.76,10.9-3.76c2.25,0,4.12.23,5.62.7v8.65Z"/>
    <path class="cls-22" d="M475.32,124.67h-19.23v-7.77h19.23v7.77Z"/>
    <path class="cls-22" d="M482.49,139.05v-9c1.83,1.1,3.65,1.92,5.47,2.46,1.82.54,3.53.81,5.15.81,1.97,0,3.52-.27,4.66-.81,1.14-.54,1.71-1.36,1.71-2.46,0-.7-.26-1.29-.77-1.76-.52-.47-1.18-.88-1.99-1.23s-1.69-.67-2.65-.95c-.96-.28-1.89-.6-2.78-.95-1.43-.54-2.69-1.12-3.78-1.74s-2-1.34-2.74-2.16-1.3-1.77-1.69-2.85-.58-2.36-.58-3.83c0-2.02.44-3.75,1.32-5.2s2.05-2.64,3.52-3.57c1.46-.93,3.14-1.61,5.03-2.04,1.89-.43,3.85-.65,5.89-.65,1.59,0,3.21.12,4.85.37,1.64.25,3.26.6,4.85,1.07v8.58c-1.41-.82-2.91-1.44-4.52-1.85-1.61-.41-3.18-.62-4.73-.62-.73,0-1.41.06-2.06.19-.65.13-1.21.32-1.71.56s-.88.56-1.16.95-.42.83-.42,1.32c0,.66.21,1.22.63,1.69s.97.87,1.65,1.21c.68.34,1.44.64,2.27.91.83.27,1.66.54,2.48.83,1.48.52,2.81,1.08,4.01,1.69s2.22,1.32,3.08,2.14c.86.82,1.51,1.78,1.97,2.88s.69,2.41.69,3.94c0,2.13-.46,3.96-1.39,5.47-.93,1.51-2.16,2.74-3.69,3.69-1.54.95-3.3,1.64-5.31,2.07s-4.08.65-6.24.65c-3.96,0-7.63-.61-11-1.83Z"/>
    <path class="cls-22" d="M548.87,125.16h-23.48c.37,5.23,3.67,7.84,9.88,7.84,3.96,0,7.44-.94,10.44-2.81v8.02c-3.33,1.78-7.65,2.67-12.97,2.67-5.81,0-10.32-1.61-13.54-4.83-3.21-3.22-4.82-7.72-4.82-13.48s1.73-10.71,5.2-14.2c3.47-3.49,7.73-5.24,12.8-5.24s9.31,1.56,12.18,4.68,4.31,7.35,4.31,12.69v4.68ZM538.57,118.34c0-5.16-2.09-7.73-6.26-7.73-1.78,0-3.32.74-4.62,2.21s-2.09,3.32-2.37,5.52h13.25Z"/>
    <path class="cls-22" d="M590.25,140h-11.07v-20c0-5.58-1.99-8.37-5.98-8.37-1.92,0-3.5.74-4.75,2.21s-1.86,3.35-1.86,5.62v20.53h-11.11v-36h11.11v5.7h.14c2.65-4.38,6.5-6.57,11.57-6.57,7.97,0,11.95,4.95,11.95,14.84v22.04Z"/>
    <path class="cls-22" d="M620.8,139.58c-1.64.87-4.11,1.3-7.42,1.3-7.83,0-11.74-4.07-11.74-12.2v-16.49h-5.84v-8.19h5.84v-7.77l11.07-3.16v10.93h8.09v8.19h-8.09v14.55c0,3.75,1.49,5.62,4.46,5.62,1.17,0,2.38-.34,3.62-1.02v8.23Z"/>
    <path class="cls-22" d="M632.68,98.3c-1.88,0-3.41-.56-4.61-1.67s-1.79-2.48-1.79-4.1.6-3.02,1.79-4.08,2.73-1.58,4.61-1.58,3.44.53,4.62,1.58,1.78,2.41,1.78,4.08-.59,3.07-1.78,4.15-2.72,1.62-4.62,1.62ZM638.17,140h-11.11v-36h11.11v36Z"/>
    <path class="cls-22" d="M682.29,140h-11.07v-20c0-5.58-1.99-8.37-5.98-8.37-1.92,0-3.5.74-4.75,2.21s-1.86,3.35-1.86,5.62v20.53h-11.11v-36h11.11v5.7h.14c2.65-4.38,6.5-6.57,11.57-6.57,7.97,0,11.95,4.95,11.95,14.84v22.04Z"/>
    <path class="cls-22" d="M723.42,125.16h-23.48c.38,5.23,3.67,7.84,9.88,7.84,3.96,0,7.44-.94,10.44-2.81v8.02c-3.33,1.78-7.65,2.67-12.97,2.67-5.81,0-10.32-1.61-13.54-4.83s-4.82-7.72-4.82-13.48,1.73-10.71,5.2-14.2,7.73-5.24,12.8-5.24,9.31,1.56,12.18,4.68,4.31,7.35,4.31,12.69v4.68ZM713.12,118.34c0-5.16-2.09-7.73-6.26-7.73-1.78,0-3.32.74-4.62,2.21s-2.09,3.32-2.37,5.52h13.25Z"/>
    <path class="cls-22" d="M741.14,140h-11.11v-53.3h11.11v53.3Z"/>
  </g>
  <g class="cls-19">
    <path class="cls-20" d="M120.3,51l91,39v70c0,55-49,99-91,115-42-16-91-60-91-115v-70l91-39Z"/>
    <path class="cls-11" d="M120.3,71l73,31.5v56.5c0,45-42,82-73,96-31-14-73-51-73-96v-56.5l73-31.5Z"/>
    <g class="cls-23">
      <path class="cls-13" d="M120.3,90c15,2.5,25,15,25,30s-12.5,25-25,27.5c-12.5-2.5-25-12.5-25-27.5s10-27.5,25-30Z"/>
      <line class="cls-1" x1="120.3" y1="95" x2="120.3" y2="145"/>
      <line class="cls-3" x1="120.3" y1="105" x2="107.8" y2="112.5"/>
      <line class="cls-3" x1="120.3" y1="105" x2="132.8" y2="112.5"/>
      <line class="cls-3" x1="120.3" y1="115" x2="105.3" y2="123.5"/>
      <line class="cls-3" x1="120.3" y1="115" x2="135.3" y2="123.5"/>
      <line class="cls-3" x1="120.3" y1="126.5" x2="109.3" y2="135"/>
      <line class="cls-3" x1="120.3" y1="126.5" x2="131.3" y2="135"/>
    </g>
    <polyline class="cls-15" points="57.3 195 79.8 195 92.3 195 102.3 175 112.3 215 122.3 165 132.3 210 142.3 185 154.8 195 183.3 195"/>
    <circle class="cls-12" cx="122.3" cy="165" r="1.75"/>
    <circle class="cls-5" cx="102.28" cy="174.96" r="1.75"/>
    <circle class="cls-10" cx="142.29" cy="185.04" r="1.5"/>
  </g>
</svg>