<svg viewBox="0 0 900 320" fill="none" xmlns="http://www.w3.org/2000/svg">
<g clip-path="url(#clip0_12013_161)">
<g opacity="0.15">
<path d="M0 40H900.33" stroke="#34D399"/>
<path d="M0 80H900.33" stroke="#34D399"/>
<path d="M0 120H900.33" stroke="#34D399"/>
<path d="M0 160H900.33" stroke="#34D399"/>
<path d="M0 200H900.33" stroke="#34D399"/>
<path d="M0 240H900.33" stroke="#34D399"/>
<path d="M0 280H900.33" stroke="#34D399"/>
<path d="M132.3 0V320" stroke="#34D399"/>
<path d="M292.3 0V320" stroke="#34D399"/>
<path d="M452.3 0V320" stroke="#34D399"/>
<path d="M612.3 0V320" stroke="#34D399"/>
<path d="M772.3 0V320" stroke="#34D399"/>
</g>
<path d="M65.65 182V166.6H67.498V180.526H74.67V182H65.65ZM77.3176 182V170.912H79.1656V182H77.3176ZM78.2416 168.558C77.8749 168.558 77.5669 168.441 77.3176 168.206C77.0829 167.957 76.9656 167.649 76.9656 167.282C76.9656 166.915 77.0829 166.622 77.3176 166.402C77.5669 166.167 77.8749 166.05 78.2416 166.05C78.5936 166.05 78.8942 166.167 79.1436 166.402C79.3929 166.622 79.5176 166.915 79.5176 167.282C79.5176 167.649 79.3929 167.957 79.1436 168.206C78.8942 168.441 78.5936 168.558 78.2416 168.558ZM86.8047 187.104C85.8074 187.104 84.9201 186.972 84.1427 186.708C83.3801 186.459 82.7861 186.07 82.3607 185.542C81.9354 185.014 81.7227 184.361 81.7227 183.584C81.7227 183.247 81.7887 182.887 81.9207 182.506C82.0674 182.125 82.3094 181.751 82.6467 181.384C82.9987 181.017 83.4901 180.687 84.1207 180.394L85.3967 181.142C84.6194 181.465 84.1134 181.831 83.8787 182.242C83.6441 182.667 83.5267 183.056 83.5267 183.408C83.5267 183.892 83.6661 184.295 83.9447 184.618C84.2234 184.941 84.6121 185.183 85.1107 185.344C85.6094 185.505 86.1741 185.586 86.8047 185.586C87.4354 185.586 87.9781 185.498 88.4327 185.322C88.8874 185.146 89.2394 184.897 89.4887 184.574C89.7381 184.251 89.8627 183.87 89.8627 183.43C89.8627 182.917 89.6721 182.484 89.2907 182.132C88.9094 181.795 88.1834 181.597 87.1127 181.538C86.2474 181.479 85.5214 181.399 84.9347 181.296C84.3481 181.193 83.8641 181.076 83.4827 180.944C83.1014 180.797 82.7787 180.636 82.5147 180.46C82.2654 180.284 82.0381 180.101 81.8327 179.91V179.404L83.9667 177.292L85.5727 177.864L83.3727 179.844L83.6587 179.074C83.8201 179.191 83.9741 179.301 84.1207 179.404C84.2674 179.507 84.4654 179.595 84.7147 179.668C84.9641 179.741 85.3087 179.807 85.7487 179.866C86.2034 179.925 86.7974 179.983 87.5307 180.042C88.5427 180.115 89.3494 180.291 89.9507 180.57C90.5667 180.849 91.0067 181.223 91.2707 181.692C91.5494 182.161 91.6887 182.719 91.6887 183.364C91.6887 183.995 91.5127 184.589 91.1607 185.146C90.8234 185.718 90.2954 186.187 89.5767 186.554C88.8581 186.921 87.9341 187.104 86.8047 187.104ZM86.7827 178.524C85.8587 178.524 85.0667 178.348 84.4067 177.996C83.7614 177.644 83.2701 177.175 82.9327 176.588C82.5954 175.987 82.4267 175.319 82.4267 174.586C82.4267 173.853 82.5954 173.193 82.9327 172.606C83.2847 172.019 83.7834 171.55 84.4287 171.198C85.0741 170.831 85.8587 170.648 86.7827 170.648C87.7067 170.648 88.4914 170.831 89.1367 171.198C89.7821 171.55 90.2734 172.019 90.6107 172.606C90.9481 173.193 91.1167 173.853 91.1167 174.586C91.1167 175.319 90.9481 175.987 90.6107 176.588C90.2734 177.175 89.7821 177.644 89.1367 177.996C88.4914 178.348 87.7067 178.524 86.7827 178.524ZM86.7827 177.006C87.5747 177.006 88.1981 176.801 88.6527 176.39C89.1074 175.979 89.3347 175.378 89.3347 174.586C89.3347 173.809 89.1074 173.215 88.6527 172.804C88.1981 172.393 87.5747 172.188 86.7827 172.188C86.0054 172.188 85.3747 172.393 84.8907 172.804C84.4214 173.215 84.1867 173.809 84.1867 174.586C84.1867 175.378 84.4214 175.979 84.8907 176.39C85.3601 176.801 85.9907 177.006 86.7827 177.006ZM88.5867 172.474L88.0367 170.912H92.5687V172.298L88.5867 172.474ZM94.6943 182V166.16H96.5423V172.782C96.909 172.122 97.4223 171.601 98.0823 171.22C98.757 170.839 99.4903 170.648 100.282 170.648C101.133 170.648 101.874 170.824 102.504 171.176C103.135 171.513 103.619 172.034 103.956 172.738C104.294 173.442 104.462 174.329 104.462 175.4V182H102.636V175.598C102.636 174.483 102.402 173.647 101.932 173.09C101.463 172.518 100.781 172.232 99.8863 172.232C99.2556 172.232 98.6836 172.386 98.1703 172.694C97.6716 173.002 97.2756 173.442 96.9823 174.014C96.689 174.586 96.5423 175.29 96.5423 176.126V182H94.6943ZM111.705 182C111.045 182 110.473 181.897 109.989 181.692C109.505 181.487 109.131 181.142 108.867 180.658C108.617 180.159 108.493 179.492 108.493 178.656V172.474H106.557V170.912H108.493L108.735 168.228H110.341V170.912H113.553V172.474H110.341V178.656C110.341 179.345 110.48 179.815 110.759 180.064C111.037 180.299 111.529 180.416 112.233 180.416H113.421V182H111.705ZM118.208 182L114.952 170.912H116.8L119.33 180.262H119L121.75 170.912H123.84L126.634 180.24L126.282 180.262L128.79 170.912H130.66L127.426 182H125.534L122.63 172.232H123.004L120.1 182H118.208ZM137.197 182.264C136.156 182.264 135.232 182.022 134.425 181.538C133.633 181.054 133.01 180.379 132.555 179.514C132.1 178.634 131.873 177.615 131.873 176.456C131.873 175.283 132.093 174.263 132.533 173.398C132.988 172.533 133.618 171.858 134.425 171.374C135.246 170.89 136.185 170.648 137.241 170.648C138.326 170.648 139.243 170.89 139.991 171.374C140.754 171.858 141.333 172.496 141.729 173.288C142.14 174.065 142.345 174.923 142.345 175.862C142.345 176.009 142.345 176.163 142.345 176.324C142.345 176.485 142.338 176.669 142.323 176.874H133.259V175.444H140.541C140.497 174.432 140.16 173.64 139.529 173.068C138.913 172.496 138.136 172.21 137.197 172.21C136.566 172.21 135.98 172.357 135.437 172.65C134.909 172.929 134.484 173.347 134.161 173.904C133.838 174.447 133.677 175.129 133.677 175.95V176.566C133.677 177.475 133.838 178.238 134.161 178.854C134.498 179.47 134.931 179.932 135.459 180.24C136.002 180.548 136.581 180.702 137.197 180.702C137.974 180.702 138.612 180.533 139.111 180.196C139.624 179.844 139.991 179.375 140.211 178.788H142.037C141.861 179.448 141.553 180.042 141.113 180.57C140.673 181.098 140.123 181.516 139.463 181.824C138.818 182.117 138.062 182.264 137.197 182.264ZM145.015 182V170.912H146.863V182H145.015ZM145.939 168.558C145.572 168.558 145.264 168.441 145.015 168.206C144.78 167.957 144.663 167.649 144.663 167.282C144.663 166.915 144.78 166.622 145.015 166.402C145.264 166.167 145.572 166.05 145.939 166.05C146.291 166.05 146.591 166.167 146.841 166.402C147.09 166.622 147.215 166.915 147.215 167.282C147.215 167.649 147.09 167.957 146.841 168.206C146.591 168.441 146.291 168.558 145.939 168.558ZM154.502 187.104C153.505 187.104 152.617 186.972 151.84 186.708C151.077 186.459 150.483 186.07 150.058 185.542C149.633 185.014 149.42 184.361 149.42 183.584C149.42 183.247 149.486 182.887 149.618 182.506C149.765 182.125 150.007 181.751 150.344 181.384C150.696 181.017 151.187 180.687 151.818 180.394L153.094 181.142C152.317 181.465 151.811 181.831 151.576 182.242C151.341 182.667 151.224 183.056 151.224 183.408C151.224 183.892 151.363 184.295 151.642 184.618C151.921 184.941 152.309 185.183 152.808 185.344C153.307 185.505 153.871 185.586 154.502 185.586C155.133 185.586 155.675 185.498 156.13 185.322C156.585 185.146 156.937 184.897 157.186 184.574C157.435 184.251 157.56 183.87 157.56 183.43C157.56 182.917 157.369 182.484 156.988 182.132C156.607 181.795 155.881 181.597 154.81 181.538C153.945 181.479 153.219 181.399 152.632 181.296C152.045 181.193 151.561 181.076 151.18 180.944C150.799 180.797 150.476 180.636 150.212 180.46C149.963 180.284 149.735 180.101 149.53 179.91V179.404L151.664 177.292L153.27 177.864L151.07 179.844L151.356 179.074C151.517 179.191 151.671 179.301 151.818 179.404C151.965 179.507 152.163 179.595 152.412 179.668C152.661 179.741 153.006 179.807 153.446 179.866C153.901 179.925 154.495 179.983 155.228 180.042C156.24 180.115 157.047 180.291 157.648 180.57C158.264 180.849 158.704 181.223 158.968 181.692C159.247 182.161 159.386 182.719 159.386 183.364C159.386 183.995 159.21 184.589 158.858 185.146C158.521 185.718 157.993 186.187 157.274 186.554C156.555 186.921 155.631 187.104 154.502 187.104ZM154.48 178.524C153.556 178.524 152.764 178.348 152.104 177.996C151.459 177.644 150.967 177.175 150.63 176.588C150.293 175.987 150.124 175.319 150.124 174.586C150.124 173.853 150.293 173.193 150.63 172.606C150.982 172.019 151.481 171.55 152.126 171.198C152.771 170.831 153.556 170.648 154.48 170.648C155.404 170.648 156.189 170.831 156.834 171.198C157.479 171.55 157.971 172.019 158.308 172.606C158.645 173.193 158.814 173.853 158.814 174.586C158.814 175.319 158.645 175.987 158.308 176.588C157.971 177.175 157.479 177.644 156.834 177.996C156.189 178.348 155.404 178.524 154.48 178.524ZM154.48 177.006C155.272 177.006 155.895 176.801 156.35 176.39C156.805 175.979 157.032 175.378 157.032 174.586C157.032 173.809 156.805 173.215 156.35 172.804C155.895 172.393 155.272 172.188 154.48 172.188C153.703 172.188 153.072 172.393 152.588 172.804C152.119 173.215 151.884 173.809 151.884 174.586C151.884 175.378 152.119 175.979 152.588 176.39C153.057 176.801 153.688 177.006 154.48 177.006ZM156.284 172.474L155.734 170.912H160.266V172.298L156.284 172.474ZM162.392 182V166.16H164.24V172.782C164.606 172.122 165.12 171.601 165.78 171.22C166.454 170.839 167.188 170.648 167.98 170.648C168.83 170.648 169.571 170.824 170.202 171.176C170.832 171.513 171.316 172.034 171.654 172.738C171.991 173.442 172.16 174.329 172.16 175.4V182H170.334V175.598C170.334 174.483 170.099 173.647 169.63 173.09C169.16 172.518 168.478 172.232 167.584 172.232C166.953 172.232 166.381 172.386 165.868 172.694C165.369 173.002 164.973 173.442 164.68 174.014C164.386 174.586 164.24 175.29 164.24 176.126V182H162.392ZM179.402 182C178.742 182 178.17 181.897 177.686 181.692C177.202 181.487 176.828 181.142 176.564 180.658C176.315 180.159 176.19 179.492 176.19 178.656V172.474H174.254V170.912H176.19L176.432 168.228H178.038V170.912H181.25V172.474H178.038V178.656C178.038 179.345 178.177 179.815 178.456 180.064C178.735 180.299 179.226 180.416 179.93 180.416H181.118V182H179.402ZM183.348 184.706L184.624 179.844H186.538L184.624 184.706H183.348ZM194.64 186.84V170.912H196.312L196.466 172.716C196.7 172.364 197.001 172.034 197.368 171.726C197.734 171.403 198.174 171.147 198.688 170.956C199.201 170.751 199.788 170.648 200.448 170.648C201.533 170.648 202.472 170.905 203.264 171.418C204.07 171.931 204.694 172.628 205.134 173.508C205.588 174.373 205.816 175.363 205.816 176.478C205.816 177.593 205.588 178.59 205.134 179.47C204.694 180.335 204.07 181.017 203.264 181.516C202.457 182.015 201.511 182.264 200.426 182.264C199.531 182.264 198.739 182.081 198.05 181.714C197.375 181.347 196.854 180.834 196.488 180.174V186.84H194.64ZM200.228 180.658C200.946 180.658 201.584 180.482 202.142 180.13C202.699 179.778 203.132 179.294 203.44 178.678C203.762 178.047 203.924 177.307 203.924 176.456C203.924 175.62 203.762 174.887 203.44 174.256C203.132 173.625 202.699 173.134 202.142 172.782C201.584 172.43 200.946 172.254 200.228 172.254C199.494 172.254 198.849 172.43 198.292 172.782C197.734 173.134 197.302 173.625 196.994 174.256C196.686 174.887 196.532 175.62 196.532 176.456C196.532 177.307 196.686 178.047 196.994 178.678C197.302 179.294 197.734 179.778 198.292 180.13C198.849 180.482 199.494 180.658 200.228 180.658ZM213.361 182.264C212.334 182.264 211.41 182.029 210.589 181.56C209.768 181.076 209.122 180.401 208.653 179.536C208.184 178.656 207.949 177.637 207.949 176.478C207.949 175.29 208.184 174.263 208.653 173.398C209.137 172.518 209.79 171.843 210.611 171.374C211.447 170.89 212.378 170.648 213.405 170.648C214.461 170.648 215.392 170.89 216.199 171.374C217.02 171.843 217.666 172.518 218.135 173.398C218.619 174.263 218.861 175.283 218.861 176.456C218.861 177.629 218.619 178.656 218.135 179.536C217.651 180.401 216.998 181.076 216.177 181.56C215.356 182.029 214.417 182.264 213.361 182.264ZM213.383 180.68C214.014 180.68 214.6 180.526 215.143 180.218C215.686 179.895 216.126 179.419 216.463 178.788C216.8 178.157 216.969 177.38 216.969 176.456C216.969 175.517 216.8 174.74 216.463 174.124C216.14 173.493 215.708 173.024 215.165 172.716C214.637 172.393 214.05 172.232 213.405 172.232C212.789 172.232 212.202 172.393 211.645 172.716C211.102 173.024 210.662 173.493 210.325 174.124C210.002 174.74 209.841 175.517 209.841 176.456C209.841 177.38 210.002 178.157 210.325 178.788C210.662 179.419 211.095 179.895 211.623 180.218C212.166 180.526 212.752 180.68 213.383 180.68ZM221.452 182V166.16H223.3V182H221.452ZM227.561 186.84L230.267 180.768H229.629L225.273 170.912H227.275L230.883 179.382L234.667 170.912H236.581L229.497 186.84H227.561ZM242.266 187.104C241.268 187.104 240.381 186.972 239.604 186.708C238.841 186.459 238.247 186.07 237.822 185.542C237.396 185.014 237.184 184.361 237.184 183.584C237.184 183.247 237.25 182.887 237.382 182.506C237.528 182.125 237.77 181.751 238.108 181.384C238.46 181.017 238.951 180.687 239.582 180.394L240.858 181.142C240.08 181.465 239.574 181.831 239.34 182.242C239.105 182.667 238.988 183.056 238.988 183.408C238.988 183.892 239.127 184.295 239.406 184.618C239.684 184.941 240.073 185.183 240.572 185.344C241.07 185.505 241.635 185.586 242.266 185.586C242.896 185.586 243.439 185.498 243.894 185.322C244.348 185.146 244.7 184.897 244.95 184.574C245.199 184.251 245.324 183.87 245.324 183.43C245.324 182.917 245.133 182.484 244.752 182.132C244.37 181.795 243.644 181.597 242.574 181.538C241.708 181.479 240.982 181.399 240.396 181.296C239.809 181.193 239.325 181.076 238.944 180.944C238.562 180.797 238.24 180.636 237.976 180.46C237.726 180.284 237.499 180.101 237.294 179.91V179.404L239.428 177.292L241.034 177.864L238.834 179.844L239.12 179.074C239.281 179.191 239.435 179.301 239.582 179.404C239.728 179.507 239.926 179.595 240.176 179.668C240.425 179.741 240.77 179.807 241.21 179.866C241.664 179.925 242.258 179.983 242.992 180.042C244.004 180.115 244.81 180.291 245.412 180.57C246.028 180.849 246.468 181.223 246.732 181.692C247.01 182.161 247.15 182.719 247.15 183.364C247.15 183.995 246.974 184.589 246.622 185.146C246.284 185.718 245.756 186.187 245.038 186.554C244.319 186.921 243.395 187.104 242.266 187.104ZM242.244 178.524C241.32 178.524 240.528 178.348 239.868 177.996C239.222 177.644 238.731 177.175 238.394 176.588C238.056 175.987 237.888 175.319 237.888 174.586C237.888 173.853 238.056 173.193 238.394 172.606C238.746 172.019 239.244 171.55 239.89 171.198C240.535 170.831 241.32 170.648 242.244 170.648C243.168 170.648 243.952 170.831 244.598 171.198C245.243 171.55 245.734 172.019 246.072 172.606C246.409 173.193 246.578 173.853 246.578 174.586C246.578 175.319 246.409 175.987 246.072 176.588C245.734 177.175 245.243 177.644 244.598 177.996C243.952 178.348 243.168 178.524 242.244 178.524ZM242.244 177.006C243.036 177.006 243.659 176.801 244.114 176.39C244.568 175.979 244.796 175.378 244.796 174.586C244.796 173.809 244.568 173.215 244.114 172.804C243.659 172.393 243.036 172.188 242.244 172.188C241.466 172.188 240.836 172.393 240.352 172.804C239.882 173.215 239.648 173.809 239.648 174.586C239.648 175.378 239.882 175.979 240.352 176.39C240.821 176.801 241.452 177.006 242.244 177.006ZM244.048 172.474L243.498 170.912H248.03V172.298L244.048 172.474ZM250.155 182V166.16H252.003V182H250.155ZM260.004 182.264C258.977 182.264 258.053 182.029 257.232 181.56C256.41 181.076 255.765 180.401 255.296 179.536C254.826 178.656 254.592 177.637 254.592 176.478C254.592 175.29 254.826 174.263 255.296 173.398C255.78 172.518 256.432 171.843 257.254 171.374C258.09 170.89 259.021 170.648 260.048 170.648C261.104 170.648 262.035 170.89 262.842 171.374C263.663 171.843 264.308 172.518 264.778 173.398C265.262 174.263 265.504 175.283 265.504 176.456C265.504 177.629 265.262 178.656 264.778 179.536C264.294 180.401 263.641 181.076 262.82 181.56C261.998 182.029 261.06 182.264 260.004 182.264ZM260.026 180.68C260.656 180.68 261.243 180.526 261.786 180.218C262.328 179.895 262.768 179.419 263.106 178.788C263.443 178.157 263.612 177.38 263.612 176.456C263.612 175.517 263.443 174.74 263.106 174.124C262.783 173.493 262.35 173.024 261.808 172.716C261.28 172.393 260.693 172.232 260.048 172.232C259.432 172.232 258.845 172.393 258.288 172.716C257.745 173.024 257.305 173.493 256.968 174.124C256.645 174.74 256.484 175.517 256.484 176.456C256.484 177.38 256.645 178.157 256.968 178.788C257.305 179.419 257.738 179.895 258.266 180.218C258.808 180.526 259.395 180.68 260.026 180.68ZM272.021 182C271.361 182 270.789 181.897 270.305 181.692C269.821 181.487 269.447 181.142 269.183 180.658C268.934 180.159 268.809 179.492 268.809 178.656V172.474H266.873V170.912H268.809L269.051 168.228H270.657V170.912H273.869V172.474H270.657V178.656C270.657 179.345 270.796 179.815 271.075 180.064C271.354 180.299 271.845 180.416 272.549 180.416H273.737V182H272.021ZM282.124 186.84V170.912H283.796L283.95 172.716C284.185 172.364 284.485 172.034 284.852 171.726C285.219 171.403 285.659 171.147 286.172 170.956C286.685 170.751 287.272 170.648 287.932 170.648C289.017 170.648 289.956 170.905 290.748 171.418C291.555 171.931 292.178 172.628 292.618 173.508C293.073 174.373 293.3 175.363 293.3 176.478C293.3 177.593 293.073 178.59 292.618 179.47C292.178 180.335 291.555 181.017 290.748 181.516C289.941 182.015 288.995 182.264 287.91 182.264C287.015 182.264 286.223 182.081 285.534 181.714C284.859 181.347 284.339 180.834 283.972 180.174V186.84H282.124ZM287.712 180.658C288.431 180.658 289.069 180.482 289.626 180.13C290.183 179.778 290.616 179.294 290.924 178.678C291.247 178.047 291.408 177.307 291.408 176.456C291.408 175.62 291.247 174.887 290.924 174.256C290.616 173.625 290.183 173.134 289.626 172.782C289.069 172.43 288.431 172.254 287.712 172.254C286.979 172.254 286.333 172.43 285.776 172.782C285.219 173.134 284.786 173.625 284.478 174.256C284.17 174.887 284.016 175.62 284.016 176.456C284.016 177.307 284.17 178.047 284.478 178.678C284.786 179.294 285.219 179.778 285.776 180.13C286.333 180.482 286.979 180.658 287.712 180.658ZM300.757 182.264C299.716 182.264 298.792 182.022 297.985 181.538C297.193 181.054 296.57 180.379 296.115 179.514C295.661 178.634 295.433 177.615 295.433 176.456C295.433 175.283 295.653 174.263 296.093 173.398C296.548 172.533 297.179 171.858 297.985 171.374C298.807 170.89 299.745 170.648 300.801 170.648C301.887 170.648 302.803 170.89 303.551 171.374C304.314 171.858 304.893 172.496 305.289 173.288C305.7 174.065 305.905 174.923 305.905 175.862C305.905 176.009 305.905 176.163 305.905 176.324C305.905 176.485 305.898 176.669 305.883 176.874H296.819V175.444H304.101C304.057 174.432 303.72 173.64 303.089 173.068C302.473 172.496 301.696 172.21 300.757 172.21C300.127 172.21 299.54 172.357 298.997 172.65C298.469 172.929 298.044 173.347 297.721 173.904C297.399 174.447 297.237 175.129 297.237 175.95V176.566C297.237 177.475 297.399 178.238 297.721 178.854C298.059 179.47 298.491 179.932 299.019 180.24C299.562 180.548 300.141 180.702 300.757 180.702C301.535 180.702 302.173 180.533 302.671 180.196C303.185 179.844 303.551 179.375 303.771 178.788H305.597C305.421 179.448 305.113 180.042 304.673 180.57C304.233 181.098 303.683 181.516 303.023 181.824C302.378 182.117 301.623 182.264 300.757 182.264ZM308.399 182V170.912H310.071L310.203 173.024C310.453 172.525 310.768 172.1 311.149 171.748C311.545 171.396 312.015 171.125 312.557 170.934C313.115 170.743 313.745 170.648 314.449 170.648V172.584H313.767C313.298 172.584 312.851 172.65 312.425 172.782C312 172.899 311.619 173.097 311.281 173.376C310.959 173.655 310.702 174.036 310.511 174.52C310.335 174.989 310.247 175.576 310.247 176.28V182H308.399ZM317.158 182V169.196C317.158 168.492 317.275 167.92 317.51 167.48C317.745 167.025 318.089 166.695 318.544 166.49C319.013 166.27 319.585 166.16 320.26 166.16H321.514V167.744H320.546C320.003 167.744 319.607 167.854 319.358 168.074C319.123 168.294 319.006 168.683 319.006 169.24V182H317.158ZM315.464 172.474V170.912H321.8V172.474H315.464ZM328.539 182.264C327.512 182.264 326.588 182.029 325.767 181.56C324.945 181.076 324.3 180.401 323.831 179.536C323.361 178.656 323.127 177.637 323.127 176.478C323.127 175.29 323.361 174.263 323.831 173.398C324.315 172.518 324.967 171.843 325.789 171.374C326.625 170.89 327.556 170.648 328.583 170.648C329.639 170.648 330.57 170.89 331.377 171.374C332.198 171.843 332.843 172.518 333.313 173.398C333.797 174.263 334.039 175.283 334.039 176.456C334.039 177.629 333.797 178.656 333.313 179.536C332.829 180.401 332.176 181.076 331.355 181.56C330.533 182.029 329.595 182.264 328.539 182.264ZM328.561 180.68C329.191 180.68 329.778 180.526 330.321 180.218C330.863 179.895 331.303 179.419 331.641 178.788C331.978 178.157 332.147 177.38 332.147 176.456C332.147 175.517 331.978 174.74 331.641 174.124C331.318 173.493 330.885 173.024 330.343 172.716C329.815 172.393 329.228 172.232 328.583 172.232C327.967 172.232 327.38 172.393 326.823 172.716C326.28 173.024 325.84 173.493 325.503 174.124C325.18 174.74 325.019 175.517 325.019 176.456C325.019 177.38 325.18 178.157 325.503 178.788C325.84 179.419 326.273 179.895 326.801 180.218C327.343 180.526 327.93 180.68 328.561 180.68ZM336.63 182V170.912H338.302L338.434 173.024C338.683 172.525 338.999 172.1 339.38 171.748C339.776 171.396 340.245 171.125 340.788 170.934C341.345 170.743 341.976 170.648 342.68 170.648V172.584H341.998C341.529 172.584 341.081 172.65 340.656 172.782C340.231 172.899 339.849 173.097 339.512 173.376C339.189 173.655 338.933 174.036 338.742 174.52C338.566 174.989 338.478 175.576 338.478 176.28V182H336.63ZM344.772 182V170.912H346.444L346.554 172.496C346.906 171.924 347.376 171.477 347.962 171.154C348.564 170.817 349.216 170.648 349.92 170.648C350.492 170.648 351.006 170.729 351.46 170.89C351.93 171.037 352.34 171.271 352.692 171.594C353.044 171.902 353.33 172.298 353.55 172.782C353.932 172.107 354.452 171.587 355.112 171.22C355.787 170.839 356.506 170.648 357.268 170.648C358.119 170.648 358.86 170.824 359.49 171.176C360.136 171.513 360.627 172.034 360.964 172.738C361.316 173.427 361.492 174.307 361.492 175.378V182H359.666V175.576C359.666 174.461 359.439 173.625 358.984 173.068C358.53 172.511 357.892 172.232 357.07 172.232C356.498 172.232 355.985 172.386 355.53 172.694C355.076 172.987 354.716 173.42 354.452 173.992C354.188 174.564 354.056 175.268 354.056 176.104V182H352.208V175.576C352.208 174.461 351.981 173.625 351.526 173.068C351.072 172.511 350.426 172.232 349.59 172.232C349.033 172.232 348.527 172.386 348.072 172.694C347.632 172.987 347.28 173.42 347.016 173.992C346.752 174.564 346.62 175.268 346.62 176.104V182H344.772ZM367.974 182.264C367.08 182.264 366.332 182.11 365.73 181.802C365.129 181.479 364.682 181.061 364.388 180.548C364.095 180.02 363.948 179.448 363.948 178.832C363.948 178.084 364.139 177.453 364.52 176.94C364.916 176.412 365.466 176.016 366.17 175.752C366.889 175.473 367.732 175.334 368.7 175.334H371.626C371.626 174.645 371.516 174.073 371.296 173.618C371.091 173.149 370.783 172.797 370.372 172.562C369.976 172.327 369.478 172.21 368.876 172.21C368.172 172.21 367.564 172.386 367.05 172.738C366.537 173.09 366.222 173.611 366.104 174.3H364.212C364.3 173.508 364.564 172.848 365.004 172.32C365.459 171.777 366.031 171.367 366.72 171.088C367.41 170.795 368.128 170.648 368.876 170.648C369.903 170.648 370.754 170.839 371.428 171.22C372.118 171.587 372.631 172.107 372.968 172.782C373.306 173.442 373.474 174.227 373.474 175.136V182H371.824L371.714 180.042C371.568 180.35 371.377 180.643 371.142 180.922C370.922 181.186 370.658 181.421 370.35 181.626C370.042 181.817 369.69 181.971 369.294 182.088C368.913 182.205 368.473 182.264 367.974 182.264ZM368.26 180.702C368.774 180.702 369.236 180.599 369.646 180.394C370.072 180.174 370.431 179.881 370.724 179.514C371.018 179.133 371.238 178.715 371.384 178.26C371.546 177.805 371.626 177.329 371.626 176.83V176.764H368.854C368.136 176.764 367.556 176.852 367.116 177.028C366.676 177.189 366.361 177.424 366.17 177.732C365.98 178.025 365.884 178.363 365.884 178.744C365.884 179.14 365.972 179.485 366.148 179.778C366.339 180.071 366.61 180.299 366.962 180.46C367.329 180.621 367.762 180.702 368.26 180.702ZM376.333 182V170.912H378.005L378.093 172.848C378.445 172.159 378.944 171.623 379.589 171.242C380.249 170.846 380.997 170.648 381.833 170.648C382.698 170.648 383.446 170.824 384.077 171.176C384.708 171.513 385.199 172.034 385.551 172.738C385.903 173.427 386.079 174.307 386.079 175.378V182H384.231V175.576C384.231 174.461 383.982 173.625 383.483 173.068C382.999 172.511 382.31 172.232 381.415 172.232C380.799 172.232 380.249 172.386 379.765 172.694C379.281 172.987 378.892 173.42 378.599 173.992C378.32 174.549 378.181 175.246 378.181 176.082V182H376.333ZM393.96 182.264C392.918 182.264 391.98 182.022 391.144 181.538C390.322 181.054 389.677 180.379 389.208 179.514C388.738 178.634 388.504 177.622 388.504 176.478C388.504 175.305 388.738 174.285 389.208 173.42C389.677 172.555 390.322 171.88 391.144 171.396C391.98 170.897 392.918 170.648 393.96 170.648C395.28 170.648 396.38 170.993 397.26 171.682C398.14 172.357 398.697 173.266 398.932 174.41H397.04C396.893 173.721 396.534 173.185 395.962 172.804C395.39 172.423 394.715 172.232 393.938 172.232C393.307 172.232 392.72 172.393 392.178 172.716C391.635 173.024 391.202 173.493 390.88 174.124C390.557 174.755 390.396 175.532 390.396 176.456C390.396 177.145 390.491 177.761 390.682 178.304C390.872 178.832 391.129 179.272 391.452 179.624C391.774 179.976 392.148 180.247 392.574 180.438C393.014 180.614 393.468 180.702 393.938 180.702C394.466 180.702 394.942 180.621 395.368 180.46C395.793 180.284 396.152 180.027 396.446 179.69C396.739 179.353 396.937 178.957 397.04 178.502H398.932C398.697 179.617 398.132 180.526 397.238 181.23C396.358 181.919 395.265 182.264 393.96 182.264ZM406.418 182.264C405.376 182.264 404.452 182.022 403.646 181.538C402.854 181.054 402.23 180.379 401.776 179.514C401.321 178.634 401.094 177.615 401.094 176.456C401.094 175.283 401.314 174.263 401.754 173.398C402.208 172.533 402.839 171.858 403.646 171.374C404.467 170.89 405.406 170.648 406.462 170.648C407.547 170.648 408.464 170.89 409.212 171.374C409.974 171.858 410.554 172.496 410.95 173.288C411.36 174.065 411.566 174.923 411.566 175.862C411.566 176.009 411.566 176.163 411.566 176.324C411.566 176.485 411.558 176.669 411.544 176.874H402.48V175.444H409.762C409.718 174.432 409.38 173.64 408.75 173.068C408.134 172.496 407.356 172.21 406.418 172.21C405.787 172.21 405.2 172.357 404.658 172.65C404.13 172.929 403.704 173.347 403.382 173.904C403.059 174.447 402.898 175.129 402.898 175.95V176.566C402.898 177.475 403.059 178.238 403.382 178.854C403.719 179.47 404.152 179.932 404.68 180.24C405.222 180.548 405.802 180.702 406.418 180.702C407.195 180.702 407.833 180.533 408.332 180.196C408.845 179.844 409.212 179.375 409.432 178.788H411.258C411.082 179.448 410.774 180.042 410.334 180.57C409.894 181.098 409.344 181.516 408.684 181.824C408.038 182.117 407.283 182.264 406.418 182.264ZM423.511 182.264C422.617 182.264 421.869 182.11 421.267 181.802C420.666 181.479 420.219 181.061 419.925 180.548C419.632 180.02 419.485 179.448 419.485 178.832C419.485 178.084 419.676 177.453 420.057 176.94C420.453 176.412 421.003 176.016 421.707 175.752C422.426 175.473 423.269 175.334 424.237 175.334H427.163C427.163 174.645 427.053 174.073 426.833 173.618C426.628 173.149 426.32 172.797 425.909 172.562C425.513 172.327 425.015 172.21 424.413 172.21C423.709 172.21 423.101 172.386 422.587 172.738C422.074 173.09 421.759 173.611 421.641 174.3H419.749C419.837 173.508 420.101 172.848 420.541 172.32C420.996 171.777 421.568 171.367 422.257 171.088C422.947 170.795 423.665 170.648 424.413 170.648C425.44 170.648 426.291 170.839 426.965 171.22C427.655 171.587 428.168 172.107 428.505 172.782C428.843 173.442 429.011 174.227 429.011 175.136V182H427.361L427.251 180.042C427.105 180.35 426.914 180.643 426.679 180.922C426.459 181.186 426.195 181.421 425.887 181.626C425.579 181.817 425.227 181.971 424.831 182.088C424.45 182.205 424.01 182.264 423.511 182.264ZM423.797 180.702C424.311 180.702 424.773 180.599 425.183 180.394C425.609 180.174 425.968 179.881 426.261 179.514C426.555 179.133 426.775 178.715 426.921 178.26C427.083 177.805 427.163 177.329 427.163 176.83V176.764H424.391C423.673 176.764 423.093 176.852 422.653 177.028C422.213 177.189 421.898 177.424 421.707 177.732C421.517 178.025 421.421 178.363 421.421 178.744C421.421 179.14 421.509 179.485 421.685 179.778C421.876 180.071 422.147 180.299 422.499 180.46C422.866 180.621 423.299 180.702 423.797 180.702ZM431.87 182V170.912H433.542L433.63 172.848C433.982 172.159 434.481 171.623 435.126 171.242C435.786 170.846 436.534 170.648 437.37 170.648C438.235 170.648 438.983 170.824 439.614 171.176C440.245 171.513 440.736 172.034 441.088 172.738C441.44 173.427 441.616 174.307 441.616 175.378V182H439.768V175.576C439.768 174.461 439.519 173.625 439.02 173.068C438.536 172.511 437.847 172.232 436.952 172.232C436.336 172.232 435.786 172.386 435.302 172.694C434.818 172.987 434.429 173.42 434.136 173.992C433.857 174.549 433.718 175.246 433.718 176.082V182H431.87ZM448.859 182C448.199 182 447.627 181.897 447.143 181.692C446.659 181.487 446.285 181.142 446.021 180.658C445.772 180.159 445.647 179.492 445.647 178.656V172.474H443.711V170.912H445.647L445.889 168.228H447.495V170.912H450.707V172.474H447.495V178.656C447.495 179.345 447.634 179.815 447.913 180.064C448.192 180.299 448.683 180.416 449.387 180.416H450.575V182H448.859ZM453.294 182V170.912H455.142V182H453.294ZM454.218 168.558C453.851 168.558 453.543 168.441 453.294 168.206C453.059 167.957 452.942 167.649 452.942 167.282C452.942 166.915 453.059 166.622 453.294 166.402C453.543 166.167 453.851 166.05 454.218 166.05C454.57 166.05 454.871 166.167 455.12 166.402C455.369 166.622 455.494 166.915 455.494 167.282C455.494 167.649 455.369 167.957 455.12 168.206C454.871 168.441 454.57 168.558 454.218 168.558ZM458.447 176.28V174.718H467.159V176.28H458.447ZM470.306 186.84V170.912H471.978L472.132 172.716C472.366 172.364 472.667 172.034 473.034 171.726C473.4 171.403 473.84 171.147 474.354 170.956C474.867 170.751 475.454 170.648 476.114 170.648C477.199 170.648 478.138 170.905 478.93 171.418C479.736 171.931 480.36 172.628 480.8 173.508C481.254 174.373 481.482 175.363 481.482 176.478C481.482 177.593 481.254 178.59 480.8 179.47C480.36 180.335 479.736 181.017 478.93 181.516C478.123 182.015 477.177 182.264 476.092 182.264C475.197 182.264 474.405 182.081 473.716 181.714C473.041 181.347 472.52 180.834 472.154 180.174V186.84H470.306ZM475.894 180.658C476.612 180.658 477.25 180.482 477.808 180.13C478.365 179.778 478.798 179.294 479.106 178.678C479.428 178.047 479.59 177.307 479.59 176.456C479.59 175.62 479.428 174.887 479.106 174.256C478.798 173.625 478.365 173.134 477.808 172.782C477.25 172.43 476.612 172.254 475.894 172.254C475.16 172.254 474.515 172.43 473.958 172.782C473.4 173.134 472.968 173.625 472.66 174.256C472.352 174.887 472.198 175.62 472.198 176.456C472.198 177.307 472.352 178.047 472.66 178.678C472.968 179.294 473.4 179.778 473.958 180.13C474.515 180.482 475.16 180.658 475.894 180.658ZM487.685 182.264C486.79 182.264 486.042 182.11 485.441 181.802C484.84 181.479 484.392 181.061 484.099 180.548C483.806 180.02 483.659 179.448 483.659 178.832C483.659 178.084 483.85 177.453 484.231 176.94C484.627 176.412 485.177 176.016 485.881 175.752C486.6 175.473 487.443 175.334 488.411 175.334H491.337C491.337 174.645 491.227 174.073 491.007 173.618C490.802 173.149 490.494 172.797 490.083 172.562C489.687 172.327 489.188 172.21 488.587 172.21C487.883 172.21 487.274 172.386 486.761 172.738C486.248 173.09 485.932 173.611 485.815 174.3H483.923C484.011 173.508 484.275 172.848 484.715 172.32C485.17 171.777 485.742 171.367 486.431 171.088C487.12 170.795 487.839 170.648 488.587 170.648C489.614 170.648 490.464 170.839 491.139 171.22C491.828 171.587 492.342 172.107 492.679 172.782C493.016 173.442 493.185 174.227 493.185 175.136V182H491.535L491.425 180.042C491.278 180.35 491.088 180.643 490.853 180.922C490.633 181.186 490.369 181.421 490.061 181.626C489.753 181.817 489.401 181.971 489.005 182.088C488.624 182.205 488.184 182.264 487.685 182.264ZM487.971 180.702C488.484 180.702 488.946 180.599 489.357 180.394C489.782 180.174 490.142 179.881 490.435 179.514C490.728 179.133 490.948 178.715 491.095 178.26C491.256 177.805 491.337 177.329 491.337 176.83V176.764H488.565C487.846 176.764 487.267 176.852 486.827 177.028C486.387 177.189 486.072 177.424 485.881 177.732C485.69 178.025 485.595 178.363 485.595 178.744C485.595 179.14 485.683 179.485 485.859 179.778C486.05 180.071 486.321 180.299 486.673 180.46C487.04 180.621 487.472 180.702 487.971 180.702ZM500.099 182C499.439 182 498.867 181.897 498.383 181.692C497.899 181.487 497.525 181.142 497.261 180.658C497.012 180.159 496.887 179.492 496.887 178.656V172.474H494.951V170.912H496.887L497.129 168.228H498.735V170.912H501.947V172.474H498.735V178.656C498.735 179.345 498.874 179.815 499.153 180.064C499.432 180.299 499.923 180.416 500.627 180.416H501.815V182H500.099ZM508.714 182C508.054 182 507.482 181.897 506.998 181.692C506.514 181.487 506.14 181.142 505.876 180.658C505.627 180.159 505.502 179.492 505.502 178.656V172.474H503.566V170.912H505.502L505.744 168.228H507.35V170.912H510.562V172.474H507.35V178.656C507.35 179.345 507.49 179.815 507.768 180.064C508.047 180.299 508.538 180.416 509.242 180.416H510.43V182H508.714ZM517.535 182.264C516.493 182.264 515.569 182.022 514.763 181.538C513.971 181.054 513.347 180.379 512.893 179.514C512.438 178.634 512.211 177.615 512.211 176.456C512.211 175.283 512.431 174.263 512.871 173.398C513.325 172.533 513.956 171.858 514.763 171.374C515.584 170.89 516.523 170.648 517.579 170.648C518.664 170.648 519.581 170.89 520.329 171.374C521.091 171.858 521.671 172.496 522.067 173.288C522.477 174.065 522.683 174.923 522.683 175.862C522.683 176.009 522.683 176.163 522.683 176.324C522.683 176.485 522.675 176.669 522.661 176.874H513.597V175.444H520.879C520.835 174.432 520.497 173.64 519.867 173.068C519.251 172.496 518.473 172.21 517.535 172.21C516.904 172.21 516.317 172.357 515.775 172.65C515.247 172.929 514.821 173.347 514.499 173.904C514.176 174.447 514.015 175.129 514.015 175.95V176.566C514.015 177.475 514.176 178.238 514.499 178.854C514.836 179.47 515.269 179.932 515.797 180.24C516.339 180.548 516.919 180.702 517.535 180.702C518.312 180.702 518.95 180.533 519.449 180.196C519.962 179.844 520.329 179.375 520.549 178.788H522.375C522.199 179.448 521.891 180.042 521.451 180.57C521.011 181.098 520.461 181.516 519.801 181.824C519.155 182.117 518.4 182.264 517.535 182.264ZM525.177 182V170.912H526.849L526.981 173.024C527.23 172.525 527.545 172.1 527.927 171.748C528.323 171.396 528.792 171.125 529.335 170.934C529.892 170.743 530.523 170.648 531.227 170.648V172.584H530.545C530.075 172.584 529.628 172.65 529.203 172.782C528.777 172.899 528.396 173.097 528.059 173.376C527.736 173.655 527.479 174.036 527.289 174.52C527.113 174.989 527.025 175.576 527.025 176.28V182H525.177ZM533.319 182V170.912H534.991L535.079 172.848C535.431 172.159 535.93 171.623 536.575 171.242C537.235 170.846 537.983 170.648 538.819 170.648C539.685 170.648 540.433 170.824 541.063 171.176C541.694 171.513 542.185 172.034 542.537 172.738C542.889 173.427 543.065 174.307 543.065 175.378V182H541.217V175.576C541.217 174.461 540.968 173.625 540.469 173.068C539.985 172.511 539.296 172.232 538.401 172.232C537.785 172.232 537.235 172.386 536.751 172.694C536.267 172.987 535.879 173.42 535.585 173.992C535.307 174.549 535.167 175.246 535.167 176.082V182H533.319ZM556.68 182.264C555.609 182.264 554.671 182.015 553.864 181.516C553.057 181.003 552.434 180.306 551.994 179.426C551.554 178.546 551.334 177.549 551.334 176.434C551.334 175.319 551.554 174.329 551.994 173.464C552.434 172.584 553.057 171.895 553.864 171.396C554.685 170.897 555.631 170.648 556.702 170.648C557.611 170.648 558.403 170.831 559.078 171.198C559.767 171.565 560.295 172.078 560.662 172.738V166.16H562.51V182H560.838L560.684 180.174C560.449 180.541 560.149 180.885 559.782 181.208C559.415 181.516 558.975 181.773 558.462 181.978C557.949 182.169 557.355 182.264 556.68 182.264ZM556.9 180.658C557.633 180.658 558.279 180.482 558.836 180.13C559.393 179.778 559.826 179.294 560.134 178.678C560.442 178.047 560.596 177.307 560.596 176.456C560.596 175.62 560.442 174.887 560.134 174.256C559.826 173.625 559.393 173.134 558.836 172.782C558.279 172.43 557.633 172.254 556.9 172.254C556.181 172.254 555.543 172.43 554.986 172.782C554.429 173.134 553.996 173.625 553.688 174.256C553.38 174.887 553.226 175.62 553.226 176.456C553.226 177.307 553.38 178.047 553.688 178.678C553.996 179.294 554.429 179.778 554.986 180.13C555.543 180.482 556.181 180.658 556.9 180.658ZM570.451 182.264C569.409 182.264 568.485 182.022 567.679 181.538C566.887 181.054 566.263 180.379 565.809 179.514C565.354 178.634 565.127 177.615 565.127 176.456C565.127 175.283 565.347 174.263 565.787 173.398C566.241 172.533 566.872 171.858 567.679 171.374C568.5 170.89 569.439 170.648 570.495 170.648C571.58 170.648 572.497 170.89 573.245 171.374C574.007 171.858 574.587 172.496 574.983 173.288C575.393 174.065 575.599 174.923 575.599 175.862C575.599 176.009 575.599 176.163 575.599 176.324C575.599 176.485 575.591 176.669 575.577 176.874H566.513V175.444H573.795C573.751 174.432 573.413 173.64 572.783 173.068C572.167 172.496 571.389 172.21 570.451 172.21C569.82 172.21 569.233 172.357 568.691 172.65C568.163 172.929 567.737 173.347 567.415 173.904C567.092 174.447 566.931 175.129 566.931 175.95V176.566C566.931 177.475 567.092 178.238 567.415 178.854C567.752 179.47 568.185 179.932 568.713 180.24C569.255 180.548 569.835 180.702 570.451 180.702C571.228 180.702 571.866 180.533 572.365 180.196C572.878 179.844 573.245 179.375 573.465 178.788H575.291C575.115 179.448 574.807 180.042 574.367 180.57C573.927 181.098 573.377 181.516 572.717 181.824C572.071 182.117 571.316 182.264 570.451 182.264ZM582.084 182C581.424 182 580.852 181.897 580.368 181.692C579.884 181.487 579.51 181.142 579.246 180.658C578.996 180.159 578.872 179.492 578.872 178.656V172.474H576.936V170.912H578.872L579.114 168.228H580.72V170.912H583.932V172.474H580.72V178.656C580.72 179.345 580.859 179.815 581.138 180.064C581.416 180.299 581.908 180.416 582.612 180.416H583.8V182H582.084ZM590.904 182.264C589.863 182.264 588.939 182.022 588.132 181.538C587.34 181.054 586.717 180.379 586.262 179.514C585.807 178.634 585.58 177.615 585.58 176.456C585.58 175.283 585.8 174.263 586.24 173.398C586.695 172.533 587.325 171.858 588.132 171.374C588.953 170.89 589.892 170.648 590.948 170.648C592.033 170.648 592.95 170.89 593.698 171.374C594.461 171.858 595.04 172.496 595.436 173.288C595.847 174.065 596.052 174.923 596.052 175.862C596.052 176.009 596.052 176.163 596.052 176.324C596.052 176.485 596.045 176.669 596.03 176.874H586.966V175.444H594.248C594.204 174.432 593.867 173.64 593.236 173.068C592.62 172.496 591.843 172.21 590.904 172.21C590.273 172.21 589.687 172.357 589.144 172.65C588.616 172.929 588.191 173.347 587.868 173.904C587.545 174.447 587.384 175.129 587.384 175.95V176.566C587.384 177.475 587.545 178.238 587.868 178.854C588.205 179.47 588.638 179.932 589.166 180.24C589.709 180.548 590.288 180.702 590.904 180.702C591.681 180.702 592.319 180.533 592.818 180.196C593.331 179.844 593.698 179.375 593.918 178.788H595.744C595.568 179.448 595.26 180.042 594.82 180.57C594.38 181.098 593.83 181.516 593.17 181.824C592.525 182.117 591.769 182.264 590.904 182.264ZM603.54 182.264C602.499 182.264 601.56 182.022 600.724 181.538C599.903 181.054 599.257 180.379 598.788 179.514C598.319 178.634 598.084 177.622 598.084 176.478C598.084 175.305 598.319 174.285 598.788 173.42C599.257 172.555 599.903 171.88 600.724 171.396C601.56 170.897 602.499 170.648 603.54 170.648C604.86 170.648 605.96 170.993 606.84 171.682C607.72 172.357 608.277 173.266 608.512 174.41H606.62C606.473 173.721 606.114 173.185 605.542 172.804C604.97 172.423 604.295 172.232 603.518 172.232C602.887 172.232 602.301 172.393 601.758 172.716C601.215 173.024 600.783 173.493 600.46 174.124C600.137 174.755 599.976 175.532 599.976 176.456C599.976 177.145 600.071 177.761 600.262 178.304C600.453 178.832 600.709 179.272 601.032 179.624C601.355 179.976 601.729 180.247 602.154 180.438C602.594 180.614 603.049 180.702 603.518 180.702C604.046 180.702 604.523 180.621 604.948 180.46C605.373 180.284 605.733 180.027 606.026 179.69C606.319 179.353 606.517 178.957 606.62 178.502H608.512C608.277 179.617 607.713 180.526 606.818 181.23C605.938 181.919 604.845 182.264 603.54 182.264ZM615.191 182C614.531 182 613.959 181.897 613.475 181.692C612.991 181.487 612.617 181.142 612.353 180.658C612.104 180.159 611.979 179.492 611.979 178.656V172.474H610.043V170.912H611.979L612.221 168.228H613.827V170.912H617.039V172.474H613.827V178.656C613.827 179.345 613.966 179.815 614.245 180.064C614.524 180.299 615.015 180.416 615.719 180.416H616.907V182H615.191ZM619.626 182V170.912H621.474V182H619.626ZM620.55 168.558C620.183 168.558 619.875 168.441 619.626 168.206C619.391 167.957 619.274 167.649 619.274 167.282C619.274 166.915 619.391 166.622 619.626 166.402C619.875 166.167 620.183 166.05 620.55 166.05C620.902 166.05 621.203 166.167 621.452 166.402C621.701 166.622 621.826 166.915 621.826 167.282C621.826 167.649 621.701 167.957 621.452 168.206C621.203 168.441 620.902 168.558 620.55 168.558ZM629.685 182.264C628.659 182.264 627.735 182.029 626.913 181.56C626.092 181.076 625.447 180.401 624.977 179.536C624.508 178.656 624.273 177.637 624.273 176.478C624.273 175.29 624.508 174.263 624.977 173.398C625.461 172.518 626.114 171.843 626.935 171.374C627.771 170.89 628.703 170.648 629.729 170.648C630.785 170.648 631.717 170.89 632.523 171.374C633.345 171.843 633.99 172.518 634.459 173.398C634.943 174.263 635.185 175.283 635.185 176.456C635.185 177.629 634.943 178.656 634.459 179.536C633.975 180.401 633.323 181.076 632.501 181.56C631.68 182.029 630.741 182.264 629.685 182.264ZM629.707 180.68C630.338 180.68 630.925 180.526 631.467 180.218C632.01 179.895 632.45 179.419 632.787 178.788C633.125 178.157 633.293 177.38 633.293 176.456C633.293 175.517 633.125 174.74 632.787 174.124C632.465 173.493 632.032 173.024 631.489 172.716C630.961 172.393 630.375 172.232 629.729 172.232C629.113 172.232 628.527 172.393 627.969 172.716C627.427 173.024 626.987 173.493 626.649 174.124C626.327 174.74 626.165 175.517 626.165 176.456C626.165 177.38 626.327 178.157 626.649 178.788C626.987 179.419 627.419 179.895 627.947 180.218C628.49 180.526 629.077 180.68 629.707 180.68ZM637.776 182V170.912H639.448L639.536 172.848C639.888 172.159 640.387 171.623 641.032 171.242C641.692 170.846 642.44 170.648 643.276 170.648C644.142 170.648 644.89 170.824 645.52 171.176C646.151 171.513 646.642 172.034 646.994 172.738C647.346 173.427 647.522 174.307 647.522 175.378V182H645.674V175.576C645.674 174.461 645.425 173.625 644.926 173.068C644.442 172.511 643.753 172.232 642.858 172.232C642.242 172.232 641.692 172.386 641.208 172.694C640.724 172.987 640.336 173.42 640.042 173.992C639.764 174.549 639.624 175.246 639.624 176.082V182H637.776Z" fill="#26CD94"/>
<path d="M67.723 219L64.459 207.1H65.989L68.556 217.3L71.463 207.1H73.061L75.9 217.334L78.501 207.1H80.031L76.699 219H75.067L72.228 209.157L69.321 219H67.723ZM81.7781 219V210.432H83.2061V219H81.7781ZM82.4921 208.613C82.2088 208.613 81.9708 208.522 81.7781 208.341C81.5968 208.148 81.5061 207.91 81.5061 207.627C81.5061 207.344 81.5968 207.117 81.7781 206.947C81.9708 206.766 82.2088 206.675 82.4921 206.675C82.7641 206.675 82.9965 206.766 83.1891 206.947C83.3818 207.117 83.4781 207.344 83.4781 207.627C83.4781 207.91 83.3818 208.148 83.1891 208.341C82.9965 208.522 82.7641 208.613 82.4921 208.613ZM89.0921 219C88.5821 219 88.1401 218.921 87.7661 218.762C87.3921 218.603 87.1031 218.337 86.8991 217.963C86.7065 217.578 86.6101 217.062 86.6101 216.416V211.639H85.1141V210.432H86.6101L86.7971 208.358H88.0381V210.432H90.5201V211.639H88.0381V216.416C88.0381 216.949 88.1458 217.311 88.3611 217.504C88.5765 217.685 88.9561 217.776 89.5001 217.776H90.4181V219H89.0921ZM92.3834 219V206.76H93.8114V211.877C94.0947 211.367 94.4914 210.965 95.0014 210.67C95.5227 210.375 96.0894 210.228 96.7014 210.228C97.3587 210.228 97.931 210.364 98.4184 210.636C98.9057 210.897 99.2797 211.299 99.5404 211.843C99.801 212.387 99.9314 213.073 99.9314 213.9V219H98.5204V214.053C98.5204 213.192 98.339 212.546 97.9764 212.115C97.6137 211.673 97.0867 211.452 96.3954 211.452C95.908 211.452 95.466 211.571 95.0694 211.809C94.684 212.047 94.378 212.387 94.1514 212.829C93.9247 213.271 93.8114 213.815 93.8114 214.461V219H92.3834ZM111.165 219.204C110.678 219.204 110.236 219.136 109.839 219C109.454 218.853 109.114 218.66 108.819 218.422C108.525 218.184 108.281 217.906 108.088 217.589L107.969 219H106.677V206.76H108.105V211.843C108.377 211.401 108.768 211.021 109.278 210.704C109.788 210.387 110.417 210.228 111.165 210.228C111.993 210.228 112.718 210.426 113.341 210.823C113.965 211.208 114.446 211.741 114.786 212.421C115.138 213.09 115.313 213.855 115.313 214.716C115.313 215.577 115.138 216.348 114.786 217.028C114.446 217.708 113.965 218.241 113.341 218.626C112.718 219.011 111.993 219.204 111.165 219.204ZM110.995 217.963C111.551 217.963 112.044 217.827 112.474 217.555C112.905 217.283 113.239 216.909 113.477 216.433C113.727 215.946 113.851 215.373 113.851 214.716C113.851 214.07 113.727 213.503 113.477 213.016C113.239 212.529 112.905 212.149 112.474 211.877C112.044 211.605 111.551 211.469 110.995 211.469C110.429 211.469 109.93 211.605 109.499 211.877C109.069 212.149 108.734 212.529 108.496 213.016C108.258 213.503 108.139 214.07 108.139 214.716C108.139 215.373 108.258 215.946 108.496 216.433C108.734 216.909 109.069 217.283 109.499 217.555C109.93 217.827 110.429 217.963 110.995 217.963ZM120.43 219.204C119.773 219.204 119.195 219.074 118.696 218.813C118.209 218.552 117.829 218.15 117.557 217.606C117.296 217.062 117.166 216.382 117.166 215.566V210.432H118.594V215.413C118.594 216.263 118.781 216.903 119.155 217.334C119.529 217.765 120.056 217.98 120.736 217.98C121.212 217.98 121.643 217.867 122.028 217.64C122.413 217.402 122.714 217.068 122.929 216.637C123.156 216.195 123.269 215.657 123.269 215.022V210.432H124.697V219H123.405L123.32 217.504C123.059 218.037 122.674 218.456 122.164 218.762C121.654 219.057 121.076 219.204 120.43 219.204ZM127.2 219V210.432H128.628V219H127.2ZM127.914 208.613C127.631 208.613 127.393 208.522 127.2 208.341C127.019 208.148 126.928 207.91 126.928 207.627C126.928 207.344 127.019 207.117 127.2 206.947C127.393 206.766 127.631 206.675 127.914 206.675C128.186 206.675 128.418 206.766 128.611 206.947C128.804 207.117 128.9 207.344 128.9 207.627C128.9 207.91 128.804 208.148 128.611 208.341C128.418 208.522 128.186 208.613 127.914 208.613ZM131.148 219V206.76H132.576V219H131.148ZM138.299 219C137.789 219 137.347 218.921 136.973 218.762C136.599 218.603 136.31 218.337 136.106 217.963C135.913 217.578 135.817 217.062 135.817 216.416V211.639H134.321V210.432H135.817L136.004 208.358H137.245V210.432H139.727V211.639H137.245V216.416C137.245 216.949 137.353 217.311 137.568 217.504C137.783 217.685 138.163 217.776 138.707 217.776H139.625V219H138.299ZM141.624 214.58V213.373H148.356V214.58H141.624ZM150.924 219V210.432H152.352V219H150.924ZM151.638 208.613C151.354 208.613 151.116 208.522 150.924 208.341C150.742 208.148 150.652 207.91 150.652 207.627C150.652 207.344 150.742 207.117 150.924 206.947C151.116 206.766 151.354 206.675 151.638 206.675C151.91 206.675 152.142 206.766 152.335 206.947C152.527 207.117 152.624 207.344 152.624 207.627C152.624 207.91 152.527 208.148 152.335 208.341C152.142 208.522 151.91 208.613 151.638 208.613ZM154.872 219V210.432H156.164L156.232 211.928C156.504 211.395 156.889 210.982 157.388 210.687C157.898 210.381 158.476 210.228 159.122 210.228C159.79 210.228 160.368 210.364 160.856 210.636C161.343 210.897 161.723 211.299 161.995 211.843C162.267 212.376 162.403 213.056 162.403 213.883V219H160.975V214.036C160.975 213.175 160.782 212.529 160.397 212.098C160.023 211.667 159.49 211.452 158.799 211.452C158.323 211.452 157.898 211.571 157.524 211.809C157.15 212.036 156.849 212.37 156.623 212.812C156.407 213.243 156.3 213.781 156.3 214.427V219H154.872ZM173.008 219.204C172.203 219.204 171.478 219.017 170.832 218.643C170.197 218.269 169.699 217.748 169.336 217.079C168.973 216.399 168.792 215.617 168.792 214.733C168.792 213.826 168.973 213.039 169.336 212.37C169.699 211.701 170.197 211.18 170.832 210.806C171.478 210.421 172.203 210.228 173.008 210.228C174.028 210.228 174.878 210.494 175.558 211.027C176.238 211.548 176.669 212.251 176.85 213.135H175.388C175.275 212.602 174.997 212.189 174.555 211.894C174.113 211.599 173.592 211.452 172.991 211.452C172.504 211.452 172.05 211.577 171.631 211.826C171.212 212.064 170.877 212.427 170.628 212.914C170.379 213.401 170.254 214.002 170.254 214.716C170.254 215.249 170.328 215.725 170.475 216.144C170.622 216.552 170.821 216.892 171.07 217.164C171.319 217.436 171.608 217.646 171.937 217.793C172.277 217.929 172.628 217.997 172.991 217.997C173.399 217.997 173.767 217.935 174.096 217.81C174.425 217.674 174.702 217.476 174.929 217.215C175.156 216.954 175.309 216.648 175.388 216.297H176.85C176.669 217.158 176.232 217.861 175.541 218.405C174.861 218.938 174.017 219.204 173.008 219.204ZM181.666 219.204C180.974 219.204 180.396 219.085 179.931 218.847C179.467 218.598 179.121 218.275 178.895 217.878C178.668 217.47 178.555 217.028 178.555 216.552C178.555 215.974 178.702 215.487 178.997 215.09C179.303 214.682 179.728 214.376 180.272 214.172C180.827 213.957 181.479 213.849 182.227 213.849H184.488C184.488 213.316 184.403 212.874 184.233 212.523C184.074 212.16 183.836 211.888 183.519 211.707C183.213 211.526 182.827 211.435 182.363 211.435C181.819 211.435 181.348 211.571 180.952 211.843C180.555 212.115 180.311 212.517 180.221 213.05H178.759C178.827 212.438 179.031 211.928 179.371 211.52C179.722 211.101 180.164 210.783 180.697 210.568C181.229 210.341 181.785 210.228 182.363 210.228C183.156 210.228 183.813 210.375 184.335 210.67C184.867 210.953 185.264 211.356 185.525 211.877C185.785 212.387 185.916 212.993 185.916 213.696V219H184.641L184.556 217.487C184.442 217.725 184.295 217.952 184.114 218.167C183.944 218.371 183.74 218.552 183.502 218.711C183.264 218.858 182.992 218.977 182.685 219.068C182.391 219.159 182.051 219.204 181.666 219.204ZM181.887 217.997C182.283 217.997 182.64 217.918 182.958 217.759C183.286 217.589 183.564 217.362 183.791 217.079C184.017 216.784 184.187 216.461 184.301 216.11C184.425 215.759 184.488 215.39 184.488 215.005V214.954H182.346C181.79 214.954 181.343 215.022 181.003 215.158C180.663 215.283 180.419 215.464 180.272 215.702C180.124 215.929 180.051 216.189 180.051 216.484C180.051 216.79 180.119 217.056 180.255 217.283C180.402 217.51 180.612 217.685 180.884 217.81C181.167 217.935 181.501 217.997 181.887 217.997ZM188.125 219V210.432H189.417L189.519 212.064C189.711 211.679 189.955 211.35 190.25 211.078C190.556 210.806 190.918 210.596 191.338 210.449C191.768 210.302 192.256 210.228 192.8 210.228V211.724H192.273C191.91 211.724 191.564 211.775 191.236 211.877C190.907 211.968 190.612 212.121 190.352 212.336C190.102 212.551 189.904 212.846 189.757 213.22C189.621 213.583 189.553 214.036 189.553 214.58V219H188.125ZM198.905 219.204C198.417 219.204 197.975 219.136 197.579 219C197.193 218.853 196.853 218.66 196.559 218.422C196.264 218.184 196.02 217.906 195.828 217.589L195.709 219H194.417V206.76H195.845V211.843C196.117 211.401 196.508 211.021 197.018 210.704C197.528 210.387 198.157 210.228 198.905 210.228C199.732 210.228 200.457 210.426 201.081 210.823C201.704 211.208 202.186 211.741 202.526 212.421C202.877 213.09 203.053 213.855 203.053 214.716C203.053 215.577 202.877 216.348 202.526 217.028C202.186 217.708 201.704 218.241 201.081 218.626C200.457 219.011 199.732 219.204 198.905 219.204ZM198.735 217.963C199.29 217.963 199.783 217.827 200.214 217.555C200.644 217.283 200.979 216.909 201.217 216.433C201.466 215.946 201.591 215.373 201.591 214.716C201.591 214.07 201.466 213.503 201.217 213.016C200.979 212.529 200.644 212.149 200.214 211.877C199.783 211.605 199.29 211.469 198.735 211.469C198.168 211.469 197.669 211.605 197.239 211.877C196.808 212.149 196.474 212.529 196.236 213.016C195.998 213.503 195.879 214.07 195.879 214.716C195.879 215.373 195.998 215.946 196.236 216.433C196.474 216.909 196.808 217.283 197.239 217.555C197.669 217.827 198.168 217.963 198.735 217.963ZM208.883 219.204C208.09 219.204 207.376 219.023 206.741 218.66C206.106 218.286 205.608 217.765 205.245 217.096C204.882 216.416 204.701 215.628 204.701 214.733C204.701 213.815 204.882 213.022 205.245 212.353C205.619 211.673 206.123 211.152 206.758 210.789C207.404 210.415 208.124 210.228 208.917 210.228C209.733 210.228 210.453 210.415 211.076 210.789C211.711 211.152 212.209 211.673 212.572 212.353C212.946 213.022 213.133 213.809 213.133 214.716C213.133 215.623 212.946 216.416 212.572 217.096C212.198 217.765 211.694 218.286 211.059 218.66C210.424 219.023 209.699 219.204 208.883 219.204ZM208.9 217.98C209.387 217.98 209.841 217.861 210.26 217.623C210.679 217.374 211.019 217.005 211.28 216.518C211.541 216.031 211.671 215.43 211.671 214.716C211.671 213.991 211.541 213.39 211.28 212.914C211.031 212.427 210.696 212.064 210.277 211.826C209.869 211.577 209.416 211.452 208.917 211.452C208.441 211.452 207.988 211.577 207.557 211.826C207.138 212.064 206.798 212.427 206.537 212.914C206.288 213.39 206.163 213.991 206.163 214.716C206.163 215.43 206.288 216.031 206.537 216.518C206.798 217.005 207.132 217.374 207.54 217.623C207.959 217.861 208.413 217.98 208.9 217.98ZM215.135 219V210.432H216.427L216.495 211.928C216.767 211.395 217.153 210.982 217.651 210.687C218.161 210.381 218.739 210.228 219.385 210.228C220.054 210.228 220.632 210.364 221.119 210.636C221.607 210.897 221.986 211.299 222.258 211.843C222.53 212.376 222.666 213.056 222.666 213.883V219H221.238V214.036C221.238 213.175 221.046 212.529 220.66 212.098C220.286 211.667 219.754 211.452 219.062 211.452C218.586 211.452 218.161 211.571 217.787 211.809C217.413 212.036 217.113 212.37 216.886 212.812C216.671 213.243 216.563 213.781 216.563 214.427V219H215.135ZM224.931 214.58V213.373H231.663V214.58H224.931ZM236.882 219.204C236.191 219.204 235.613 219.085 235.148 218.847C234.684 218.598 234.338 218.275 234.111 217.878C233.885 217.47 233.771 217.028 233.771 216.552C233.771 215.974 233.919 215.487 234.213 215.09C234.519 214.682 234.944 214.376 235.488 214.172C236.044 213.957 236.695 213.849 237.443 213.849H239.704C239.704 213.316 239.619 212.874 239.449 212.523C239.291 212.16 239.053 211.888 238.735 211.707C238.429 211.526 238.044 211.435 237.579 211.435C237.035 211.435 236.565 211.571 236.168 211.843C235.772 212.115 235.528 212.517 235.437 213.05H233.975C234.043 212.438 234.247 211.928 234.587 211.52C234.939 211.101 235.381 210.783 235.913 210.568C236.446 210.341 237.001 210.228 237.579 210.228C238.373 210.228 239.03 210.375 239.551 210.67C240.084 210.953 240.481 211.356 240.741 211.877C241.002 212.387 241.132 212.993 241.132 213.696V219H239.857L239.772 217.487C239.659 217.725 239.512 217.952 239.33 218.167C239.16 218.371 238.956 218.552 238.718 218.711C238.48 218.858 238.208 218.977 237.902 219.068C237.608 219.159 237.268 219.204 236.882 219.204ZM237.103 217.997C237.5 217.997 237.857 217.918 238.174 217.759C238.503 217.589 238.781 217.362 239.007 217.079C239.234 216.784 239.404 216.461 239.517 216.11C239.642 215.759 239.704 215.39 239.704 215.005V214.954H237.562C237.007 214.954 236.559 215.022 236.219 215.158C235.879 215.283 235.636 215.464 235.488 215.702C235.341 215.929 235.267 216.189 235.267 216.484C235.267 216.79 235.335 217.056 235.471 217.283C235.619 217.51 235.828 217.685 236.1 217.81C236.384 217.935 236.718 217.997 237.103 217.997ZM244.909 219L242.393 210.432H243.821L245.776 217.657H245.521L247.646 210.432H249.261L251.42 217.64L251.148 217.657L253.086 210.432H254.531L252.032 219H250.57L248.326 211.452H248.615L246.371 219H244.909ZM258.63 219.204C257.939 219.204 257.361 219.085 256.896 218.847C256.432 218.598 256.086 218.275 255.859 217.878C255.633 217.47 255.519 217.028 255.519 216.552C255.519 215.974 255.667 215.487 255.961 215.09C256.267 214.682 256.692 214.376 257.236 214.172C257.792 213.957 258.443 213.849 259.191 213.849H261.452C261.452 213.316 261.367 212.874 261.197 212.523C261.039 212.16 260.801 211.888 260.483 211.707C260.177 211.526 259.792 211.435 259.327 211.435C258.783 211.435 258.313 211.571 257.916 211.843C257.52 212.115 257.276 212.517 257.185 213.05H255.723C255.791 212.438 255.995 211.928 256.335 211.52C256.687 211.101 257.129 210.783 257.661 210.568C258.194 210.341 258.749 210.228 259.327 210.228C260.121 210.228 260.778 210.375 261.299 210.67C261.832 210.953 262.229 211.356 262.489 211.877C262.75 212.387 262.88 212.993 262.88 213.696V219H261.605L261.52 217.487C261.407 217.725 261.26 217.952 261.078 218.167C260.908 218.371 260.704 218.552 260.466 218.711C260.228 218.858 259.956 218.977 259.65 219.068C259.356 219.159 259.016 219.204 258.63 219.204ZM258.851 217.997C259.248 217.997 259.605 217.918 259.922 217.759C260.251 217.589 260.529 217.362 260.755 217.079C260.982 216.784 261.152 216.461 261.265 216.11C261.39 215.759 261.452 215.39 261.452 215.005V214.954H259.31C258.755 214.954 258.307 215.022 257.967 215.158C257.627 215.283 257.384 215.464 257.236 215.702C257.089 215.929 257.015 216.189 257.015 216.484C257.015 216.79 257.083 217.056 257.219 217.283C257.367 217.51 257.576 217.685 257.848 217.81C258.132 217.935 258.466 217.997 258.851 217.997ZM265.089 219V210.432H266.381L266.483 212.064C266.676 211.679 266.92 211.35 267.214 211.078C267.52 210.806 267.883 210.596 268.302 210.449C268.733 210.302 269.22 210.228 269.764 210.228V211.724H269.237C268.875 211.724 268.529 211.775 268.2 211.877C267.872 211.968 267.577 212.121 267.316 212.336C267.067 212.551 266.869 212.846 266.721 213.22C266.585 213.583 266.517 214.036 266.517 214.58V219H265.089ZM274.823 219.204C274.018 219.204 273.304 219.017 272.681 218.643C272.069 218.269 271.587 217.748 271.236 217.079C270.885 216.399 270.709 215.611 270.709 214.716C270.709 213.809 270.879 213.022 271.219 212.353C271.57 211.684 272.058 211.163 272.681 210.789C273.316 210.415 274.041 210.228 274.857 210.228C275.696 210.228 276.404 210.415 276.982 210.789C277.571 211.163 278.019 211.656 278.325 212.268C278.642 212.869 278.801 213.532 278.801 214.257C278.801 214.37 278.801 214.489 278.801 214.614C278.801 214.739 278.795 214.88 278.784 215.039H271.78V213.934H277.407C277.373 213.152 277.112 212.54 276.625 212.098C276.149 211.656 275.548 211.435 274.823 211.435C274.336 211.435 273.882 211.548 273.463 211.775C273.055 211.99 272.726 212.313 272.477 212.744C272.228 213.163 272.103 213.69 272.103 214.325V214.801C272.103 215.504 272.228 216.093 272.477 216.569C272.738 217.045 273.072 217.402 273.48 217.64C273.899 217.878 274.347 217.997 274.823 217.997C275.424 217.997 275.917 217.867 276.302 217.606C276.699 217.334 276.982 216.971 277.152 216.518H278.563C278.427 217.028 278.189 217.487 277.849 217.895C277.509 218.303 277.084 218.626 276.574 218.864C276.075 219.091 275.492 219.204 274.823 219.204ZM288.474 219.204C287.76 219.204 287.136 219.085 286.604 218.847C286.082 218.609 285.663 218.28 285.346 217.861C285.04 217.43 284.853 216.926 284.785 216.348H286.247C286.303 216.643 286.422 216.915 286.604 217.164C286.785 217.413 287.029 217.617 287.335 217.776C287.652 217.923 288.037 217.997 288.491 217.997C288.887 217.997 289.216 217.94 289.477 217.827C289.737 217.702 289.93 217.538 290.055 217.334C290.191 217.13 290.259 216.909 290.259 216.671C290.259 216.32 290.174 216.053 290.004 215.872C289.845 215.691 289.607 215.549 289.29 215.447C288.972 215.334 288.587 215.237 288.134 215.158C287.76 215.09 287.391 214.999 287.029 214.886C286.666 214.773 286.343 214.625 286.06 214.444C285.776 214.251 285.55 214.019 285.38 213.747C285.221 213.475 285.142 213.141 285.142 212.744C285.142 212.257 285.266 211.826 285.516 211.452C285.765 211.067 286.122 210.766 286.587 210.551C287.063 210.336 287.612 210.228 288.236 210.228C289.154 210.228 289.896 210.449 290.463 210.891C291.029 211.333 291.364 211.973 291.466 212.812H290.055C289.998 212.381 289.811 212.047 289.494 211.809C289.188 211.56 288.763 211.435 288.219 211.435C287.686 211.435 287.278 211.543 286.995 211.758C286.723 211.973 286.587 212.257 286.587 212.608C286.587 212.835 286.66 213.039 286.808 213.22C286.966 213.39 287.193 213.537 287.488 213.662C287.794 213.787 288.168 213.889 288.61 213.968C289.176 214.07 289.692 214.206 290.157 214.376C290.621 214.546 290.995 214.801 291.279 215.141C291.573 215.47 291.721 215.94 291.721 216.552C291.721 217.085 291.585 217.549 291.313 217.946C291.052 218.343 290.678 218.654 290.191 218.881C289.703 219.096 289.131 219.204 288.474 219.204ZM297.636 219.204C296.831 219.204 296.106 219.017 295.46 218.643C294.825 218.269 294.327 217.748 293.964 217.079C293.601 216.399 293.42 215.617 293.42 214.733C293.42 213.826 293.601 213.039 293.964 212.37C294.327 211.701 294.825 211.18 295.46 210.806C296.106 210.421 296.831 210.228 297.636 210.228C298.656 210.228 299.506 210.494 300.186 211.027C300.866 211.548 301.297 212.251 301.478 213.135H300.016C299.903 212.602 299.625 212.189 299.183 211.894C298.741 211.599 298.22 211.452 297.619 211.452C297.132 211.452 296.678 211.577 296.259 211.826C295.84 212.064 295.505 212.427 295.256 212.914C295.007 213.401 294.882 214.002 294.882 214.716C294.882 215.249 294.956 215.725 295.103 216.144C295.25 216.552 295.449 216.892 295.698 217.164C295.947 217.436 296.236 217.646 296.565 217.793C296.905 217.929 297.256 217.997 297.619 217.997C298.027 217.997 298.395 217.935 298.724 217.81C299.053 217.674 299.33 217.476 299.557 217.215C299.784 216.954 299.937 216.648 300.016 216.297H301.478C301.297 217.158 300.86 217.861 300.169 218.405C299.489 218.938 298.645 219.204 297.636 219.204ZM307.33 219.204C306.537 219.204 305.823 219.023 305.188 218.66C304.554 218.286 304.055 217.765 303.692 217.096C303.33 216.416 303.148 215.628 303.148 214.733C303.148 213.815 303.33 213.022 303.692 212.353C304.066 211.673 304.571 211.152 305.205 210.789C305.851 210.415 306.571 210.228 307.364 210.228C308.18 210.228 308.9 210.415 309.523 210.789C310.158 211.152 310.657 211.673 311.019 212.353C311.393 213.022 311.58 213.809 311.58 214.716C311.58 215.623 311.393 216.416 311.019 217.096C310.645 217.765 310.141 218.286 309.506 218.66C308.872 219.023 308.146 219.204 307.33 219.204ZM307.347 217.98C307.835 217.98 308.288 217.861 308.707 217.623C309.127 217.374 309.467 217.005 309.727 216.518C309.988 216.031 310.118 215.43 310.118 214.716C310.118 213.991 309.988 213.39 309.727 212.914C309.478 212.427 309.144 212.064 308.724 211.826C308.316 211.577 307.863 211.452 307.364 211.452C306.888 211.452 306.435 211.577 306.004 211.826C305.585 212.064 305.245 212.427 304.984 212.914C304.735 213.39 304.61 213.991 304.61 214.716C304.61 215.43 304.735 216.031 304.984 216.518C305.245 217.005 305.579 217.374 305.987 217.623C306.407 217.861 306.86 217.98 307.347 217.98ZM313.583 219V210.432H314.875L314.977 212.064C315.169 211.679 315.413 211.35 315.708 211.078C316.014 210.806 316.376 210.596 316.796 210.449C317.226 210.302 317.714 210.228 318.258 210.228V211.724H317.731C317.368 211.724 317.022 211.775 316.694 211.877C316.365 211.968 316.07 212.121 315.81 212.336C315.56 212.551 315.362 212.846 315.215 213.22C315.079 213.583 315.011 214.036 315.011 214.58V219H313.583ZM320.011 219V210.432H321.439V219H320.011ZM320.725 208.613C320.441 208.613 320.203 208.522 320.011 208.341C319.829 208.148 319.739 207.91 319.739 207.627C319.739 207.344 319.829 207.117 320.011 206.947C320.203 206.766 320.441 206.675 320.725 206.675C320.997 206.675 321.229 206.766 321.422 206.947C321.614 207.117 321.711 207.344 321.711 207.627C321.711 207.91 321.614 208.148 321.422 208.341C321.229 208.522 320.997 208.613 320.725 208.613ZM323.959 219V210.432H325.251L325.319 211.928C325.591 211.395 325.976 210.982 326.475 210.687C326.985 210.381 327.563 210.228 328.209 210.228C328.877 210.228 329.455 210.364 329.943 210.636C330.43 210.897 330.81 211.299 331.082 211.843C331.354 212.376 331.49 213.056 331.49 213.883V219H330.062V214.036C330.062 213.175 329.869 212.529 329.484 212.098C329.11 211.667 328.577 211.452 327.886 211.452C327.41 211.452 326.985 211.571 326.611 211.809C326.237 212.036 325.936 212.37 325.71 212.812C325.494 213.243 325.387 213.781 325.387 214.427V219H323.959ZM337.103 222.944C336.333 222.944 335.647 222.842 335.046 222.638C334.457 222.445 333.998 222.145 333.669 221.737C333.341 221.329 333.176 220.825 333.176 220.224C333.176 219.963 333.227 219.686 333.329 219.391C333.443 219.096 333.63 218.807 333.89 218.524C334.162 218.241 334.542 217.986 335.029 217.759L336.015 218.337C335.415 218.586 335.024 218.87 334.842 219.187C334.661 219.516 334.57 219.816 334.57 220.088C334.57 220.462 334.678 220.774 334.893 221.023C335.109 221.272 335.409 221.459 335.794 221.584C336.18 221.709 336.616 221.771 337.103 221.771C337.591 221.771 338.01 221.703 338.361 221.567C338.713 221.431 338.985 221.238 339.177 220.989C339.37 220.74 339.466 220.445 339.466 220.105C339.466 219.708 339.319 219.374 339.024 219.102C338.73 218.841 338.169 218.688 337.341 218.643C336.673 218.598 336.112 218.535 335.658 218.456C335.205 218.377 334.831 218.286 334.536 218.184C334.242 218.071 333.992 217.946 333.788 217.81C333.596 217.674 333.42 217.532 333.261 217.385V216.994L334.91 215.362L336.151 215.804L334.451 217.334L334.672 216.739C334.797 216.83 334.916 216.915 335.029 216.994C335.143 217.073 335.296 217.141 335.488 217.198C335.681 217.255 335.947 217.306 336.287 217.351C336.639 217.396 337.098 217.442 337.664 217.487C338.446 217.544 339.07 217.68 339.534 217.895C340.01 218.11 340.35 218.399 340.554 218.762C340.77 219.125 340.877 219.555 340.877 220.054C340.877 220.541 340.741 221 340.469 221.431C340.209 221.873 339.801 222.236 339.245 222.519C338.69 222.802 337.976 222.944 337.103 222.944ZM337.086 216.314C336.372 216.314 335.76 216.178 335.25 215.906C334.752 215.634 334.372 215.271 334.111 214.818C333.851 214.353 333.72 213.838 333.72 213.271C333.72 212.704 333.851 212.194 334.111 211.741C334.383 211.288 334.769 210.925 335.267 210.653C335.766 210.37 336.372 210.228 337.086 210.228C337.8 210.228 338.407 210.37 338.905 210.653C339.404 210.925 339.784 211.288 340.044 211.741C340.305 212.194 340.435 212.704 340.435 213.271C340.435 213.838 340.305 214.353 340.044 214.818C339.784 215.271 339.404 215.634 338.905 215.906C338.407 216.178 337.8 216.314 337.086 216.314ZM337.086 215.141C337.698 215.141 338.18 214.982 338.531 214.665C338.883 214.348 339.058 213.883 339.058 213.271C339.058 212.67 338.883 212.211 338.531 211.894C338.18 211.577 337.698 211.418 337.086 211.418C336.486 211.418 335.998 211.577 335.624 211.894C335.262 212.211 335.08 212.67 335.08 213.271C335.08 213.883 335.262 214.348 335.624 214.665C335.987 214.982 336.474 215.141 337.086 215.141ZM338.48 211.639L338.055 210.432H341.557V211.503L338.48 211.639ZM349.568 215.379C349.206 215.379 348.866 215.288 348.548 215.107C348.242 214.926 347.999 214.682 347.817 214.376C347.636 214.059 347.545 213.713 347.545 213.339C347.545 212.954 347.636 212.608 347.817 212.302C347.999 211.985 348.242 211.735 348.548 211.554C348.866 211.373 349.206 211.282 349.568 211.282C349.954 211.282 350.299 211.373 350.605 211.554C350.923 211.735 351.172 211.985 351.353 212.302C351.535 212.608 351.625 212.954 351.625 213.339C351.625 213.713 351.535 214.059 351.353 214.376C351.172 214.682 350.923 214.926 350.605 215.107C350.299 215.288 349.954 215.379 349.568 215.379ZM358.442 219V207.1H362.284C363.213 207.1 363.973 207.259 364.562 207.576C365.151 207.882 365.588 208.296 365.871 208.817C366.154 209.338 366.296 209.928 366.296 210.585C366.296 211.22 366.149 211.803 365.854 212.336C365.571 212.869 365.129 213.294 364.528 213.611C363.927 213.928 363.157 214.087 362.216 214.087H359.87V219H358.442ZM364.732 219L362.114 213.679H363.712L366.415 219H364.732ZM359.87 212.965H362.182C363.089 212.965 363.752 212.744 364.171 212.302C364.602 211.86 364.817 211.293 364.817 210.602C364.817 209.899 364.607 209.344 364.188 208.936C363.78 208.517 363.106 208.307 362.165 208.307H359.87V212.965ZM371.562 219.204C370.904 219.204 370.326 219.074 369.828 218.813C369.34 218.552 368.961 218.15 368.689 217.606C368.428 217.062 368.298 216.382 368.298 215.566V210.432H369.726V215.413C369.726 216.263 369.913 216.903 370.287 217.334C370.661 217.765 371.188 217.98 371.868 217.98C372.344 217.98 372.774 217.867 373.16 217.64C373.545 217.402 373.845 217.068 374.061 216.637C374.287 216.195 374.401 215.657 374.401 215.022V210.432H375.829V219H374.537L374.452 217.504C374.191 218.037 373.806 218.456 373.296 218.762C372.786 219.057 372.208 219.204 371.562 219.204ZM381.426 219.204C380.712 219.204 380.089 219.085 379.556 218.847C379.035 218.609 378.615 218.28 378.298 217.861C377.992 217.43 377.805 216.926 377.737 216.348H379.199C379.256 216.643 379.375 216.915 379.556 217.164C379.737 217.413 379.981 217.617 380.287 217.776C380.604 217.923 380.99 217.997 381.443 217.997C381.84 217.997 382.168 217.94 382.429 217.827C382.69 217.702 382.882 217.538 383.007 217.334C383.143 217.13 383.211 216.909 383.211 216.671C383.211 216.32 383.126 216.053 382.956 215.872C382.797 215.691 382.559 215.549 382.242 215.447C381.925 215.334 381.539 215.237 381.086 215.158C380.712 215.09 380.344 214.999 379.981 214.886C379.618 214.773 379.295 214.625 379.012 214.444C378.729 214.251 378.502 214.019 378.332 213.747C378.173 213.475 378.094 213.141 378.094 212.744C378.094 212.257 378.219 211.826 378.468 211.452C378.717 211.067 379.074 210.766 379.539 210.551C380.015 210.336 380.565 210.228 381.188 210.228C382.106 210.228 382.848 210.449 383.415 210.891C383.982 211.333 384.316 211.973 384.418 212.812H383.007C382.95 212.381 382.763 212.047 382.446 211.809C382.14 211.56 381.715 211.435 381.171 211.435C380.638 211.435 380.23 211.543 379.947 211.758C379.675 211.973 379.539 212.257 379.539 212.608C379.539 212.835 379.613 213.039 379.76 213.22C379.919 213.39 380.145 213.537 380.44 213.662C380.746 213.787 381.12 213.889 381.562 213.968C382.129 214.07 382.644 214.206 383.109 214.376C383.574 214.546 383.948 214.801 384.231 215.141C384.526 215.47 384.673 215.94 384.673 216.552C384.673 217.085 384.537 217.549 384.265 217.946C384.004 218.343 383.63 218.654 383.143 218.881C382.656 219.096 382.083 219.204 381.426 219.204ZM389.713 219C389.203 219 388.761 218.921 388.387 218.762C388.013 218.603 387.724 218.337 387.52 217.963C387.328 217.578 387.231 217.062 387.231 216.416V211.639H385.735V210.432H387.231L387.418 208.358H388.659V210.432H391.141V211.639H388.659V216.416C388.659 216.949 388.767 217.311 388.982 217.504C389.198 217.685 389.577 217.776 390.121 217.776H391.039V219H389.713ZM399.373 215.379C399.01 215.379 398.67 215.288 398.353 215.107C398.047 214.926 397.803 214.682 397.622 214.376C397.441 214.059 397.35 213.713 397.35 213.339C397.35 212.954 397.441 212.608 397.622 212.302C397.803 211.985 398.047 211.735 398.353 211.554C398.67 211.373 399.01 211.282 399.373 211.282C399.758 211.282 400.104 211.373 400.41 211.554C400.727 211.735 400.977 211.985 401.158 212.302C401.339 212.608 401.43 212.954 401.43 213.339C401.43 213.713 401.339 214.059 401.158 214.376C400.977 214.682 400.727 214.926 400.41 215.107C400.104 215.288 399.758 215.379 399.373 215.379ZM407.482 219L411.868 207.1H413.381L417.75 219H416.237L412.616 208.885L408.978 219H407.482ZM409.488 215.94L409.896 214.784H415.285L415.693 215.94H409.488ZM423.972 219.204C422.861 219.204 421.887 218.949 421.048 218.439C420.209 217.918 419.558 217.198 419.093 216.28C418.628 215.362 418.396 214.291 418.396 213.067C418.396 211.854 418.628 210.783 419.093 209.854C419.569 208.925 420.238 208.199 421.099 207.678C421.972 207.157 422.997 206.896 424.176 206.896C425.513 206.896 426.63 207.219 427.525 207.865C428.42 208.5 428.993 209.389 429.242 210.534H427.593C427.434 209.82 427.06 209.253 426.471 208.834C425.882 208.415 425.117 208.205 424.176 208.205C423.303 208.205 422.538 208.403 421.881 208.8C421.235 209.185 420.736 209.741 420.385 210.466C420.034 211.191 419.858 212.058 419.858 213.067C419.858 214.076 420.034 214.948 420.385 215.685C420.736 216.41 421.224 216.966 421.847 217.351C422.482 217.736 423.207 217.929 424.023 217.929C425.292 217.929 426.25 217.555 426.896 216.807C427.542 216.059 427.91 215.045 428.001 213.764H424.567V212.642H429.463V219H428.154L428.035 217.045C427.752 217.51 427.423 217.906 427.049 218.235C426.686 218.552 426.256 218.796 425.757 218.966C425.258 219.125 424.663 219.204 423.972 219.204ZM431.738 219V207.1H435.614C436.555 207.1 437.325 207.259 437.926 207.576C438.538 207.882 438.986 208.296 439.269 208.817C439.564 209.338 439.711 209.933 439.711 210.602C439.711 211.248 439.564 211.837 439.269 212.37C438.986 212.891 438.544 213.311 437.943 213.628C437.342 213.945 436.566 214.104 435.614 214.104H433.166V219H431.738ZM433.166 212.897H435.597C436.549 212.897 437.229 212.687 437.637 212.268C438.045 211.849 438.249 211.293 438.249 210.602C438.249 209.865 438.045 209.299 437.637 208.902C437.229 208.494 436.549 208.29 435.597 208.29H433.166V212.897ZM441.599 219V207.1H443.027V217.861H448.569V219H441.599ZM457.46 219L454.213 210.432H455.709L458.293 217.623L460.894 210.432H462.356L459.109 219H457.46ZM467.751 219.204C466.991 219.204 466.3 219.068 465.677 218.796C465.065 218.513 464.577 218.093 464.215 217.538C463.852 216.983 463.659 216.291 463.637 215.464H465.082C465.093 215.917 465.201 216.337 465.405 216.722C465.62 217.096 465.926 217.396 466.323 217.623C466.719 217.85 467.195 217.963 467.751 217.963C468.306 217.963 468.771 217.855 469.145 217.64C469.519 217.425 469.802 217.141 469.995 216.79C470.187 216.427 470.284 216.025 470.284 215.583C470.284 215.028 470.148 214.58 469.876 214.24C469.615 213.889 469.258 213.634 468.805 213.475C468.363 213.305 467.875 213.22 467.343 213.22H466.459V212.013H467.343C468.125 212.013 468.737 211.832 469.179 211.469C469.621 211.106 469.842 210.608 469.842 209.973C469.842 209.452 469.666 209.015 469.315 208.664C468.975 208.313 468.453 208.137 467.751 208.137C467.082 208.137 466.549 208.33 466.153 208.715C465.756 209.1 465.529 209.593 465.473 210.194H464.028C464.062 209.548 464.237 208.976 464.555 208.477C464.872 207.978 465.303 207.593 465.847 207.321C466.391 207.038 467.031 206.896 467.768 206.896C468.538 206.896 469.184 207.032 469.706 207.304C470.227 207.576 470.618 207.939 470.879 208.392C471.151 208.845 471.287 209.344 471.287 209.888C471.287 210.296 471.213 210.681 471.066 211.044C470.918 211.395 470.697 211.707 470.403 211.979C470.108 212.251 469.734 212.444 469.281 212.557C469.745 212.648 470.159 212.823 470.522 213.084C470.896 213.345 471.19 213.685 471.406 214.104C471.621 214.523 471.729 215.016 471.729 215.583C471.729 216.229 471.576 216.83 471.27 217.385C470.975 217.929 470.533 218.371 469.944 218.711C469.354 219.04 468.623 219.204 467.751 219.204Z" fill="#26CD94"/>
<rect x="64" y="252" width="100" height="34" rx="8" fill="#E0F4ED"/>
<path d="M84.074 274.168C83.346 274.168 82.7067 273.963 82.156 273.552C81.6053 273.132 81.176 272.544 80.868 271.788C80.56 271.032 80.406 270.136 80.406 269.1C80.406 268.083 80.56 267.196 80.868 266.44C81.176 265.684 81.6147 265.096 82.184 264.676C82.7627 264.247 83.4533 264.032 84.256 264.032C85.2267 264.032 86.006 264.298 86.594 264.83C87.1913 265.362 87.5553 266.113 87.686 267.084H86.076C85.9827 266.58 85.7773 266.179 85.46 265.88C85.152 265.581 84.7507 265.432 84.256 265.432C83.5 265.432 82.9213 265.759 82.52 266.412C82.1187 267.065 81.918 267.961 81.918 269.1C81.918 270.285 82.128 271.195 82.548 271.83C82.9773 272.455 83.5327 272.768 84.214 272.768C84.6713 272.768 85.0493 272.633 85.348 272.362C85.6467 272.091 85.8753 271.746 86.034 271.326C86.1927 270.897 86.2907 270.444 86.328 269.968H84.27V268.736H87.826V274H86.454L86.356 272.684H86.272C86.0853 273.113 85.824 273.468 85.488 273.748C85.152 274.028 84.6807 274.168 84.074 274.168ZM89.4725 274V272.712H91.1665V268.806C91.1665 268.498 91.0172 268.344 90.7185 268.344H89.6125V267.056H91.2785C91.6612 267.056 91.9739 267.168 92.2165 267.392C92.4592 267.607 92.5805 267.91 92.5805 268.302V268.47H92.6505C92.7532 267.947 92.9725 267.555 93.3085 267.294C93.6539 267.023 94.1532 266.888 94.8065 266.888H95.8845V268.456H94.3725C93.8219 268.456 93.3972 268.647 93.0985 269.03C92.7999 269.413 92.6505 269.87 92.6505 270.402V272.712H94.8065V274H89.4725ZM101.073 274.168C100.401 274.168 99.8084 274.019 99.2951 273.72C98.7817 273.412 98.3804 272.987 98.0911 272.446C97.8017 271.905 97.6571 271.275 97.6571 270.556C97.6571 269.828 97.7971 269.189 98.0771 268.638C98.3664 268.087 98.7677 267.658 99.2811 267.35C99.8037 267.042 100.406 266.888 101.087 266.888C101.759 266.888 102.338 267.042 102.823 267.35C103.308 267.649 103.682 268.05 103.943 268.554C104.214 269.058 104.349 269.613 104.349 270.22C104.349 270.313 104.349 270.416 104.349 270.528C104.349 270.631 104.344 270.747 104.335 270.878H99.1131C99.1597 271.522 99.3697 272.012 99.7431 272.348C100.116 272.675 100.555 272.838 101.059 272.838C101.498 272.838 101.843 272.749 102.095 272.572C102.356 272.385 102.548 272.133 102.669 271.816H104.167C103.999 272.479 103.649 273.039 103.117 273.496C102.585 273.944 101.904 274.168 101.073 274.168ZM101.073 268.176C100.616 268.176 100.21 268.316 99.8551 268.596C99.5004 268.867 99.2717 269.249 99.1691 269.744H102.865C102.828 269.277 102.646 268.899 102.319 268.61C101.992 268.321 101.577 268.176 101.073 268.176ZM109.468 274.168C108.796 274.168 108.203 274.019 107.69 273.72C107.176 273.412 106.775 272.987 106.486 272.446C106.196 271.905 106.052 271.275 106.052 270.556C106.052 269.828 106.192 269.189 106.472 268.638C106.761 268.087 107.162 267.658 107.676 267.35C108.198 267.042 108.8 266.888 109.482 266.888C110.154 266.888 110.732 267.042 111.218 267.35C111.703 267.649 112.076 268.05 112.338 268.554C112.608 269.058 112.744 269.613 112.744 270.22C112.744 270.313 112.744 270.416 112.744 270.528C112.744 270.631 112.739 270.747 112.73 270.878H107.508C107.554 271.522 107.764 272.012 108.138 272.348C108.511 272.675 108.95 272.838 109.454 272.838C109.892 272.838 110.238 272.749 110.49 272.572C110.751 272.385 110.942 272.133 111.064 271.816H112.562C112.394 272.479 112.044 273.039 111.512 273.496C110.98 273.944 110.298 274.168 109.468 274.168ZM109.468 268.176C109.01 268.176 108.604 268.316 108.25 268.596C107.895 268.867 107.666 269.249 107.564 269.744H111.26C111.222 269.277 111.04 268.899 110.714 268.61C110.387 268.321 109.972 268.176 109.468 268.176ZM114.67 274V267.056H115.958L116.084 268.092H116.154C116.341 267.756 116.63 267.471 117.022 267.238C117.414 267.005 117.867 266.888 118.38 266.888C119.229 266.888 119.869 267.145 120.298 267.658C120.727 268.171 120.942 268.927 120.942 269.926V274H119.458V270.108C119.458 269.529 119.337 269.081 119.094 268.764C118.851 268.447 118.469 268.288 117.946 268.288C117.433 268.288 117.003 268.461 116.658 268.806C116.322 269.151 116.154 269.651 116.154 270.304V274H114.67ZM126.173 274.168C125.379 274.168 124.693 273.963 124.115 273.552C123.536 273.141 123.093 272.558 122.785 271.802C122.477 271.046 122.323 270.145 122.323 269.1C122.323 268.055 122.477 267.154 122.785 266.398C123.093 265.642 123.536 265.059 124.115 264.648C124.693 264.237 125.379 264.032 126.173 264.032C126.975 264.032 127.661 264.237 128.231 264.648C128.809 265.059 129.253 265.642 129.561 266.398C129.869 267.154 130.023 268.055 130.023 269.1C130.023 270.145 129.869 271.046 129.561 271.802C129.253 272.558 128.809 273.141 128.231 273.552C127.661 273.963 126.975 274.168 126.173 274.168ZM126.173 272.768C126.873 272.768 127.437 272.455 127.867 271.83C128.296 271.195 128.511 270.285 128.511 269.1C128.511 267.915 128.296 267.009 127.867 266.384C127.437 265.749 126.873 265.432 126.173 265.432C125.463 265.432 124.894 265.749 124.465 266.384C124.045 267.009 123.835 267.915 123.835 269.1C123.835 270.285 124.045 271.195 124.465 271.83C124.894 272.455 125.463 272.768 126.173 272.768ZM131.333 277.08V267.056H132.621L132.733 268.12H132.817C133.004 267.775 133.284 267.485 133.657 267.252C134.04 267.009 134.493 266.888 135.015 266.888C135.557 266.888 136.051 267.028 136.499 267.308C136.947 267.579 137.302 267.985 137.563 268.526C137.834 269.058 137.969 269.725 137.969 270.528C137.969 271.321 137.829 271.989 137.549 272.53C137.279 273.071 136.91 273.482 136.443 273.762C135.977 274.033 135.454 274.168 134.875 274.168C134.362 274.168 133.933 274.065 133.587 273.86C133.242 273.655 132.985 273.421 132.817 273.16V277.08H131.333ZM134.623 272.754C135.146 272.754 135.58 272.567 135.925 272.194C136.28 271.821 136.457 271.261 136.457 270.514C136.457 269.767 136.28 269.212 135.925 268.848C135.58 268.484 135.146 268.302 134.623 268.302C134.091 268.302 133.648 268.489 133.293 268.862C132.948 269.226 132.775 269.781 132.775 270.528C132.775 271.265 132.948 271.821 133.293 272.194C133.648 272.567 134.091 272.754 134.623 272.754ZM143.018 274.168C142.103 274.168 141.375 273.953 140.834 273.524C140.292 273.095 139.984 272.525 139.91 271.816H141.436C141.492 272.143 141.655 272.409 141.926 272.614C142.206 272.819 142.574 272.922 143.032 272.922C143.47 272.922 143.806 272.833 144.04 272.656C144.282 272.469 144.404 272.255 144.404 272.012C144.404 271.657 144.259 271.415 143.97 271.284C143.69 271.153 143.274 271.055 142.724 270.99C142.248 270.934 141.814 270.827 141.422 270.668C141.039 270.5 140.736 270.276 140.512 269.996C140.288 269.707 140.176 269.347 140.176 268.918C140.176 268.311 140.414 267.821 140.89 267.448C141.366 267.075 142.028 266.888 142.878 266.888C143.727 266.888 144.385 267.079 144.852 267.462C145.318 267.845 145.589 268.367 145.664 269.03H144.236C144.198 268.75 144.054 268.531 143.802 268.372C143.55 268.204 143.237 268.12 142.864 268.12C142.481 268.12 142.178 268.195 141.954 268.344C141.73 268.484 141.618 268.671 141.618 268.904C141.618 269.408 142.159 269.716 143.242 269.828C143.755 269.884 144.212 269.982 144.614 270.122C145.015 270.253 145.332 270.463 145.566 270.752C145.799 271.032 145.916 271.429 145.916 271.942C145.925 272.362 145.804 272.74 145.552 273.076C145.309 273.412 144.968 273.678 144.53 273.874C144.1 274.07 143.596 274.168 143.018 274.168Z" fill="#0B523A"/>
<rect x="180" y="252" width="58" height="34" rx="8" fill="#E0F4ED"/>
<path d="M200.298 274.168C199.607 274.168 199.001 274.042 198.478 273.79C197.965 273.538 197.559 273.179 197.26 272.712C196.971 272.245 196.821 271.69 196.812 271.046H198.38C198.389 271.541 198.557 271.965 198.884 272.32C199.22 272.665 199.687 272.838 200.284 272.838C200.835 272.838 201.264 272.712 201.572 272.46C201.88 272.199 202.034 271.863 202.034 271.452C202.034 271.107 201.941 270.822 201.754 270.598C201.577 270.365 201.297 270.159 200.914 269.982C200.531 269.795 200.037 269.604 199.43 269.408C198.618 269.147 198.021 268.787 197.638 268.33C197.255 267.863 197.064 267.294 197.064 266.622C197.064 265.847 197.344 265.222 197.904 264.746C198.464 264.27 199.234 264.032 200.214 264.032C201.166 264.032 201.931 264.279 202.51 264.774C203.089 265.259 203.387 265.936 203.406 266.804H201.824C201.824 266.571 201.759 266.347 201.628 266.132C201.497 265.908 201.311 265.726 201.068 265.586C200.825 265.437 200.527 265.362 200.172 265.362C199.733 265.353 199.365 265.46 199.066 265.684C198.767 265.899 198.618 266.193 198.618 266.566C198.618 267.023 198.8 267.383 199.164 267.644C199.528 267.896 200.121 268.157 200.942 268.428C201.455 268.596 201.908 268.801 202.3 269.044C202.701 269.277 203.014 269.581 203.238 269.954C203.471 270.318 203.588 270.785 203.588 271.354C203.588 271.877 203.457 272.353 203.196 272.782C202.935 273.202 202.557 273.538 202.062 273.79C201.577 274.042 200.989 274.168 200.298 274.168ZM208.623 274.168C207.801 274.168 207.101 273.958 206.523 273.538C205.953 273.118 205.515 272.53 205.207 271.774C204.908 271.009 204.759 270.122 204.759 269.114C204.759 268.097 204.908 267.21 205.207 266.454C205.515 265.689 205.958 265.096 206.537 264.676C207.115 264.247 207.811 264.032 208.623 264.032C209.677 264.032 210.517 264.321 211.143 264.9C211.768 265.469 212.132 266.244 212.235 267.224H210.597C210.513 266.711 210.303 266.286 209.967 265.95C209.64 265.605 209.187 265.432 208.609 265.432C207.871 265.432 207.297 265.759 206.887 266.412C206.476 267.065 206.271 267.966 206.271 269.114C206.271 270.253 206.476 271.149 206.887 271.802C207.297 272.446 207.871 272.768 208.609 272.768C209.206 272.768 209.663 272.614 209.981 272.306C210.298 271.989 210.503 271.573 210.597 271.06H212.235C212.085 272.021 211.707 272.782 211.101 273.342C210.494 273.893 209.668 274.168 208.623 274.168ZM214.119 274V272.684H216.247V265.516H214.147V264.2H219.831V265.516H217.731V272.684H219.859V274H214.119Z" fill="#0B523A"/>
<path opacity="0.35" d="M0 119H32.3L92.3 99L132.3 139L172.3 89L212.3 129L252.3 109L312.3 119H392.3H452.3L512.3 114L552.3 124L592.3 119H900.33" stroke="#10B981"/>
<path d="M104.99 61.865C127.617 49.3944 159.459 57.1595 180.451 60.0549C181.275 60.1687 181.758 61.0396 181.418 61.7986C171.655 83.598 162.278 112.116 139.581 124.626C118.839 136.058 99.4743 127.586 80.2809 122.034C82.0788 116.603 84.8683 111.325 88.442 106.479C88.899 105.837 89.3478 105.219 89.8231 104.587C89.2183 105.097 88.6368 105.594 88.044 106.12C77.9499 114.661 69.6919 127.673 68.8092 142.416C68.6824 142.574 68.5354 142.719 68.3686 142.845C67.8026 143.272 67.0602 143.453 66.3242 143.35C65.5883 143.246 64.9241 142.869 64.4973 142.303C64.0694 141.736 63.9138 141.027 64.0454 140.329C64.2307 139.328 64.443 138.346 64.6862 137.363C66.2863 130.736 69.228 124.906 72.9913 119.695C74.1839 117.782 75.1561 115.238 75.9954 112.582C76.3175 111.526 76.6319 110.456 76.9431 109.376C77.6653 106.801 78.2978 104.313 78.9167 102.38C83.2415 87.0745 88.4995 70.9538 104.99 61.865Z" fill="url(#paint0_linear_12013_161)"/>
<path d="M146.657 91.2674C146.657 79.5576 137.165 70.065 125.455 70.065C113.745 70.065 104.252 79.5576 104.252 91.2674C104.252 102.977 113.745 112.47 125.455 112.47L125.455 115.352C112.153 115.352 101.371 104.569 101.371 91.2674C101.371 77.966 112.153 67.1831 125.455 67.1831C138.756 67.1831 149.539 77.966 149.539 91.2674C149.539 104.569 138.756 115.352 125.455 115.352L125.455 112.47C137.165 112.47 146.657 102.977 146.657 91.2674Z" fill="#E0F4ED"/>
<path d="M125.409 77.1887C127.15 77.1888 128.817 77.5063 130.355 78.0862L126.459 90.3069C126.2 91.1208 127.014 91.865 127.801 91.5325L138.754 86.9036C139.192 88.2605 139.43 89.7077 139.43 91.2102C139.43 98.9533 133.153 105.23 125.409 105.231C117.666 105.231 111.388 98.9535 111.388 91.2102C111.388 83.4667 117.666 77.1887 125.409 77.1887Z" fill="#0B523A"/>
<path d="M133.433 68.4298C140.236 70.826 145.642 76.1818 148.106 82.9523L138.754 86.9034C137.444 82.8396 134.33 79.5861 130.355 78.087L133.433 68.4298Z" fill="#E0F4ED"/>
<path d="M201.64 103.6V74.64H206.44L207.04 77.44C207.467 76.8533 207.973 76.32 208.56 75.84C209.147 75.3333 209.84 74.9333 210.64 74.64C211.467 74.32 212.427 74.16 213.52 74.16C215.413 74.16 217.08 74.6267 218.52 75.56C219.96 76.4933 221.093 77.76 221.92 79.36C222.773 80.9333 223.2 82.7333 223.2 84.76C223.2 86.7867 222.773 88.6 221.92 90.2C221.067 91.7733 219.92 93.0133 218.48 93.92C217.04 94.8267 215.4 95.28 213.56 95.28C212.067 95.28 210.773 95.0133 209.68 94.48C208.613 93.92 207.733 93.16 207.04 92.2V103.6H201.64ZM212.28 90.56C213.347 90.56 214.28 90.32 215.08 89.84C215.907 89.36 216.547 88.68 217 87.8C217.453 86.92 217.68 85.9067 217.68 84.76C217.68 83.6133 217.453 82.6 217 81.72C216.547 80.8133 215.907 80.12 215.08 79.64C214.28 79.1333 213.347 78.88 212.28 78.88C211.24 78.88 210.307 79.1333 209.48 79.64C208.68 80.12 208.04 80.8 207.56 81.68C207.107 82.56 206.88 83.5733 206.88 84.72C206.88 85.8667 207.107 86.8933 207.56 87.8C208.04 88.68 208.68 89.36 209.48 89.84C210.307 90.32 211.24 90.56 212.28 90.56Z" fill="#E0F4ED"/>
<path d="M237.531 95.28C235.504 95.28 233.704 94.8533 232.131 94C230.584 93.12 229.371 91.9067 228.491 90.36C227.638 88.7867 227.211 86.9733 227.211 84.92C227.211 82.8133 227.638 80.96 228.491 79.36C229.371 77.7333 230.584 76.4667 232.131 75.56C233.678 74.6267 235.478 74.16 237.531 74.16C239.531 74.16 241.278 74.6 242.771 75.48C244.264 76.36 245.424 77.5467 246.251 79.04C247.078 80.5333 247.491 82.2267 247.491 84.12C247.491 84.3867 247.491 84.6933 247.491 85.04C247.491 85.36 247.464 85.6933 247.411 86.04H231.051V82.76H242.051C241.971 81.4533 241.504 80.4267 240.651 79.68C239.824 78.9333 238.784 78.56 237.531 78.56C236.624 78.56 235.784 78.7733 235.011 79.2C234.238 79.6 233.624 80.2267 233.171 81.08C232.744 81.9333 232.531 83.0133 232.531 84.32V85.48C232.531 86.5733 232.731 87.5333 233.131 88.36C233.558 89.16 234.144 89.7867 234.891 90.24C235.638 90.6667 236.504 90.88 237.491 90.88C238.478 90.88 239.291 90.6667 239.931 90.24C240.598 89.8133 241.091 89.2667 241.411 88.6H246.931C246.558 89.8533 245.931 90.9867 245.051 92C244.171 93.0133 243.091 93.8133 241.811 94.4C240.531 94.9867 239.104 95.28 237.531 95.28Z" fill="#E0F4ED"/>
<path d="M251.913 94.8V74.64H256.713L257.233 78.36C257.713 77.48 258.313 76.7333 259.033 76.12C259.78 75.5067 260.62 75.0267 261.553 74.68C262.513 74.3333 263.567 74.16 264.713 74.16V79.88H262.873C262.073 79.88 261.327 79.9733 260.633 80.16C259.967 80.3467 259.38 80.6533 258.873 81.08C258.367 81.48 257.98 82.04 257.713 82.76C257.447 83.48 257.313 84.3867 257.313 85.48V94.8H251.913Z" fill="#E0F4ED"/>
<path d="M269.201 94.8V72.84C269.201 71.16 269.481 69.8267 270.041 68.84C270.601 67.8533 271.401 67.1333 272.441 66.68C273.507 66.2267 274.747 66 276.161 66H278.641V70.6H276.961C276.107 70.6 275.494 70.7733 275.121 71.12C274.774 71.44 274.601 72.0133 274.601 72.84V94.8H269.201ZM266.441 79.16V74.64H278.961V79.16H266.441Z" fill="#E0F4ED"/>
<path d="M209.88 132.28C208.04 132.28 206.44 131.987 205.08 131.4C203.72 130.813 202.653 130 201.88 128.96C201.107 127.92 200.667 126.747 200.56 125.44H205.92C206.053 125.947 206.28 126.413 206.6 126.84C206.92 127.24 207.347 127.56 207.88 127.8C208.413 128.04 209.053 128.16 209.8 128.16C210.52 128.16 211.107 128.067 211.56 127.88C212.013 127.667 212.347 127.387 212.56 127.04C212.8 126.693 212.92 126.333 212.92 125.96C212.92 125.4 212.76 124.973 212.44 124.68C212.12 124.36 211.653 124.107 211.04 123.92C210.427 123.733 209.68 123.547 208.8 123.36C207.84 123.173 206.893 122.947 205.96 122.68C205.053 122.387 204.24 122.027 203.52 121.6C202.8 121.173 202.227 120.627 201.8 119.96C201.373 119.293 201.16 118.467 201.16 117.48C201.16 116.28 201.48 115.213 202.12 114.28C202.76 113.32 203.693 112.56 204.92 112C206.147 111.44 207.627 111.16 209.36 111.16C211.787 111.16 213.707 111.707 215.12 112.8C216.533 113.893 217.373 115.4 217.64 117.32H212.56C212.4 116.707 212.04 116.227 211.48 115.88C210.947 115.507 210.227 115.32 209.32 115.32C208.36 115.32 207.627 115.493 207.12 115.84C206.613 116.187 206.36 116.64 206.36 117.2C206.36 117.573 206.52 117.907 206.84 118.2C207.187 118.493 207.667 118.747 208.28 118.96C208.893 119.147 209.64 119.333 210.52 119.52C212.067 119.84 213.427 120.213 214.6 120.64C215.773 121.04 216.693 121.627 217.36 122.4C218.027 123.147 218.36 124.24 218.36 125.68C218.36 126.96 218.013 128.107 217.32 129.12C216.627 130.107 215.64 130.88 214.36 131.44C213.107 132 211.613 132.28 209.88 132.28Z" fill="#26CD94"/>
<path d="M232.609 132.28C230.582 132.28 228.782 131.853 227.209 131C225.662 130.12 224.449 128.907 223.569 127.36C222.716 125.787 222.289 123.973 222.289 121.92C222.289 119.813 222.716 117.96 223.569 116.36C224.449 114.733 225.662 113.467 227.209 112.56C228.756 111.627 230.556 111.16 232.609 111.16C234.609 111.16 236.356 111.6 237.849 112.48C239.342 113.36 240.502 114.547 241.329 116.04C242.156 117.533 242.569 119.227 242.569 121.12C242.569 121.387 242.569 121.693 242.569 122.04C242.569 122.36 242.542 122.693 242.489 123.04H226.129V119.76H237.129C237.049 118.453 236.582 117.427 235.729 116.68C234.902 115.933 233.862 115.56 232.609 115.56C231.702 115.56 230.862 115.773 230.089 116.2C229.316 116.6 228.702 117.227 228.249 118.08C227.822 118.933 227.609 120.013 227.609 121.32V122.48C227.609 123.573 227.809 124.533 228.209 125.36C228.636 126.16 229.222 126.787 229.969 127.24C230.716 127.667 231.582 127.88 232.569 127.88C233.556 127.88 234.369 127.667 235.009 127.24C235.676 126.813 236.169 126.267 236.489 125.6H242.009C241.636 126.853 241.009 127.987 240.129 129C239.249 130.013 238.169 130.813 236.889 131.4C235.609 131.987 234.182 132.28 232.609 132.28Z" fill="#26CD94"/>
<path d="M246.992 131.8V111.64H251.752L252.152 114.92C252.765 113.8 253.632 112.893 254.752 112.2C255.898 111.507 257.258 111.16 258.832 111.16C260.512 111.16 261.925 111.507 263.072 112.2C264.218 112.893 265.085 113.907 265.672 115.24C266.285 116.573 266.592 118.213 266.592 120.16V131.8H261.232V120.68C261.232 119.08 260.885 117.853 260.192 117C259.525 116.147 258.485 115.72 257.072 115.72C256.165 115.72 255.352 115.933 254.632 116.36C253.938 116.787 253.392 117.4 252.992 118.2C252.592 118.973 252.392 119.92 252.392 121.04V131.8H246.992Z" fill="#26CD94"/>
<path d="M280.759 131.8C279.346 131.8 278.106 131.587 277.039 131.16C275.999 130.707 275.186 129.973 274.599 128.96C274.012 127.92 273.719 126.507 273.719 124.72V116.16H270.279V111.64H273.719L274.319 106.16H279.119V111.64H284.439V116.16H279.119V124.8C279.119 125.707 279.319 126.333 279.719 126.68C280.119 127.027 280.799 127.2 281.759 127.2H284.399V131.8H280.759Z" fill="#26CD94"/>
<path d="M289.104 131.8V111.64H294.504V131.8H289.104ZM291.824 108.88C290.864 108.88 290.064 108.6 289.424 108.04C288.81 107.453 288.504 106.72 288.504 105.84C288.504 104.96 288.81 104.24 289.424 103.68C290.064 103.093 290.864 102.8 291.824 102.8C292.81 102.8 293.61 103.093 294.224 103.68C294.864 104.24 295.184 104.96 295.184 105.84C295.184 106.72 294.864 107.453 294.224 108.04C293.61 108.6 292.81 108.88 291.824 108.88Z" fill="#26CD94"/>
<path d="M299.96 131.8V111.64H304.72L305.12 114.92C305.734 113.8 306.6 112.893 307.72 112.2C308.867 111.507 310.227 111.16 311.8 111.16C313.48 111.16 314.894 111.507 316.04 112.2C317.187 112.893 318.054 113.907 318.64 115.24C319.254 116.573 319.56 118.213 319.56 120.16V131.8H314.2V120.68C314.2 119.08 313.854 117.853 313.16 117C312.494 116.147 311.454 115.72 310.04 115.72C309.134 115.72 308.32 115.933 307.6 116.36C306.907 116.787 306.36 117.4 305.96 118.2C305.56 118.973 305.36 119.92 305.36 121.04V131.8H299.96Z" fill="#26CD94"/>
<path d="M334.328 132.28C332.301 132.28 330.501 131.853 328.928 131C327.381 130.12 326.168 128.907 325.288 127.36C324.435 125.787 324.008 123.973 324.008 121.92C324.008 119.813 324.435 117.96 325.288 116.36C326.168 114.733 327.381 113.467 328.928 112.56C330.475 111.627 332.275 111.16 334.328 111.16C336.328 111.16 338.075 111.6 339.568 112.48C341.061 113.36 342.221 114.547 343.048 116.04C343.875 117.533 344.288 119.227 344.288 121.12C344.288 121.387 344.288 121.693 344.288 122.04C344.288 122.36 344.261 122.693 344.208 123.04H327.848V119.76H338.848C338.768 118.453 338.301 117.427 337.448 116.68C336.621 115.933 335.581 115.56 334.328 115.56C333.421 115.56 332.581 115.773 331.808 116.2C331.035 116.6 330.421 117.227 329.968 118.08C329.541 118.933 329.328 120.013 329.328 121.32V122.48C329.328 123.573 329.528 124.533 329.928 125.36C330.355 126.16 330.941 126.787 331.688 127.24C332.435 127.667 333.301 127.88 334.288 127.88C335.275 127.88 336.088 127.667 336.728 127.24C337.395 126.813 337.888 126.267 338.208 125.6H343.728C343.355 126.853 342.728 127.987 341.848 129C340.968 130.013 339.888 130.813 338.608 131.4C337.328 131.987 335.901 132.28 334.328 132.28Z" fill="#26CD94"/>
<path d="M348.71 131.8V103H354.11V131.8H348.71Z" fill="#26CD94"/>
</g>
<defs>
<linearGradient id="paint0_linear_12013_161" x1="160.033" y1="60.558" x2="73.9841" y2="128.913" gradientUnits="userSpaceOnUse">
<stop stop-color="#0BA671"/>
<stop offset="1" stop-color="#365C6C"/>
</linearGradient>
<clipPath id="clip0_12013_161">
<rect width="900" height="320" fill="white"/>
</clipPath>
</defs>
</svg>
