<svg viewBox="14 -22 126 126" fill="none" xmlns="http://www.w3.org/2000/svg">
<defs>
<linearGradient id="paint0_linear_12034_573" x1="114.033" y1="5.55803" x2="27.9841" y2="73.9127" gradientUnits="userSpaceOnUse">
<stop stop-color="#0BA671"></stop>
<stop offset="1" stop-color="#365C6C"></stop>
</linearGradient>
</defs>
<path d="M58.9903 6.86496C81.6172 -5.6056 113.459 2.15947 134.451 5.05494C135.275 5.16866 135.758 6.03957 135.418 6.79862C125.655 28.598 116.278 57.1161 93.5809 69.6258C72.8389 81.0576 53.4743 72.5861 34.2809 67.0338C36.0788 61.6034 38.8683 56.3252 42.442 51.4786C42.899 50.8372 43.3478 50.2192 43.8231 49.5873C43.2183 50.0965 42.6368 50.5943 42.044 51.1199C31.9499 59.6612 23.6919 72.673 22.8092 87.4156C22.6824 87.5743 22.5354 87.7189 22.3686 87.8446C21.8026 88.272 21.0602 88.4526 20.3242 88.3496C19.5883 88.2464 18.9241 87.869 18.4973 87.3026C18.0694 86.736 17.9138 86.0267 18.0454 85.3286C18.2307 84.3276 18.443 83.3465 18.6862 82.3635C20.2863 75.7364 23.228 69.9058 26.9913 64.6955C28.1839 62.7817 29.1561 60.2383 29.9954 57.5821C30.3175 56.5261 30.6319 55.4561 30.9431 54.3757C31.6653 51.8007 32.2978 49.3134 32.9167 47.3797C37.2415 32.0745 42.4995 15.9538 58.9903 6.86496Z" fill="url(#paint0_linear_12034_573)"></path>
<path d="M100.657 36.2674C100.657 24.5576 91.1646 15.065 79.4549 15.065C67.7451 15.065 58.2525 24.5576 58.2525 36.2674C58.2525 47.9771 67.7451 57.4697 79.4549 57.4697L79.4549 60.3516C66.1535 60.3516 55.3706 49.5687 55.3706 36.2674C55.3706 22.966 66.1535 12.1831 79.4549 12.1831C92.7562 12.1831 103.539 22.966 103.539 36.2674C103.539 49.5687 92.7562 60.3516 79.4549 60.3516L79.4549 57.4697C91.1646 57.4697 100.657 47.9771 100.657 36.2674Z" fill="#E0F4ED"></path>
<path d="M79.4094 22.1887C81.1502 22.1888 82.8168 22.5063 84.3547 23.0862L80.4592 35.3069C80.1997 36.1208 81.0141 36.865 81.801 36.5325L92.7542 31.9036C93.1917 33.2605 93.4299 34.7077 93.4299 36.2102C93.4297 43.9533 87.1525 50.2305 79.4094 50.2307C71.6661 50.2307 65.3882 43.9535 65.3879 36.2102C65.3879 28.4667 71.666 22.1887 79.4094 22.1887Z" fill="#0B523A"></path>
<path d="M87.4331 13.4298C94.2358 15.826 99.6422 21.1818 102.106 27.9523L92.7544 31.9034C91.444 27.8396 88.3302 24.5861 84.355 23.087L87.4331 13.4298Z" fill="#E0F4ED"></path>
</svg>