<svg id="Layer_1" data-name="Layer 1" xmlns="http://www.w3.org/2000/svg" viewBox="55.47 55.47 489.01 293.83"><path d="M90.87,262.82v9.12H55.62V213.88H90.46V223H65.16v15.1H88.38v9H65.16v15.68Z"/><path d="M134.73,262.82v9.12H101.55V213.88h9.54v48.94Z"/><path d="M177.38,262.82v9.12H142.13V213.88H177V223h-25.3v15.1H174.9v9H151.67v15.68Z"/><path d="M183.67,242.91c0-16.84,12.69-30.11,30.36-30.11a28.61,28.61,0,0,1,25,13.85l-8.3,4.81c-3.07-5.72-9.37-9.37-16.67-9.37-12.53,0-20.82,8.88-20.82,20.82s8.29,20.82,20.82,20.82c7.3,0,13.69-3.65,16.67-9.37l8.3,4.72c-4.81,8.47-14.27,13.94-25,13.94C196.36,273,183.67,259.75,183.67,242.91Z"/><path d="M286.39,223H270.05v48.94h-9.54V223H244.09v-9.12h42.3Z"/><path d="M314.62,250.79H303.33v21.15H293.8V213.88H317a18.58,18.58,0,0,1,18.66,18.66,18.3,18.3,0,0,1-11.53,16.84l13.19,22.56H326.89Zm-11.29-8.54H317a9.4,9.4,0,0,0,9.13-9.71c0-5.47-4.07-9.7-9.13-9.7H303.33Z"/><path d="M355.82,213.88v58.06h-9.54V213.88Z"/><path d="M365.85,242.91c0-16.84,12.69-30.11,30.36-30.11a28.59,28.59,0,0,1,25,13.85l-8.29,4.81c-3.07-5.72-9.37-9.37-16.67-9.37-12.53,0-20.82,8.88-20.82,20.82s8.29,20.82,20.82,20.82c7.3,0,13.68-3.65,16.67-9.37l8.29,4.72c-4.81,8.47-14.26,13.94-25,13.94C378.54,273,365.85,259.75,365.85,242.91Z"/><path d="M439.89,213.88v58.06h-9.54V213.88Z"/><path d="M489.49,223H473.15v48.94h-9.54V223H447.19v-9.12h42.3Z"/><path d="M524.25,248.88v23.06h-9.54V248.88l-20.24-35h10.87l14.18,25.71,14.1-25.71h10.87Z"/><path d="M111.19,348.23h-9.53V306.84L84,336H82.83L65.16,306.75v41.48H55.62V290.16H65.91l17.5,29,17.58-29h10.2Z"/><path d="M157.47,336.53H132.75l-4.06,11.7H118.32l21.07-58.07h11.44l21,58.07H161.53Zm-3.15-9-9.21-26.21-9.21,26.21Z"/><path d="M219.54,309.24a18.87,18.87,0,0,1-19.25,19.08H188.43v19.91h-9.54V290.16h21.4A18.82,18.82,0,0,1,219.54,309.24Zm-9.54,0c0-5.89-4.07-10.12-9.71-10.12H188.43v20.24h11.86C205.93,319.36,210,315.05,210,309.24Z"/><path d="M224.8,335l8.22-4.81c2.07,5.89,6.55,9.78,14.43,9.78,7.55,0,10.78-3.4,10.78-7.63,0-5.14-4.56-6.88-13.19-9.53-9-2.74-17.83-6.06-17.83-17,0-10.7,8.87-16.75,18.66-16.75a21.56,21.56,0,0,1,20.24,12.77l-8,4.64c-2.08-4.64-5.73-8.12-12.2-8.12-5.56,0-9.12,2.82-9.12,7.21s3.23,6.39,11.69,9c9.63,3.07,19.33,6.06,19.33,17.59,0,10.62-8.46,17.09-20.57,17.09C235.75,349.31,227.87,343.67,224.8,335Z"/><circle cx="155.58" cy="155.58" r="5.32"/><circle cx="108.26" cy="155.58" r="5.32"/><circle cx="60.94" cy="155.58" r="5.32"/><circle cx="155.58" cy="108.26" r="5.32"/><circle cx="60.94" cy="108.26" r="5.32"/><circle cx="155.58" cy="60.94" r="5.32"/><circle cx="108.26" cy="60.94" r="5.32"/><circle cx="60.94" cy="60.94" r="5.32"/><path d="M133.88,100.29H111.45V81.46a2.18,2.18,0,0,0-3.9-1.34L80.91,112.71a2.18,2.18,0,0,0,1.73,3.52h22.43v18.83a2.18,2.18,0,0,0,3.9,1.34l26.64-32.59A2.18,2.18,0,0,0,133.88,100.29Z"/></svg>